<?xml version="1.0" encoding="iso-8859-1"?>
<!-- Generator: Adobe Illustrator 19.0.0, SVG Export Plug-In . SVG Version: 6.00 Build 0)  -->
<svg version="1.1" xmlns="http://www.w3.org/2000/svg" xmlns:xlink="http://www.w3.org/1999/xlink" x="0px" y="0px"
	 viewBox="-627 389 24 24" style="enable-background:new -627 389 24 24;" xml:space="preserve">
<g id="Layer_1" style="display:none;">
	<path style="display:inline;fill:#D14476;" d="M-615,391c-3.87,0-7,3.13-7,7c0,5.25,7,13,7,13s7-7.75,7-13
		C-608,394.13-611.13,391-615,391z M-615,400.5c-1.38,0-2.5-1.12-2.5-2.5s1.12-2.5,2.5-2.5s2.5,1.12,2.5,2.5
		S-613.62,400.5-615,400.5z"/>
	<path style="display:inline;fill:none;" d="M-627,389h24v24h-24V389z"/>
</g>
<g id="Layer_2">
	<g>
		<path style="fill:#666666;" d="M-608.508,401.502c0.935,2.211-0.385,4.966-6.481,4.966c-7.898-1.924-10.146,0.909-10.511,1.483
			c-0.022,0.037-0.04,0.067-0.064,0.106c0,0,0.024-0.044,0.064-0.106c1.993-3.316,1.223-2.001,2.452-4.04
			c1.318-2.181,4.777-1.335,8.06-0.846c2.188,0.371,4.079,0.536,4.079-0.992c0-1.591-1.891-2.029-4.079-2.38
			c-3.283-0.432-5.019-0.733-3.715-2.89c1.219-2.024,2.621-2.66,3.715-2.751c1.084-0.11,2.338,0.559,2.362,0.572l-2.377-3.969
			l-11.936,19.65l23.797,0.015L-608.508,401.502z"/>
		<path style="fill:#666666;" d="M-614.989,398.145c2.067,0.083,4.459,0.396,5.962,2.49l-3.411-5.697
			c0.329,0.558,1.015,1.72,1.36,2.295c-0.636-1.057-2.817-1.786-3.911-1.899c-2.188-0.103-3.02,0.311-3.715,1.467
			C-618.8,398.191-617.177,398.059-614.989,398.145z"/>
	</g>
</g>
</svg>
