<?xml version="1.0" encoding="iso-8859-1"?>
<!-- Generator: Adobe Illustrator 19.0.0, SVG Export Plug-In . SVG Version: 6.00 Build 0)  -->
<svg version="1.1" id="Layer_1" xmlns="http://www.w3.org/2000/svg" xmlns:xlink="http://www.w3.org/1999/xlink" x="0px" y="0px"
	 viewBox="-635 373.015 40 80" style="enable-background:new -635 373.015 40 80;" xml:space="preserve">
<rect x="-635" y="413" style="display:none;fill:#F6D257;" width="40" height="40"/>
<path style="fill:#666666;" d="M-618.333,447.167v-10h6.667v10h8.333v-13.333h5l-16.667-15l-16.667,15h5v13.333H-618.333z"/>
<path style="display:none;fill:none;" d="M-641.252,403.543h24v24h-24V403.543z"/>
<rect x="-635" y="373.015" style="display:none;fill:#F6D257;" width="40" height="40"/>
<path style="fill:#666666;" d="M-615,376.348c-6.45,0-11.667,5.217-11.667,11.667c0,8.75,11.667,21.667,11.667,21.667
	s11.667-12.917,11.667-21.667C-603.333,381.565-608.55,376.348-615,376.348z M-615,392.182c-2.3,0-4.167-1.867-4.167-4.167
	s1.867-4.167,4.167-4.167s4.167,1.867,4.167,4.167S-612.7,392.182-615,392.182z"/>
</svg>
