<?xml version="1.0" encoding="iso-8859-1"?>
<!-- Generator: Adobe Illustrator 19.0.0, SVG Export Plug-In . SVG Version: 6.00 Build 0)  -->
<svg version="1.1" xmlns="http://www.w3.org/2000/svg" xmlns:xlink="http://www.w3.org/1999/xlink" x="0px" y="0px"
	 viewBox="0 0 500 392.943" style="enable-background:new 0 0 500 392.943;" xml:space="preserve">
<g id="Layer_21">
	<rect id="XMLID_49_" x="-0.44" y="0.471" style="fill:#FBB03B;" width="499" height="392"/>
	<path id="XMLID_41_" style="fill:#96D6E0;" d="M366.805,178.24c-29.862-0.102-35.201-18.902-72.778-18.902
		s-29.162,31.711-83.208,30.32c-55.487-1.429-49.057-31.646-82.431-30.314c-34.976,1.396-33.807,19.534-78.997,18.91
		c-41.034-0.567-49.863-22.245-49.863-22.245l-0.103,124.463H498.56v-95.492c-16.125-0.461-25.757-25.643-61.598-25.643
		C400.791,159.336,396.667,178.342,366.805,178.24z"/>
	<path id="XMLID_25_" style="fill:#5587A2;" d="M368.026,184.868c-29.825,1.724-42.904-27.529-72.811-18.964
		c-30.022,8.598-28.704,37.089-80.858,36.674c-51.663-0.411-53.838-36.956-83.094-40.001c-34.83-3.625-46.741,28.084-78.952,28.084
		c-41.057,0-51.726-28.489-51.726-28.489l-1.161,226.299h499.518L500,191.225c-28.156-0.156-35.595-29.139-62.873-29.139
		C418.528,162.086,410.262,182.426,368.026,184.868z"/>
	<path id="XMLID_24_" style="fill:#FFFFFF;fill-opacity:0.75;" d="M-0.533,74.844c0,0,8.842,21.667,49.928,22.234
		c45.247,0.624,44.052-18.91,79.101-18.91s28.413,30.05,82.544,30.314c54.131,0.265,45.705-30.32,83.33-30.32
		s43.006,18.8,72.906,18.902c29.9,0.102,34.181-18.903,70.398-18.903s45.282,25.664,62.362,25.664
		c-0.054-57.186-0.055-102.993-0.055-102.993H-0.533V74.844z"/>
	<path id="XMLID_108_" style="fill:#FFFFFF;fill-opacity:0.75;" d="M-0.533,44.875c0,0,8.842,21.667,49.928,22.234
		c45.247,0.624,44.052-18.91,79.101-18.91s28.413,30.05,82.544,30.314c54.131,0.265,45.705-30.32,83.33-30.32
		s43.006,18.8,72.906,18.902c29.9,0.102,34.181-18.903,70.398-18.903s45.282,25.664,62.362,25.664
		c-0.054-57.186-0.055-73.024-0.055-73.024H-0.533V44.875z"/>
	<path id="XMLID_109_" style="fill:#FFFFFF;" d="M-0.44,13.97c0,0,8.795,21.667,49.881,22.234
		c45.247,0.624,44.029-18.91,79.077-18.91c35.049,0,28.402,30.05,82.532,30.314s45.699-30.32,83.324-30.32
		s43.003,18.8,72.903,18.902s34.18-18.903,70.397-18.903s45.281,25.484,62.361,25.484c-0.054-57.186-0.056-42.299-0.056-42.299
		H-0.44V13.97z"/>
	<rect id="XMLID_26_" y="195.471" style="fill:#88B14B;" width="500" height="214.98"/>
	<rect id="XMLID_92_" x="-0.576" y="335.471" style="fill:#0C4C8A;" width="500.576" height="40"/>
	<rect id="XMLID_93_" x="-0.576" y="295.471" style="fill:#666666;" width="500.576" height="40"/>
	<rect id="XMLID_91_" x="-0.054" y="255.471" style="fill:#5587A2;" width="500.054" height="40"/>
	<rect id="XMLID_94_" x="-0.576" y="215.471" style="fill:#999999;" width="500.576" height="40"/>
	<polygon id="XMLID_80_" style="fill:#5C7148;" points="499.56,195.278 316.097,392.471 499.56,392.471 	"/>
</g>
<g id="Layer_6">
	<g id="XMLID_193_">
		<g id="XMLID_279_">
			<path id="XMLID_372_" style="fill:#F6D257;" d="M37.874,229.05H27.08v3.535h10.276c1.574,0,2.654,0.265,3.239,0.796
				c0.585,0.531,0.878,1.56,0.878,3.089v2.26c0,1.529-0.292,2.559-0.876,3.089c-0.584,0.53-1.661,0.796-3.232,0.796H27.207
				c-1.571,0-2.648-0.265-3.232-0.796c-0.584-0.53-0.876-1.56-0.876-3.089v-0.445l3.375-0.701v1.943h11.622v-3.757H27.844
				c-1.571,0-2.643-0.265-3.216-0.797c-0.573-0.53-0.86-1.56-0.86-3.089v-1.815c0-1.528,0.287-2.557,0.86-3.089
				c0.573-0.53,1.645-0.796,3.216-0.796h9.33c1.507,0,2.563,0.254,3.168,0.765c0.605,0.509,0.908,1.454,0.908,2.833v0.35
				l-3.375,0.797V229.05z"/>
			<path id="XMLID_369_" style="fill:#FFFFFF;" d="M48.139,242.615v-11.502h9.852c1.724,0,2.585,0.744,2.585,2.23v2.563
				c0,1.486-0.862,2.229-2.585,2.229H50.77v4.48H48.139z M56.788,233.075H50.77v3.099h6.018c0.416,0,0.706-0.046,0.869-0.136
				c0.223-0.135,0.334-0.399,0.334-0.791v-1.244c0-0.392-0.112-0.656-0.334-0.791C57.493,233.121,57.203,233.075,56.788,233.075z"/>
			<path id="XMLID_366_" style="fill:#FFFFFF;" d="M62.493,242.615l6.509-11.502h2.585l6.598,11.502h-3.009l-1.382-2.519h-7.289
				l-1.337,2.519H62.493z M67.642,238.024h5.037l-2.474-4.681L67.642,238.024z"/>
			<path id="XMLID_364_" style="fill:#FFFFFF;" d="M87.234,233.165v9.45H84.56v-9.45h-5.283v-2.051h13.262v2.051H87.234z"/>
			<path id="XMLID_362_" style="fill:#FFFFFF;" d="M95.816,242.615v-11.502h2.675v11.502H95.816z"/>
			<path id="XMLID_359_" style="fill:#FFFFFF;" d="M104.13,233.834c0-1.07,0.201-1.791,0.602-2.162
				c0.401-0.371,1.151-0.558,2.251-0.558h8.47c1.099,0,1.85,0.187,2.251,0.558c0.401,0.371,0.602,1.092,0.602,2.162v6.063
				c0,1.07-0.201,1.791-0.602,2.162s-1.152,0.557-2.251,0.557h-8.47c-1.1,0-1.85-0.186-2.251-0.557s-0.602-1.092-0.602-2.162
				V233.834z M106.804,240.453h8.827v-7.288h-8.827V240.453z"/>
			<path id="XMLID_357_" style="fill:#F6D257;" d="M132.847,229.114v13.501h-3.821v-13.501h-7.547v-2.929h18.946v2.929H132.847z"/>
			<path id="XMLID_355_" style="fill:#FFFFFF;" d="M143.845,242.615v-11.502h11.769v1.962h-9.094v2.564h5.305v1.961h-5.305v2.853
				h9.206v2.162H143.845z"/>
			<path id="XMLID_353_" style="fill:#FFFFFF;" d="M160.651,242.615v-11.502h2.162l5.417,6.954l5.305-6.954h2.14v11.502H173.2v-7.11
				c0-0.283,0.03-0.691,0.089-1.226c-0.282,0.58-0.505,0.981-0.669,1.204l-4.324,5.751h-0.535l-4.324-5.773
				c-0.312-0.416-0.543-0.81-0.691-1.182c0.045,0.461,0.067,0.87,0.067,1.226v7.11H160.651z"/>
			<path id="XMLID_350_" style="fill:#FFFFFF;" d="M181.313,242.615v-11.502h9.852c1.724,0,2.585,0.744,2.585,2.23v2.563
				c0,1.486-0.862,2.229-2.585,2.229h-7.221v4.48H181.313z M189.961,233.075h-6.018v3.099h6.018c0.416,0,0.706-0.046,0.869-0.136
				c0.223-0.135,0.334-0.399,0.334-0.791v-1.244c0-0.392-0.112-0.656-0.334-0.791C190.667,233.121,190.377,233.075,189.961,233.075z
				"/>
			<path id="XMLID_347_" style="fill:#FFFFFF;" d="M197.629,233.834c0-1.07,0.201-1.791,0.602-2.162
				c0.401-0.371,1.151-0.558,2.251-0.558h8.47c1.099,0,1.85,0.187,2.251,0.558c0.401,0.371,0.602,1.092,0.602,2.162v6.063
				c0,1.07-0.201,1.791-0.602,2.162s-1.152,0.557-2.251,0.557h-8.47c-1.1,0-1.85-0.186-2.251-0.557
				c-0.401-0.371-0.602-1.092-0.602-2.162V233.834z M200.304,240.453h8.827v-7.288h-8.827V240.453z"/>
			<path id="XMLID_287_" style="fill:#FFFFFF;" d="M217.444,242.615v-11.502h9.852c1.724,0,2.585,0.744,2.585,2.23v2.696
				c0,1.486-0.862,2.23-2.585,2.23h-1.515l5.305,4.346h-3.833l-4.636-4.346h-2.541v4.346H217.444z M226.092,233.075h-6.018v3.232
				h6.018c0.416,0,0.706-0.045,0.869-0.134c0.223-0.134,0.334-0.397,0.334-0.786v-1.392c0-0.389-0.112-0.65-0.334-0.786
				C226.797,233.12,226.507,233.075,226.092,233.075z"/>
			<path id="XMLID_282_" style="fill:#FFFFFF;" d="M233.113,242.615l6.509-11.502h2.585l6.598,11.502h-3.009l-1.382-2.519h-7.289
				l-1.337,2.519H233.113z M238.262,238.024h5.037l-2.474-4.681L238.262,238.024z"/>
			<path id="XMLID_280_" style="fill:#FFFFFF;" d="M252.504,242.615v-11.502h2.674v9.34h8.626v2.162H252.504z"/>
		</g>
		<g id="XMLID_249_">
			<path id="XMLID_277_" style="fill:#F6D257;" d="M23.64,281.825v-16.43h16.813v2.802H27.461v3.662h7.579v2.801h-7.579v4.076
				h13.151v3.089H23.64z"/>
			<path id="XMLID_275_" style="fill:#FFFFFF;" d="M46.397,281.825v-11.502h1.828l8.091,6.776c0.579,0.49,1.017,0.907,1.315,1.248
				c-0.075-1.07-0.111-1.73-0.111-1.984v-6.041h2.407v11.502h-1.828l-8.447-7.11c-0.357-0.297-0.676-0.609-0.958-0.937
				c0.074,0.744,0.111,1.353,0.111,1.827v6.219H46.397z"/>
			<path id="XMLID_273_" style="fill:#FFFFFF;" d="M69.667,281.825l-6.642-11.502h3.054l4.658,8.314l4.436-8.314h2.675l-6.33,11.502
				H69.667z"/>
			<path id="XMLID_271_" style="fill:#FFFFFF;" d="M80.968,281.825v-11.502h2.675v11.502H80.968z"/>
			<path id="XMLID_268_" style="fill:#FFFFFF;" d="M89.527,281.825v-11.502h9.852c1.724,0,2.585,0.744,2.585,2.23v2.696
				c0,1.486-0.862,2.23-2.585,2.23h-1.515l5.305,4.346h-3.833l-4.636-4.346h-2.541v4.346H89.527z M98.175,272.285h-6.018v3.232
				h6.018c0.416,0,0.706-0.045,0.869-0.134c0.223-0.134,0.334-0.397,0.334-0.786v-1.392c0-0.389-0.112-0.65-0.334-0.786
				C98.88,272.33,98.59,272.285,98.175,272.285z"/>
			<path id="XMLID_265_" style="fill:#FFFFFF;" d="M107.157,273.043c0-1.07,0.201-1.791,0.602-2.162
				c0.401-0.371,1.151-0.558,2.251-0.558h8.47c1.099,0,1.85,0.187,2.251,0.558c0.401,0.371,0.602,1.092,0.602,2.162v6.063
				c0,1.07-0.201,1.791-0.602,2.162c-0.401,0.371-1.152,0.557-2.251,0.557h-8.47c-1.1,0-1.85-0.186-2.251-0.557
				c-0.401-0.371-0.602-1.092-0.602-2.162V273.043z M109.832,279.663h8.827v-7.288h-8.827V279.663z"/>
			<path id="XMLID_263_" style="fill:#FFFFFF;" d="M126.949,281.825v-11.502h1.828l8.091,6.776c0.579,0.49,1.017,0.907,1.315,1.248
				c-0.075-1.07-0.111-1.73-0.111-1.984v-6.041h2.407v11.502h-1.828l-8.447-7.11c-0.357-0.297-0.676-0.609-0.958-0.937
				c0.074,0.744,0.111,1.353,0.111,1.827v6.219H126.949z"/>
			<path id="XMLID_261_" style="fill:#FFFFFF;" d="M146.319,281.825v-11.502h2.162l5.417,6.954l5.305-6.954h2.14v11.502h-2.474
				v-7.11c0-0.283,0.03-0.691,0.089-1.226c-0.282,0.58-0.505,0.981-0.669,1.204l-4.324,5.751h-0.535l-4.324-5.773
				c-0.312-0.416-0.543-0.81-0.691-1.182c0.045,0.461,0.067,0.87,0.067,1.226v7.11H146.319z"/>
			<path id="XMLID_259_" style="fill:#FFFFFF;" d="M166.981,281.825v-11.502h11.769v1.962h-9.094v2.564h5.305v1.961h-5.305v2.853
				h9.206v2.162H166.981z"/>
			<path id="XMLID_257_" style="fill:#FFFFFF;" d="M183.786,281.825v-11.502h1.828l8.091,6.776c0.579,0.49,1.017,0.907,1.315,1.248
				c-0.075-1.07-0.111-1.73-0.111-1.984v-6.041h2.407v11.502h-1.828l-8.447-7.11c-0.357-0.297-0.676-0.609-0.958-0.937
				c0.074,0.744,0.111,1.353,0.111,1.827v6.219H183.786z"/>
			<path id="XMLID_255_" style="fill:#FFFFFF;" d="M208.527,272.375v9.45h-2.675v-9.45h-5.283v-2.051h13.262v2.051H208.527z"/>
			<path id="XMLID_252_" style="fill:#FFFFFF;" d="M214.902,281.825l6.509-11.502h2.585l6.598,11.502h-3.009l-1.382-2.519h-7.289
				l-1.337,2.519H214.902z M220.051,277.234h5.037l-2.474-4.681L220.051,277.234z"/>
			<path id="XMLID_250_" style="fill:#FFFFFF;" d="M234.294,281.825v-11.502h2.675v9.34h8.626v2.162H234.294z"/>
		</g>
		<g id="XMLID_223_">
			<path id="XMLID_247_" style="fill:#FFFFFF;" d="M22.38,324.035v-11.502h2.675v11.502H22.38z"/>
			<path id="XMLID_245_" style="fill:#FFFFFF;" d="M30.916,324.035v-11.502h1.828l8.091,6.776c0.579,0.49,1.017,0.907,1.315,1.248
				c-0.075-1.07-0.111-1.73-0.111-1.984v-6.041h2.407v11.502h-1.828l-8.447-7.11c-0.357-0.297-0.676-0.609-0.958-0.937
				c0.074,0.744,0.111,1.353,0.111,1.827v6.219H30.916z"/>
			<path id="XMLID_243_" style="fill:#FFFFFF;" d="M50.307,324.035v-11.502h11.635v2.007h-8.961v3.031h4.837v2.095h-4.837v4.369
				H50.307z"/>
			<path id="XMLID_240_" style="fill:#FFFFFF;" d="M65.018,315.253c0-1.07,0.201-1.791,0.602-2.162s1.151-0.558,2.251-0.558h8.47
				c1.099,0,1.85,0.187,2.251,0.558s0.602,1.092,0.602,2.162v6.063c0,1.07-0.201,1.791-0.602,2.162
				c-0.401,0.371-1.152,0.557-2.251,0.557h-8.47c-1.1,0-1.85-0.186-2.251-0.557c-0.401-0.371-0.602-1.092-0.602-2.162V315.253z
				 M67.693,321.873h8.827v-7.288h-8.827V321.873z"/>
			<path id="XMLID_237_" style="fill:#FFFFFF;" d="M84.833,324.035v-11.502h9.852c1.724,0,2.585,0.744,2.585,2.23v2.696
				c0,1.486-0.862,2.23-2.585,2.23h-1.515l5.305,4.346H94.64l-4.636-4.346h-2.541v4.346H84.833z M93.481,314.495h-6.018v3.232h6.018
				c0.416,0,0.706-0.045,0.869-0.134c0.223-0.134,0.334-0.397,0.334-0.786v-1.392c0-0.389-0.112-0.65-0.334-0.786
				C94.187,314.54,93.897,314.495,93.481,314.495z"/>
			<path id="XMLID_235_" style="fill:#F6D257;" d="M103.938,324.035v-16.43h3.089l7.738,9.935l7.578-9.935h3.057v16.43h-3.534
				v-10.157c0-0.403,0.042-0.988,0.127-1.751c-0.403,0.828-0.722,1.401-0.955,1.719l-6.177,8.215h-0.765l-6.177-8.247
				c-0.446-0.594-0.775-1.157-0.987-1.687c0.064,0.659,0.096,1.242,0.096,1.751v10.157H103.938z"/>
			<path id="XMLID_232_" style="fill:#FFFFFF;" d="M129.987,324.035l6.509-11.502h2.585l6.598,11.502h-3.009l-1.382-2.519h-7.289
				l-1.337,2.519H129.987z M135.136,319.444h5.037l-2.474-4.681L135.136,319.444z"/>
			<path id="XMLID_230_" style="fill:#FFFFFF;" d="M154.728,314.585v9.45h-2.675v-9.45h-5.283v-2.051h13.262v2.051H154.728z"/>
			<path id="XMLID_228_" style="fill:#FFFFFF;" d="M163.31,324.035v-11.502h2.675v11.502H163.31z"/>
			<path id="XMLID_226_" style="fill:#FFFFFF;" d="M181.519,314.585h-7.221v7.288h7.221v-2.474l2.675,0.557v1.36
				c0,1.07-0.201,1.791-0.602,2.162c-0.401,0.371-1.151,0.557-2.251,0.557h-6.865c-1.1,0-1.85-0.186-2.251-0.557
				c-0.401-0.371-0.602-1.092-0.602-2.162v-6.063c0-1.07,0.201-1.791,0.602-2.162s1.151-0.558,2.251-0.558h6.865
				c1.099,0,1.85,0.187,2.251,0.558c0.401,0.371,0.602,1.092,0.602,2.162v1.092l-2.675,0.423V314.585z"/>
			<path id="XMLID_224_" style="fill:#FFFFFF;" d="M199.685,314.54h-7.556v2.474h7.193c1.102,0,1.858,0.186,2.267,0.557
				c0.41,0.372,0.615,1.093,0.615,2.162v1.583c0,1.07-0.204,1.791-0.613,2.162c-0.409,0.371-1.163,0.557-2.262,0.557h-7.11
				c-1.1,0-1.854-0.186-2.262-0.557c-0.409-0.371-0.613-1.092-0.613-2.162v-0.312l2.363-0.491v1.36h8.136v-2.63h-7.177
				c-1.1,0-1.85-0.186-2.251-0.557c-0.401-0.371-0.602-1.092-0.602-2.162v-1.27c0-1.07,0.201-1.791,0.602-2.162
				c0.401-0.371,1.151-0.558,2.251-0.558h6.531c1.055,0,1.794,0.178,2.217,0.535s0.636,1.018,0.636,1.984v0.245l-2.363,0.558V314.54
				z"/>
		</g>
		<g id="XMLID_194_">
			<path id="XMLID_221_" style="fill:#F6D257;" d="M23.64,364.246v-16.43h3.821v13.342h12.323v3.089H23.64z"/>
			<path id="XMLID_218_" style="fill:#F6D257;" d="M41.921,364.246l6.509-11.502h2.585l6.598,11.502h-3.009l-1.382-2.519h-7.289
				l-1.337,2.519H41.921z M47.07,359.655h5.037l-2.474-4.681L47.07,359.655z"/>
			<path id="XMLID_214_" style="fill:#F6D257;" d="M61.312,364.246v-11.502h9.852c1.724,0,2.585,0.744,2.585,2.23v1.404
				c0,1.129-0.661,1.776-1.984,1.939c1.382,0.178,2.073,0.914,2.073,2.207v1.472c0,1.501-1.129,2.251-3.388,2.251H61.312z
				 M70.05,354.617h-6.107v2.741h6.107c0.817,0,1.226-0.274,1.226-0.824v-1.093C71.276,354.892,70.867,354.617,70.05,354.617z
				 M70.05,359.253h-6.107v2.919h6.107c0.446,0,0.758-0.051,0.936-0.155c0.238-0.148,0.357-0.438,0.357-0.87v-0.869
				c0-0.431-0.119-0.721-0.357-0.87C70.808,359.305,70.496,359.253,70.05,359.253z"/>
			<path id="XMLID_211_" style="fill:#FFFFFF;" d="M78.765,355.464c0-1.07,0.201-1.791,0.602-2.162s1.151-0.558,2.251-0.558h8.47
				c1.099,0,1.85,0.187,2.251,0.558c0.401,0.371,0.602,1.092,0.602,2.162v6.063c0,1.07-0.201,1.791-0.602,2.162
				c-0.401,0.371-1.152,0.557-2.251,0.557h-8.47c-1.1,0-1.85-0.186-2.251-0.557c-0.401-0.371-0.602-1.092-0.602-2.162V355.464z
				 M81.439,362.084h8.827v-7.288h-8.827V362.084z"/>
			<path id="XMLID_208_" style="fill:#FFFFFF;" d="M98.579,364.246v-11.502h9.852c1.724,0,2.585,0.744,2.585,2.23v2.696
				c0,1.486-0.862,2.23-2.585,2.23h-1.515l5.305,4.346h-3.833l-4.636-4.346h-2.541v4.346H98.579z M107.228,354.706h-6.018v3.232
				h6.018c0.416,0,0.706-0.045,0.869-0.134c0.223-0.134,0.334-0.397,0.334-0.786v-1.392c0-0.389-0.112-0.65-0.334-0.786
				C107.933,354.751,107.643,354.706,107.228,354.706z"/>
			<path id="XMLID_205_" style="fill:#FFFFFF;" d="M114.248,364.246l6.509-11.502h2.585l6.598,11.502h-3.009l-1.382-2.519h-7.289
				l-1.337,2.519H114.248z M119.397,359.655h5.037l-2.474-4.681L119.397,359.655z"/>
			<path id="XMLID_203_" style="fill:#FFFFFF;" d="M138.989,354.796v9.45h-2.675v-9.45h-5.283v-2.051h13.262v2.051H138.989z"/>
			<path id="XMLID_200_" style="fill:#FFFFFF;" d="M147.326,355.464c0-1.07,0.201-1.791,0.602-2.162
				c0.401-0.371,1.151-0.558,2.251-0.558h8.47c1.099,0,1.85,0.187,2.251,0.558c0.401,0.371,0.602,1.092,0.602,2.162v6.063
				c0,1.07-0.201,1.791-0.602,2.162c-0.401,0.371-1.152,0.557-2.251,0.557h-8.47c-1.1,0-1.85-0.186-2.251-0.557
				c-0.401-0.371-0.602-1.092-0.602-2.162V355.464z M150,362.084h8.827v-7.288H150V362.084z"/>
			<path id="XMLID_197_" style="fill:#FFFFFF;" d="M167.14,364.246v-11.502h9.852c1.724,0,2.585,0.744,2.585,2.23v2.696
				c0,1.486-0.862,2.23-2.585,2.23h-1.515l5.305,4.346h-3.833l-4.636-4.346h-2.541v4.346H167.14z M175.789,354.706h-6.018v3.232
				h6.018c0.416,0,0.706-0.045,0.869-0.134c0.223-0.134,0.334-0.397,0.334-0.786v-1.392c0-0.389-0.112-0.65-0.334-0.786
				C176.494,354.751,176.204,354.706,175.789,354.706z"/>
			<path id="XMLID_195_" style="fill:#FFFFFF;" d="M188.226,364.246v-5.149l-5.974-6.353h3.566l3.945,4.414l3.967-4.414h3.143
				l-5.951,6.286v5.216H188.226z"/>
		</g>
	</g>
</g>
<g id="STEMLAB">
	<g id="XMLID_23_">
		<path id="XMLID_58_" style="fill:#FFFFFF;" d="M75.298,138.139c-11.388,16.673,37.567,7.336,37.569,22.472
			c0,15.093-47.092-8.53-58.271,7.838c-5.99,8.791-2.662,2.53-12.682,17.282c0,0,11.45-15.473,51.291-6.379
			c33.847,0,36.613-13.631,30.027-23.309C109.226,135.461,74.353,150.158,75.298,138.139z"/>
		<path id="XMLID_61_" style="fill:#FFFFFF;" d="M112.298,139.978c-2.239-3.294-7.569-11.122-7.569-11.122
			s-16.452-9.781-29.431,9.283C82.31,127.813,106.43,131.353,112.298,139.978z"/>
		<polygon id="XMLID_62_" style="fill:#FFFFFF;" points="150.654,133.471 131.56,133.471 131.56,140.471 151.56,140.471 
			151.56,175.471 159.56,175.471 159.56,140.471 181.56,140.471 181.56,133.471 160.729,133.471 		"/>
		<polygon id="XMLID_63_" style="fill:#FFFFFF;" points="193.56,133.471 193.56,140.825 193.56,150.343 193.56,157.745 
			193.56,167.762 193.56,175.471 204.077,175.471 232.56,175.471 232.56,167.471 203.56,167.471 203.56,157.471 232.56,157.471 
			232.56,149.471 203.56,149.471 203.56,140.471 232.56,140.471 232.56,133.471 204.077,133.471 		"/>
		<polygon id="XMLID_64_" style="fill:#FFFFFF;" points="274.457,153.76 263.373,129.894 244.007,175.067 250.893,178.019 
			263.646,148.27 274.737,172.152 284.743,148.766 296.966,177.988 303.878,175.097 284.82,129.537 		"/>
		<path id="XMLID_67_" style="fill:#FFFFFF;" d="M440.018,135.471h-42.38l-0.556,33h-3.058l-19.833-34.468l-20.079,34.468h-30.55
			v-37h-7v45h41.856l15.733-27.008l15.54,27.008h49.57l-17.799-21.839L440.018,135.471z M423.319,168.471h-18.744l0.429-25h17.089
			l-10.727,10.722L423.319,168.471z"/>
	</g>
</g>
<g id="S">
	<g id="Layer_10">
		<polygon id="XMLID_100_" style="fill:#5C7148;" points="93.56,195.768 93.56,111.923 36.025,195.705 		"/>
		<polygon id="XMLID_96_" style="fill:#88B14B;" points="93.56,194.832 93.56,111.923 149.981,195.273 		"/>
	</g>
	<g id="Layer_11_copy_2">
		<g id="XMLID_34_">
			<path id="XMLID_37_" style="fill:#5587A2;" d="M93.56,131.882v-5.475c-6,0.392-12.032,3.103-17.907,11.731
				C79.003,133.206,85.56,131.444,93.56,131.882z"/>
			<path id="XMLID_36_" style="fill:#5587A2;" d="M93.56,164.842c-15-2.084-32.435-5.693-38.786,3.606
				c-5.99,8.791-2.573,2.53-12.594,17.282c0,0,11.38-15.473,51.38-6.379V164.842z"/>
			<path id="XMLID_35_" style="fill:#5587A2;" d="M93.56,150.463v-6.599c-10-0.365-18.372,0.195-17.907-5.726
				C69.369,147.34,81.56,148.621,93.56,150.463z"/>
		</g>
	</g>
	<g id="Layer_11_copy">
		<g id="XMLID_82_">
			<path id="XMLID_84_" style="fill:#96D6E0;" d="M93.56,131.882c8,0.479,15.851,3.591,18.916,8.096
				c-2.239-3.294-7.48-11.122-7.48-11.122s-5.436-2.922-11.436-2.449V131.882z"/>
			<path id="XMLID_83_" style="fill:#96D6E0;" d="M123.587,156.043c-7.106-10.443-20.027-11.802-30.027-12.179v6.599
				c9,1.497,19.662,3.364,19.662,10.148c0,6.518-8.662,5.815-19.662,4.231v14.51C126.56,179.352,130.173,165.721,123.587,156.043z"
				/>
		</g>
	</g>
</g>
<g id="poly">
	<polygon id="XMLID_28_" style="fill:#5C7148;" points="285.157,158.081 269.204,195.471 300.486,195.471 	"/>
	<polygon id="XMLID_16_" style="fill:#88B14B;" points="264.51,158.01 247.514,195.471 280.97,195.471 	"/>
	<polygon id="XMLID_15_" style="fill:#88B14B;" points="375.048,157.597 351.687,196.21 396.497,196.179 	"/>
	<polygon id="XMLID_14_" style="fill:#5C7148;" points="378.602,170.381 363.793,195.471 392.692,195.471 	"/>
	<polygon id="XMLID_13_" style="fill:#F6D257;" points="193.56,133.423 193.56,175.606 222.717,154.514 	"/>
</g>
<g id="Layer_9" style="display:none;">
	<polygon id="XMLID_135_" style="display:inline;fill:#D14476;" points="521.744,315.016 502.56,304.409 502.56,326.505 	"/>
	<polygon id="XMLID_134_" style="display:inline;fill:#D14476;" points="521.744,353.016 502.56,342.409 502.56,364.505 	"/>
	<g id="XMLID_127_" style="display:inline;">
		<path id="XMLID_130_" style="fill:#EFCEC5;" d="M464.171,317.709h-7.209v6.06h-1.928v-6.06h-7.178v-8.87h7.178v-3.374h1.928v3.374
			h7.209V317.709z M455.034,315.853v-5.168h-5.229v5.168H455.034z M462.232,315.853v-5.168h-5.271v5.168H462.232z"/>
		<path id="XMLID_128_" style="fill:#EFCEC5;" d="M486.257,322.282l-1.127,1.662c-3.187-1.17-5.876-2.618-8.07-4.348
			c-2.372,1.88-5.124,3.277-8.254,4.193l-1.047-1.672c3.363-1.079,5.961-2.348,7.793-3.804c-1.613-1.668-2.97-3.944-4.07-6.829
			l1.805-0.729c1.025,2.783,2.27,4.875,3.732,6.275c1.524-1.482,2.744-3.708,3.66-6.675h-12.775v-1.876h8.028
			c-0.417-0.93-0.916-1.812-1.497-2.646l1.959-0.625c0.73,1.196,1.284,2.287,1.66,3.271h8.08v1.876h-3.383
			c-1.054,3.438-2.458,6.091-4.215,7.957C480.334,319.756,482.907,321.079,486.257,322.282z"/>
	</g>
	<g id="XMLID_57_" style="display:inline;">
		<path id="XMLID_125_" style="fill:#EFCEC5;" d="M384.402,360.082v-14.448h14.784v2.464h-11.425v3.221h6.664v2.464h-6.664v3.584
			h11.564v2.716H384.402z"/>
		<path id="XMLID_123_" style="fill:#EFCEC5;" d="M404.413,360.082v-10.113h1.607l7.115,5.958c0.509,0.432,0.895,0.797,1.156,1.098
			c-0.065-0.94-0.099-1.522-0.099-1.744v-5.312h2.117v10.113h-1.607l-7.428-6.252c-0.314-0.262-0.596-0.536-0.844-0.823
			c0.065,0.653,0.099,1.188,0.099,1.606v5.469H404.413z"/>
		<path id="XMLID_121_" style="fill:#EFCEC5;" d="M430.951,351.772h-7.35v6.409h7.35v-2.254h-3.841v-1.725h6.135v3.488
			c0,0.941-0.177,1.575-0.529,1.901c-0.354,0.327-1.013,0.49-1.979,0.49h-6.978c-0.968,0-1.627-0.163-1.98-0.49
			c-0.353-0.326-0.528-0.96-0.528-1.901v-5.331c0-0.94,0.176-1.574,0.528-1.901c0.354-0.326,1.013-0.489,1.98-0.489h6.978
			c0.94,0,1.594,0.16,1.96,0.479c0.365,0.32,0.549,0.925,0.549,1.813v0.235l-2.294,0.411V351.772z"/>
		<path id="XMLID_119_" style="fill:#EFCEC5;" d="M438.222,360.082v-10.113h2.353v8.212h7.585v1.901H438.222z"/>
		<path id="XMLID_74_" style="fill:#EFCEC5;" d="M451.609,360.082v-10.113h2.353v10.113H451.609z"/>
		<path id="XMLID_70_" style="fill:#EFCEC5;" d="M467.897,351.733h-6.645v2.176h6.325c0.969,0,1.634,0.163,1.994,0.49
			c0.359,0.326,0.54,0.96,0.54,1.9v1.392c0,0.941-0.18,1.575-0.539,1.901c-0.359,0.327-1.022,0.49-1.989,0.49h-6.253
			c-0.967,0-1.63-0.163-1.989-0.49c-0.359-0.326-0.539-0.96-0.539-1.901v-0.274l2.078-0.431v1.195h7.153v-2.312h-6.311
			c-0.968,0-1.627-0.163-1.98-0.49c-0.353-0.326-0.528-0.96-0.528-1.901v-1.117c0-0.94,0.176-1.574,0.528-1.901
			c0.354-0.326,1.013-0.489,1.98-0.489h5.742c0.928,0,1.578,0.156,1.95,0.47c0.373,0.313,0.559,0.896,0.559,1.745v0.215l-2.077,0.49
			V351.733z"/>
		<path id="XMLID_59_" style="fill:#EFCEC5;" d="M474.992,360.082v-10.113h2.353v3.92h7.35v-3.92h2.372v10.113h-2.372v-4.352h-7.35
			v4.352H474.992z"/>
	</g>
</g>
</svg>
