<?xml version="1.0" encoding="iso-8859-1"?>
<!-- Generator: Adobe Illustrator 19.0.0, SVG Export Plug-In . SVG Version: 6.00 Build 0)  -->
<svg version="1.1" xmlns="http://www.w3.org/2000/svg" xmlns:xlink="http://www.w3.org/1999/xlink" x="0px" y="0px"
	 viewBox="0 0 569.195 392.943" style="enable-background:new 0 0 569.195 392.943;" xml:space="preserve">
<g id="Layer_21">
	<path id="XMLID_41_" style="fill:#96D6E0;" d="M409.834,150.755c-31.639-0.109-37.295-20.183-77.108-20.183
		s-30.897,33.861-88.158,32.375c-58.788-1.526-51.975-33.791-87.335-32.369c-37.057,1.491-35.818,20.858-83.697,20.192
		c-43.476-0.605-52.83-23.739-52.83-23.739l-0.109,132.912h529V157.951c-17-0.493-27.374-27.381-65.347-27.381
		C445.927,130.57,441.473,150.864,409.834,150.755z"/>
	<path id="XMLID_25_" style="fill:#5587A2;" d="M409.834,171.755c-31.586,1.835-45.436-29.298-77.108-20.183
		c-31.794,9.15-30.398,39.473-85.631,39.031c-54.712-0.438-57.016-39.332-87.998-42.572c-36.886-3.858-49.5,29.89-83.612,29.89
		c-43.48,0-54.779-30.073-54.779-30.073l-1.23,241.095h529l1.121-210.174c-29.817-0.166-37.696-31.136-66.584-31.136
		C463.317,147.632,454.563,169.156,409.834,171.755z"/>
	<path id="XMLID_24_" style="fill:#FFFFFF;fill-opacity:0.75;" d="M19.709,79.028c0,0,9.356,23.136,52.832,23.741
		c47.879,0.666,46.614-20.192,83.701-20.192s30.066,32.086,87.345,32.369c57.279,0.283,48.364-32.375,88.177-32.375
		s45.508,20.074,77.146,20.183c31.639,0.109,36.17-20.185,74.493-20.185s47.915,27.404,65.989,27.404
		C549.335,48.912,549.334,0,549.334,0H19.709V79.028z"/>
	<path id="XMLID_108_" style="fill:#FFFFFF;fill-opacity:0.75;" d="M19.709,47.028c0,0,9.356,23.136,52.832,23.741
		c47.879,0.666,46.614-20.192,83.701-20.192s30.066,32.086,87.345,32.369c57.279,0.283,48.364-32.375,88.177-32.375
		s45.508,20.074,77.146,20.183c31.639,0.109,36.17-20.185,74.493-20.185s47.915,27.404,65.989,27.404
		C549.335,16.912,549.334,0,549.334,0H19.709V47.028z"/>
	<path id="XMLID_109_" style="fill:#FFFFFF;" d="M19.597,14.028c0,0,9.412,23.136,52.888,23.741
		c47.879,0.666,46.642-20.192,83.729-20.192c37.087,0,30.08,32.086,87.359,32.369s48.371-32.375,88.184-32.375
		s45.511,20.074,77.15,20.183s36.171-20.185,74.495-20.185c38.323,0,47.916,27.375,65.99,27.375
		c-0.058-61.062-0.058-45.003-0.058-45.003H19.597V14.028z"/>
	<rect id="XMLID_26_" x="20.597" y="196.471" style="fill:#88B14B;" width="529" height="196.471"/>
	<polygon id="XMLID_80_" style="display:none;fill:#5C7148;" points="549.597,236.524 328.454,392.943 549.597,392.943 	"/>
</g>
<g id="Layer_6">
	<g id="XMLID_167_">
		<path id="XMLID_168_" style="fill:#F6D257;" d="M57.516,229.806H45.99v3.774h10.972c1.681,0,2.834,0.283,3.458,0.85
			c0.625,0.567,0.937,1.666,0.937,3.299v2.413c0,1.633-0.312,2.732-0.935,3.299s-1.773,0.85-3.451,0.85H46.126
			c-1.678,0-2.828-0.283-3.451-0.85c-0.624-0.566-0.935-1.666-0.935-3.299v-0.476l3.604-0.748v2.074h12.41v-4.012H46.806
			c-1.678,0-2.822-0.283-3.434-0.851c-0.612-0.566-0.918-1.666-0.918-3.298v-1.938c0-1.632,0.306-2.73,0.918-3.298
			c0.612-0.566,1.756-0.85,3.434-0.85h9.962c1.609,0,2.737,0.271,3.383,0.816c0.646,0.544,0.969,1.553,0.969,3.025v0.374
			l-3.604,0.851V229.806z"/>
		<path id="XMLID_170_" style="fill:#FFFFFF;" d="M68.477,244.29v-12.281h10.52c1.84,0,2.761,0.794,2.761,2.381v2.736
			c0,1.587-0.92,2.38-2.761,2.38h-7.711v4.784H68.477z M77.712,234.104h-6.426v3.309h6.426c0.444,0,0.753-0.049,0.928-0.146
			c0.238-0.145,0.357-0.426,0.357-0.845v-1.328c0-0.419-0.119-0.7-0.357-0.845C78.465,234.153,78.155,234.104,77.712,234.104z"/>
		<path id="XMLID_173_" style="fill:#FFFFFF;" d="M83.804,244.29l6.95-12.281h2.761l7.045,12.281h-3.213l-1.476-2.689h-7.783
			l-1.428,2.689H83.804z M89.302,239.388h5.379l-2.642-4.998L89.302,239.388z"/>
		<path id="XMLID_176_" style="fill:#FFFFFF;" d="M110.222,234.2v10.091h-2.856V234.2h-5.641v-2.19h14.161v2.19H110.222z"/>
		<path id="XMLID_178_" style="fill:#FFFFFF;" d="M119.385,244.29v-12.281h2.856v12.281H119.385z"/>
		<path id="XMLID_180_" style="fill:#FFFFFF;" d="M128.262,234.913c0-1.143,0.214-1.912,0.643-2.309s1.229-0.596,2.404-0.596h9.044
			c1.174,0,1.976,0.199,2.404,0.596s0.643,1.166,0.643,2.309v6.474c0,1.143-0.214,1.912-0.643,2.309s-1.23,0.595-2.404,0.595h-9.044
			c-1.174,0-1.976-0.198-2.404-0.595s-0.643-1.166-0.643-2.309V234.913z M131.118,241.982h9.425V234.2h-9.425V241.982z"/>
		<path id="XMLID_183_" style="fill:#F6D257;" d="M158.926,229.874v14.416h-4.08v-14.416h-8.058v-3.128h20.23v3.128H158.926z"/>
		<path id="XMLID_185_" style="fill:#FFFFFF;" d="M170.67,244.29v-12.281h12.566v2.095h-9.71v2.737h5.665v2.094h-5.665v3.047h9.83
			v2.309H170.67z"/>
		<path id="XMLID_187_" style="fill:#FFFFFF;" d="M188.615,244.29v-12.281h2.309l5.784,7.426l5.664-7.426h2.285v12.281h-2.642
			v-7.592c0-0.302,0.032-0.738,0.095-1.31c-0.301,0.619-0.54,1.048-0.714,1.285l-4.617,6.141h-0.571l-4.617-6.164
			c-0.333-0.444-0.58-0.865-0.738-1.262c0.048,0.492,0.071,0.929,0.071,1.31v7.592H188.615z"/>
		<path id="XMLID_189_" style="fill:#FFFFFF;" d="M210.677,244.29v-12.281h10.52c1.84,0,2.761,0.794,2.761,2.381v2.736
			c0,1.587-0.92,2.38-2.761,2.38h-7.711v4.784H210.677z M219.912,234.104h-6.426v3.309h6.426c0.444,0,0.753-0.049,0.928-0.146
			c0.238-0.145,0.357-0.426,0.357-0.845v-1.328c0-0.419-0.119-0.7-0.357-0.845C220.665,234.153,220.356,234.104,219.912,234.104z"/>
		<path id="XMLID_192_" style="fill:#FFFFFF;" d="M228.099,234.913c0-1.143,0.214-1.912,0.643-2.309s1.229-0.596,2.404-0.596h9.044
			c1.174,0,1.976,0.199,2.404,0.596s0.643,1.166,0.643,2.309v6.474c0,1.143-0.214,1.912-0.643,2.309s-1.23,0.595-2.404,0.595h-9.044
			c-1.174,0-1.976-0.198-2.404-0.595s-0.643-1.166-0.643-2.309V234.913z M230.955,241.982h9.425V234.2h-9.425V241.982z"/>
		<path id="XMLID_195_" style="fill:#FFFFFF;" d="M249.257,244.29v-12.281h10.52c1.84,0,2.761,0.794,2.761,2.381v2.879
			c0,1.587-0.92,2.381-2.761,2.381h-1.618l5.664,4.641h-4.093l-4.951-4.641h-2.713v4.641H249.257z M258.491,234.104h-6.426v3.451
			h6.426c0.444,0,0.753-0.048,0.928-0.144c0.238-0.144,0.357-0.424,0.357-0.839v-1.486c0-0.415-0.119-0.694-0.357-0.839
			C259.245,234.152,258.935,234.104,258.491,234.104z"/>
		<path id="XMLID_198_" style="fill:#FFFFFF;" d="M265.988,244.29l6.95-12.281h2.761l7.045,12.281h-3.213l-1.476-2.689h-7.783
			l-1.428,2.689H265.988z M271.486,239.388h5.379l-2.642-4.998L271.486,239.388z"/>
		<path id="XMLID_201_" style="fill:#FFFFFF;" d="M286.694,244.29v-12.281h2.855v9.973h9.211v2.309H286.694z"/>
		<path id="XMLID_203_" style="fill:#F6D257;" d="M42.318,285.09v-17.544H60.27v2.992H46.398v3.91h8.092v2.991h-8.092v4.353H60.44
			v3.298H42.318z"/>
		<path id="XMLID_205_" style="fill:#FFFFFF;" d="M66.617,285.09v-12.281h1.952l8.64,7.235c0.619,0.523,1.086,0.969,1.404,1.333
			c-0.08-1.143-0.119-1.848-0.119-2.118v-6.45h2.57v12.281h-1.952l-9.02-7.592c-0.381-0.317-0.722-0.65-1.023-1
			c0.079,0.794,0.119,1.444,0.119,1.951v6.641H66.617z"/>
		<path id="XMLID_207_" style="fill:#FFFFFF;" d="M91.464,285.09l-7.092-12.281h3.261l4.974,8.878l4.736-8.878h2.856L93.44,285.09
			H91.464z"/>
		<path id="XMLID_209_" style="fill:#FFFFFF;" d="M103.531,285.09v-12.281h2.856v12.281H103.531z"/>
		<path id="XMLID_211_" style="fill:#FFFFFF;" d="M112.67,285.09v-12.281h10.52c1.84,0,2.761,0.794,2.761,2.381v2.879
			c0,1.587-0.92,2.381-2.761,2.381h-1.618l5.664,4.641h-4.093l-4.951-4.641h-2.713v4.641H112.67z M121.904,274.904h-6.426v3.451
			h6.426c0.444,0,0.753-0.048,0.928-0.144c0.238-0.144,0.357-0.424,0.357-0.839v-1.486c0-0.415-0.119-0.694-0.357-0.839
			C122.657,274.952,122.348,274.904,121.904,274.904z"/>
		<path id="XMLID_214_" style="fill:#FFFFFF;" d="M131.495,275.713c0-1.143,0.214-1.912,0.643-2.309s1.229-0.596,2.404-0.596h9.044
			c1.174,0,1.976,0.199,2.404,0.596s0.643,1.166,0.643,2.309v6.474c0,1.143-0.214,1.912-0.643,2.309s-1.23,0.595-2.404,0.595h-9.044
			c-1.174,0-1.976-0.198-2.404-0.595s-0.643-1.166-0.643-2.309V275.713z M134.351,282.782h9.425v-7.782h-9.425V282.782z"/>
		<path id="XMLID_217_" style="fill:#FFFFFF;" d="M152.629,285.09v-12.281h1.952l8.64,7.235c0.619,0.523,1.086,0.969,1.404,1.333
			c-0.08-1.143-0.119-1.848-0.119-2.118v-6.45h2.57v12.281h-1.952l-9.02-7.592c-0.381-0.317-0.722-0.65-1.023-1
			c0.079,0.794,0.119,1.444,0.119,1.951v6.641H152.629z"/>
		<path id="XMLID_219_" style="fill:#FFFFFF;" d="M173.311,285.09v-12.281h2.309l5.784,7.426l5.664-7.426h2.285v12.281h-2.642
			v-7.592c0-0.302,0.032-0.738,0.095-1.31c-0.301,0.619-0.54,1.048-0.714,1.285l-4.617,6.141h-0.571l-4.617-6.164
			c-0.333-0.444-0.58-0.865-0.738-1.262c0.048,0.492,0.071,0.929,0.071,1.31v7.592H173.311z"/>
		<path id="XMLID_221_" style="fill:#FFFFFF;" d="M195.374,285.09v-12.281h12.566v2.095h-9.71v2.737h5.665v2.094h-5.665v3.047h9.83
			v2.309H195.374z"/>
		<path id="XMLID_223_" style="fill:#FFFFFF;" d="M213.319,285.09v-12.281h1.952l8.64,7.235c0.619,0.523,1.086,0.969,1.404,1.333
			c-0.08-1.143-0.119-1.848-0.119-2.118v-6.45h2.57v12.281h-1.952l-9.02-7.592c-0.381-0.317-0.722-0.65-1.023-1
			c0.079,0.794,0.119,1.444,0.119,1.951v6.641H213.319z"/>
		<path id="XMLID_225_" style="fill:#FFFFFF;" d="M239.736,274.999v10.091h-2.856v-10.091h-5.641v-2.19h14.161v2.19H239.736z"/>
		<path id="XMLID_227_" style="fill:#FFFFFF;" d="M246.543,285.09l6.95-12.281h2.761l7.045,12.281h-3.213l-1.476-2.689h-7.783
			l-1.428,2.689H246.543z M252.041,280.188h5.379l-2.642-4.998L252.041,280.188z"/>
		<path id="XMLID_230_" style="fill:#FFFFFF;" d="M267.249,285.09v-12.281h2.856v9.973h9.21v2.309H267.249z"/>
		<path id="XMLID_232_" style="fill:#FFFFFF;" d="M40.971,325.89v-12.281h2.856v12.281H40.971z"/>
		<path id="XMLID_234_" style="fill:#FFFFFF;" d="M50.086,325.89v-12.281h1.952l8.64,7.235c0.619,0.523,1.086,0.969,1.404,1.333
			c-0.08-1.143-0.119-1.848-0.119-2.118v-6.45h2.57v12.281h-1.952l-9.02-7.592c-0.381-0.317-0.722-0.65-1.023-1
			c0.079,0.794,0.119,1.444,0.119,1.951v6.641H50.086z"/>
		<path id="XMLID_236_" style="fill:#FFFFFF;" d="M70.792,325.89v-12.281h12.424v2.143h-9.568v3.236h5.165v2.237h-5.165v4.665
			H70.792z"/>
		<path id="XMLID_238_" style="fill:#FFFFFF;" d="M86.5,316.513c0-1.143,0.214-1.912,0.643-2.309s1.229-0.596,2.404-0.596h9.044
			c1.174,0,1.976,0.199,2.404,0.596s0.643,1.166,0.643,2.309v6.474c0,1.143-0.214,1.912-0.643,2.309s-1.23,0.595-2.404,0.595h-9.044
			c-1.174,0-1.976-0.198-2.404-0.595s-0.643-1.166-0.643-2.309V316.513z M89.356,323.581h9.425v-7.782h-9.425V323.581z"/>
		<path id="XMLID_241_" style="fill:#FFFFFF;" d="M107.658,325.89v-12.281h10.52c1.84,0,2.761,0.794,2.761,2.381v2.879
			c0,1.587-0.92,2.381-2.761,2.381h-1.618l5.664,4.641h-4.093l-4.951-4.641h-2.713v4.641H107.658z M116.892,315.703h-6.426v3.451
			h6.426c0.444,0,0.753-0.048,0.928-0.144c0.238-0.144,0.357-0.424,0.357-0.839v-1.486c0-0.415-0.119-0.694-0.357-0.839
			C117.646,315.751,117.336,315.703,116.892,315.703z"/>
		<path id="XMLID_244_" style="fill:#F6D257;" d="M128.058,325.89v-17.544h3.298l8.262,10.608l8.092-10.608h3.264v17.544H147.2
			v-10.846c0-0.431,0.045-1.055,0.136-1.87c-0.431,0.884-0.771,1.496-1.02,1.836l-6.596,8.771h-0.816l-6.596-8.806
			c-0.476-0.634-0.828-1.235-1.054-1.802c0.068,0.703,0.102,1.326,0.102,1.87v10.846H128.058z"/>
		<path id="XMLID_246_" style="fill:#FFFFFF;" d="M155.873,325.89l6.95-12.281h2.761l7.045,12.281h-3.213l-1.476-2.689h-7.783
			l-1.428,2.689H155.873z M161.371,320.988h5.379l-2.642-4.998L161.371,320.988z"/>
		<path id="XMLID_249_" style="fill:#FFFFFF;" d="M182.291,315.799v10.091h-2.856v-10.091h-5.641v-2.19h14.161v2.19H182.291z"/>
		<path id="XMLID_251_" style="fill:#FFFFFF;" d="M191.454,325.89v-12.281h2.856v12.281H191.454z"/>
		<path id="XMLID_253_" style="fill:#FFFFFF;" d="M210.898,315.799h-7.711v7.782h7.711v-2.642l2.856,0.595v1.452
			c0,1.143-0.214,1.912-0.643,2.309c-0.428,0.396-1.229,0.595-2.403,0.595h-7.331c-1.174,0-1.976-0.198-2.404-0.595
			s-0.643-1.166-0.643-2.309v-6.474c0-1.143,0.214-1.912,0.643-2.309s1.229-0.596,2.404-0.596h7.331
			c1.174,0,1.975,0.199,2.403,0.596c0.429,0.396,0.643,1.166,0.643,2.309v1.166l-2.856,0.452V315.799z"/>
		<path id="XMLID_255_" style="fill:#FFFFFF;" d="M230.295,315.751h-8.068v2.642h7.681c1.177,0,1.984,0.198,2.421,0.595
			c0.438,0.397,0.656,1.167,0.656,2.309v1.69c0,1.143-0.218,1.912-0.655,2.309s-1.242,0.595-2.416,0.595h-7.592
			c-1.174,0-1.979-0.198-2.416-0.595c-0.437-0.396-0.655-1.166-0.655-2.309v-0.333l2.523-0.524v1.452h8.687v-2.809h-7.664
			c-1.174,0-1.976-0.198-2.404-0.595s-0.643-1.166-0.643-2.309v-1.356c0-1.143,0.214-1.912,0.643-2.309s1.229-0.596,2.404-0.596
			h6.974c1.126,0,1.916,0.19,2.368,0.571s0.679,1.087,0.679,2.118v0.262l-2.523,0.596V315.751z"/>
		<path id="XMLID_257_" style="fill:#F6D257;" d="M42.318,366.691v-17.544h4.08v14.246h13.158v3.298H42.318z"/>
		<path id="XMLID_259_" style="fill:#F6D257;" d="M61.837,366.691l6.95-12.281h2.761l7.045,12.281H75.38l-1.476-2.689h-7.783
			l-1.428,2.689H61.837z M67.335,361.788h5.379l-2.642-4.998L67.335,361.788z"/>
		<path id="XMLID_262_" style="fill:#F6D257;" d="M82.543,366.691V354.41h10.52c1.84,0,2.761,0.794,2.761,2.381v1.499
			c0,1.206-0.706,1.896-2.118,2.07c1.476,0.19,2.213,0.976,2.213,2.356v1.571c0,1.603-1.206,2.403-3.618,2.403H82.543z
			 M91.873,356.41h-6.521v2.927h6.521c0.873,0,1.309-0.293,1.309-0.88v-1.167C93.182,356.702,92.745,356.41,91.873,356.41z
			 M91.873,361.36h-6.521v3.117h6.521c0.476,0,0.809-0.055,1-0.166c0.254-0.158,0.381-0.468,0.381-0.929v-0.928
			c0-0.46-0.127-0.77-0.381-0.929C92.682,361.415,92.349,361.36,91.873,361.36z"/>
		<path id="XMLID_266_" style="fill:#FFFFFF;" d="M101.178,357.314c0-1.143,0.214-1.912,0.643-2.309s1.229-0.596,2.404-0.596h9.044
			c1.174,0,1.976,0.199,2.404,0.596s0.643,1.166,0.643,2.309v6.474c0,1.143-0.214,1.912-0.643,2.309s-1.23,0.595-2.404,0.595h-9.044
			c-1.174,0-1.976-0.198-2.404-0.595s-0.643-1.166-0.643-2.309V357.314z M104.034,364.382h9.425V356.6h-9.425V364.382z"/>
		<path id="XMLID_269_" style="fill:#FFFFFF;" d="M122.336,366.691V354.41h10.52c1.84,0,2.761,0.794,2.761,2.381v2.879
			c0,1.587-0.92,2.381-2.761,2.381h-1.618l5.664,4.641h-4.093l-4.951-4.641h-2.713v4.641H122.336z M131.57,356.504h-6.426v3.451
			h6.426c0.444,0,0.753-0.048,0.928-0.144c0.238-0.144,0.357-0.424,0.357-0.839v-1.486c0-0.415-0.119-0.694-0.357-0.839
			C132.324,356.552,132.014,356.504,131.57,356.504z"/>
		<path id="XMLID_272_" style="fill:#FFFFFF;" d="M139.067,366.691l6.95-12.281h2.761l7.045,12.281h-3.213l-1.476-2.689h-7.783
			l-1.428,2.689H139.067z M144.565,361.788h5.379l-2.642-4.998L144.565,361.788z"/>
		<path id="XMLID_275_" style="fill:#FFFFFF;" d="M165.485,356.6v10.091h-2.856V356.6h-5.641v-2.19h14.161v2.19H165.485z"/>
		<path id="XMLID_277_" style="fill:#FFFFFF;" d="M174.386,357.314c0-1.143,0.214-1.912,0.643-2.309s1.229-0.596,2.404-0.596h9.044
			c1.174,0,1.976,0.199,2.404,0.596s0.643,1.166,0.643,2.309v6.474c0,1.143-0.214,1.912-0.643,2.309s-1.23,0.595-2.404,0.595h-9.044
			c-1.174,0-1.976-0.198-2.404-0.595s-0.643-1.166-0.643-2.309V357.314z M177.242,364.382h9.425V356.6h-9.425V364.382z"/>
		<path id="XMLID_280_" style="fill:#FFFFFF;" d="M195.544,366.691V354.41h10.52c1.84,0,2.761,0.794,2.761,2.381v2.879
			c0,1.587-0.92,2.381-2.761,2.381h-1.618l5.664,4.641h-4.093l-4.951-4.641h-2.713v4.641H195.544z M204.778,356.504h-6.426v3.451
			h6.426c0.444,0,0.753-0.048,0.928-0.144c0.238-0.144,0.357-0.424,0.357-0.839v-1.486c0-0.415-0.119-0.694-0.357-0.839
			C205.532,356.552,205.222,356.504,204.778,356.504z"/>
		<path id="XMLID_283_" style="fill:#FFFFFF;" d="M218.059,366.691v-5.498l-6.378-6.783h3.808l4.212,4.713l4.236-4.713h3.356
			l-6.354,6.712v5.569H218.059z"/>
	</g>
</g>
<g id="STEMLAB">
	<g id="XMLID_23_">
		<path id="XMLID_58_" style="fill:#FFFFFF;" d="M97.477,135.936c-12.16,17.803,40.114,7.833,40.115,23.995
			c0,16.116-50.284-9.108-62.221,8.369c-6.396,9.387-2.842,2.701-13.542,18.454c0,0,12.226-16.522,54.768-6.811
			c36.142,0,39.094-14.555,32.062-24.889C133.704,133.077,96.467,148.769,97.477,135.936z"/>
		<path id="XMLID_61_" style="fill:#FFFFFF;" d="M136.985,137.9c-2.39-3.518-8.082-11.876-8.082-11.876s-17.567-10.444-31.426,9.912
			C104.964,124.91,130.718,128.69,136.985,137.9z"/>
		<polygon id="XMLID_62_" style="fill:#FFFFFF;" points="177.94,130.943 157.597,130.943 157.597,138.943 178.597,138.943 
			178.597,175.943 187.597,175.943 187.597,138.943 210.597,138.943 210.597,130.943 188.698,130.943 		"/>
		<polygon id="XMLID_63_" style="fill:#FFFFFF;" points="223.597,130.943 223.597,138.804 223.597,148.967 223.597,156.871 
			223.597,167.566 223.597,175.943 234.985,175.943 265.597,175.943 265.597,167.943 234.597,167.943 234.597,156.943 
			265.597,156.943 265.597,148.943 234.597,148.943 234.597,138.943 265.597,138.943 265.597,130.943 234.985,130.943 		"/>
		<polygon id="XMLID_64_" style="fill:#FFFFFF;" points="310.134,152.616 298.299,127.132 277.621,175.367 284.974,178.519 
			298.591,146.754 310.434,172.255 321.118,147.284 334.17,178.486 341.55,175.399 321.2,126.751 		"/>
		<path id="XMLID_67_" style="fill:#FFFFFF;" d="M486.918,133.943h-45.253l-0.594,35h-3.266l-21.178-36.804l-21.44,36.804h-32.59
			v-40h-8v48h45.188l16.8-28.838l16.594,28.838h52.93l-19.006-22.93L486.918,133.943z M469.087,168.943h-20.015l0.458-27h18.247
			l-11.454,11.602L469.087,168.943z"/>
	</g>
</g>
<g id="S">
	<g id="Layer_10">
		<polygon id="XMLID_287_" style="fill:#5C7148;" points="116.597,197.471 116.597,107.943 55.163,197.404 		"/>
		<polygon id="XMLID_79_" style="fill:#88B14B;" points="116.597,196.471 116.597,107.943 176.843,196.943 		"/>
	</g>
	<g id="Layer_11_copy_2">
		<g id="XMLID_34_">
			<path id="XMLID_37_" style="fill:#5587A2;" d="M116.597,129.255v-5.846c-5.819,0.418-12.847,3.313-19.12,12.527
				C101.053,130.669,108.799,128.787,116.597,129.255z"/>
			<path id="XMLID_36_" style="fill:#5587A2;" d="M116.597,164.449c-15.284-2.225-34.443-6.079-41.226,3.851
				c-6.396,9.387-2.842,2.701-13.542,18.454c0,0,12.226-16.522,54.768-6.811V164.449z"/>
			<path id="XMLID_35_" style="fill:#5587A2;" d="M116.597,149.096v-7.046c-10.829-0.39-19.618,0.208-19.12-6.114
				C90.767,145.761,103.677,147.128,116.597,149.096z"/>
		</g>
	</g>
	<g id="Layer_11_copy">
		<g id="XMLID_45_">
			<path id="XMLID_49_" style="fill:#96D6E0;" d="M116.597,129.255c8.526,0.512,17.115,3.835,20.387,8.645
				c-2.39-3.518-8.082-11.876-8.082-11.876s-5.268-3.12-12.306-2.615V129.255z"/>
			<path id="XMLID_48_" style="fill:#96D6E0;" d="M148.659,155.054c-7.588-11.151-20.908-12.602-32.062-13.004v7.046
				c10.494,1.598,20.994,3.592,20.995,10.836c0,6.959-9.379,6.209-20.995,4.518v15.493
				C152.739,179.943,155.692,165.388,148.659,155.054z"/>
		</g>
	</g>
</g>
<g id="poly">
	<polygon id="XMLID_28_" style="fill:#5C7148;" points="320.492,158.018 303.458,197.943 336.86,197.943 	"/>
	<polygon id="XMLID_16_" style="fill:#88B14B;" points="298.445,157.943 280.297,197.943 316.021,197.943 	"/>
	<polygon id="XMLID_15_" style="fill:#88B14B;" points="416.476,156.713 391.531,197.943 439.38,197.91 	"/>
	<polygon id="XMLID_14_" style="fill:#5C7148;" points="420.271,169.152 404.458,195.943 435.316,195.943 	"/>
	<polygon id="XMLID_13_" style="fill:#F6D257;" points="223.597,130.9 223.597,175.943 254.73,153.421 	"/>
</g>
<g id="Layer_9">
	<polygon id="XMLID_74_" style="fill:#D14476;" points="555.781,326.487 536.597,315.88 536.597,337.976 	"/>
	<polygon id="XMLID_76_" style="fill:#D14476;" points="555.781,364.487 536.597,353.88 536.597,375.976 	"/>
	<g id="XMLID_43_">
		<path id="XMLID_44_" style="fill:#EFCEC5;" d="M498.208,328.709h-7.209v6.06h-1.928v-6.06h-7.178v-8.87h7.178v-3.374h1.928v3.374
			h7.209V328.709z M489.071,326.853v-5.168h-5.229v5.168H489.071z M496.269,326.853v-5.168h-5.271v5.168H496.269z"/>
		<path id="XMLID_51_" style="fill:#EFCEC5;" d="M520.294,333.282l-1.127,1.662c-3.187-1.17-5.876-2.618-8.07-4.348
			c-2.372,1.88-5.124,3.277-8.254,4.193l-1.047-1.672c3.363-1.079,5.961-2.348,7.793-3.804c-1.613-1.668-2.97-3.944-4.07-6.829
			l1.805-0.729c1.025,2.783,2.27,4.875,3.732,6.275c1.524-1.482,2.744-3.708,3.66-6.675H501.94v-1.876h8.028
			c-0.417-0.93-0.916-1.812-1.497-2.646l1.959-0.625c0.73,1.196,1.284,2.287,1.66,3.271h8.08v1.876h-3.383
			c-1.054,3.438-2.458,6.091-4.215,7.957C514.371,330.756,516.944,332.079,520.294,333.282z"/>
	</g>
	<g id="XMLID_4_">
		<path id="XMLID_5_" style="fill:#EFCEC5;" d="M418.439,371.082v-14.448h14.784v2.464h-11.425v3.221h6.664v2.464h-6.664v3.584
			h11.564v2.716H418.439z"/>
		<path id="XMLID_7_" style="fill:#EFCEC5;" d="M438.45,371.082v-10.113h1.607l7.115,5.958c0.509,0.432,0.895,0.797,1.156,1.098
			c-0.065-0.94-0.099-1.522-0.099-1.744v-5.312h2.117v10.113h-1.607l-7.428-6.252c-0.314-0.262-0.596-0.536-0.844-0.823
			c0.065,0.653,0.099,1.188,0.099,1.606v5.469H438.45z"/>
		<path id="XMLID_12_" style="fill:#EFCEC5;" d="M464.988,362.772h-7.35v6.409h7.35v-2.254h-3.841v-1.725h6.135v3.488
			c0,0.941-0.177,1.575-0.529,1.901c-0.354,0.327-1.013,0.49-1.979,0.49h-6.978c-0.968,0-1.627-0.163-1.98-0.49
			c-0.353-0.326-0.528-0.96-0.528-1.901v-5.331c0-0.94,0.176-1.574,0.528-1.901c0.354-0.326,1.013-0.489,1.98-0.489h6.978
			c0.94,0,1.594,0.16,1.96,0.479c0.365,0.32,0.549,0.925,0.549,1.813v0.235l-2.294,0.411V362.772z"/>
		<path id="XMLID_30_" style="fill:#EFCEC5;" d="M472.259,371.082v-10.113h2.353v8.212h7.585v1.901H472.259z"/>
		<path id="XMLID_32_" style="fill:#EFCEC5;" d="M485.646,371.082v-10.113h2.353v10.113H485.646z"/>
		<path id="XMLID_38_" style="fill:#EFCEC5;" d="M501.934,362.733h-6.645v2.176h6.325c0.969,0,1.634,0.163,1.994,0.49
			c0.359,0.326,0.54,0.96,0.54,1.9v1.392c0,0.941-0.18,1.575-0.539,1.901c-0.359,0.327-1.022,0.49-1.989,0.49h-6.253
			c-0.967,0-1.63-0.163-1.989-0.49c-0.359-0.326-0.539-0.96-0.539-1.901v-0.274l2.078-0.431v1.195h7.153v-2.312h-6.311
			c-0.968,0-1.627-0.163-1.98-0.49c-0.353-0.326-0.528-0.96-0.528-1.901v-1.117c0-0.94,0.176-1.574,0.528-1.901
			c0.354-0.326,1.013-0.489,1.98-0.489h5.742c0.928,0,1.578,0.156,1.95,0.47c0.373,0.313,0.559,0.896,0.559,1.745v0.215l-2.077,0.49
			V362.733z"/>
		<path id="XMLID_40_" style="fill:#EFCEC5;" d="M509.029,371.082v-10.113h2.353v3.92h7.35v-3.92h2.372v10.113h-2.372v-4.352h-7.35
			v4.352H509.029z"/>
	</g>
</g>
</svg>
