<?xml version="1.0" encoding="iso-8859-1"?>
<!-- Generator: Adobe Illustrator 19.0.0, SVG Export Plug-In . SVG Version: 6.00 Build 0)  -->
<svg version="1.1" id="Layer_1" xmlns="http://www.w3.org/2000/svg" xmlns:xlink="http://www.w3.org/1999/xlink" x="0px" y="0px"
	 viewBox="-403 353.506 471.476 94.494" style="enable-background:new -403 353.506 471.476 94.494;" xml:space="preserve">
<g id="STEMLAB">
	<g id="XMLID_23_">
		<path id="XMLID_58_" style="fill:#FFFFFF;" d="M-344.158,381.639c-12.16,17.803,40.114,7.833,40.115,23.995
			c0,16.116-50.284-9.108-62.221,8.369c-6.396,9.387-2.842,2.701-13.542,18.454c0,0,12.226-16.522,54.768-6.811
			c36.142,0,39.094-14.555,32.062-24.889C-307.931,378.78-345.168,394.472-344.158,381.639z"/>
		<path id="XMLID_61_" style="fill:#FFFFFF;" d="M-304.65,383.603c-2.39-3.518-8.082-11.876-8.082-11.876
			s-17.567-10.444-31.426,9.912C-336.672,370.613-310.917,374.393-304.65,383.603z"/>
		<polygon id="XMLID_62_" style="fill:#FFFFFF;" points="-263.695,376.646 -284.038,376.646 -284.038,384.646 -263.038,384.646 
			-263.038,421.646 -254.038,421.646 -254.038,384.646 -231.038,384.646 -231.038,376.646 -252.937,376.646 		"/>
		<polygon id="XMLID_63_" style="fill:#FFFFFF;" points="-218.038,376.646 -218.038,384.507 -218.038,394.669 -218.038,402.574 
			-218.038,413.269 -218.038,421.646 -206.651,421.646 -176.038,421.646 -176.038,413.646 -207.038,413.646 -207.038,402.646 
			-176.038,402.646 -176.038,394.646 -207.038,394.646 -207.038,384.646 -176.038,384.646 -176.038,376.646 -206.651,376.646 		"/>
		<polygon id="XMLID_64_" style="fill:#FFFFFF;" points="-131.501,398.319 -143.336,372.834 -164.014,421.069 -156.661,424.222 
			-143.044,392.457 -131.201,417.958 -120.517,392.986 -107.466,424.189 -100.085,421.102 -120.435,372.454 		"/>
		<path id="XMLID_67_" style="fill:#FFFFFF;" d="M45.282,379.646H0.029l-0.594,35h-3.266l-21.178-36.804l-21.44,36.804h-32.59v-40
			h-8v48h45.188l16.8-28.838l16.594,28.838h52.93l-19.006-22.93L45.282,379.646z M27.451,414.646H7.436l0.458-27h18.247
			l-11.453,11.601L27.451,414.646z"/>
	</g>
</g>
</svg>
