<?xml version="1.0" encoding="iso-8859-1"?>
<!-- Generator: Adobe Illustrator 19.0.0, SVG Export Plug-In . SVG Version: 6.00 Build 0)  -->
<svg version="1.1" id="Layer_1" xmlns="http://www.w3.org/2000/svg" xmlns:xlink="http://www.w3.org/1999/xlink" x="0px" y="0px"
	 viewBox="-403 353.506 471.476 94.494" style="enable-background:new -403 353.506 471.476 94.494;" xml:space="preserve">
<g id="STEMLAB">
	<g id="XMLID_23_">
		<path id="XMLID_58_" style="fill:#0C4C8A;" d="M-346.681,382.938c-12.16,17.803,40.114,7.833,40.115,23.995
			c0,16.116-50.284-9.108-62.221,8.369c-6.396,9.387-2.842,2.701-13.542,18.454c0,0,12.226-16.522,54.768-6.811
			c36.142,0,39.094-14.555,32.062-24.889C-310.454,380.079-347.691,395.771-346.681,382.938z"/>
		<path id="XMLID_61_" style="fill:#0C4C8A;" d="M-307.173,384.902c-2.39-3.518-8.082-11.876-8.082-11.876
			s-17.567-10.444-31.426,9.912C-339.195,371.912-313.44,375.692-307.173,384.902z"/>
		<polygon id="XMLID_62_" style="fill:#0C4C8A;" points="-266.218,377.945 -286.561,377.945 -286.561,385.945 -265.561,385.945 
			-265.561,422.945 -256.561,422.945 -256.561,385.945 -233.561,385.945 -233.561,377.945 -255.46,377.945 		"/>
		<polygon id="XMLID_63_" style="fill:#0C4C8A;" points="-220.561,377.945 -220.561,385.806 -220.561,395.968 -220.561,403.873 
			-220.561,414.568 -220.561,422.945 -209.174,422.945 -178.561,422.945 -178.561,414.945 -209.561,414.945 -209.561,403.945 
			-178.561,403.945 -178.561,395.945 -209.561,395.945 -209.561,385.945 -178.561,385.945 -178.561,377.945 -209.174,377.945 		"/>
		<polygon id="XMLID_64_" style="fill:#0C4C8A;" points="-134.024,399.618 -145.859,374.133 -166.537,422.368 -159.184,425.521 
			-145.567,393.756 -133.724,419.257 -123.04,394.285 -109.989,425.488 -102.608,422.401 -122.958,373.753 		"/>
		<path id="XMLID_67_" style="fill:#0C4C8A;" d="M42.759,380.945H-2.494l-0.594,35h-3.266l-21.178-36.804l-21.44,36.804h-32.59v-40
			h-8v48h45.188l16.8-28.838l16.594,28.838h52.93l-19.006-22.93L42.759,380.945z M24.928,415.945H4.913l0.458-27h18.247
			l-11.453,11.601L24.928,415.945z"/>
	</g>
</g>
</svg>
