<?xml version="1.0" encoding="utf-8"?>
<!-- Generator: Adobe Illustrator 19.0.0, SVG Export Plug-In . SVG Version: 6.00 Build 0)  -->
<svg version="1.1" id="Layer_1" xmlns="http://www.w3.org/2000/svg" xmlns:xlink="http://www.w3.org/1999/xlink" x="0px" y="0px"
	 viewBox="-354 204.1 569.2 392.9" style="enable-background:new -354 204.1 569.2 392.9;" xml:space="preserve" >
<style type="text/css">
	.st0{fill:#F6D257;}
	.st1{fill:#FFFFFF;}
</style>
<g id="Layer_6">
	<g id="XMLID_167_">
		<path id="XMLID_168_" class="st0" d="M-296.5,433.9H-308v3.8h11c1.7,0,2.8,0.3,3.5,0.8c0.6,0.6,0.9,1.7,0.9,3.3v2.4
			c0,1.6-0.3,2.7-0.9,3.3c-0.6,0.6-1.8,0.8-3.5,0.8h-10.9c-1.7,0-2.8-0.3-3.5-0.8c-0.6-0.6-0.9-1.7-0.9-3.3v-0.5l3.6-0.7v2.1h12.4
			v-4h-10.9c-1.7,0-2.8-0.3-3.4-0.9c-0.6-0.6-0.9-1.7-0.9-3.3V435c0-1.6,0.3-2.7,0.9-3.3c0.6-0.6,1.8-0.8,3.4-0.8h10
			c1.6,0,2.7,0.3,3.4,0.8c0.6,0.5,1,1.6,1,3v0.4l-3.6,0.9v-2.1H-296.5z"/>
		<path id="XMLID_170_" class="st1" d="M-285.5,448.4v-12.3h10.5c1.8,0,2.8,0.8,2.8,2.4v2.7c0,1.6-0.9,2.4-2.8,2.4h-7.7v4.8
			L-285.5,448.4L-285.5,448.4z M-276.3,438.2h-6.4v3.3h6.4c0.4,0,0.8,0,0.9-0.1c0.2-0.1,0.4-0.4,0.4-0.8v-1.3c0-0.4-0.1-0.7-0.4-0.8
			C-275.5,438.3-275.8,438.2-276.3,438.2z"/>
		<path id="XMLID_173_" class="st1" d="M-270.2,448.4l6.9-12.3h2.8l7,12.3h-3.2l-1.5-2.7h-7.8l-1.4,2.7H-270.2z M-264.7,443.5h5.4
			l-2.6-5L-264.7,443.5z"/>
		<path id="XMLID_176_" class="st1" d="M-243.8,438.3v10.1h-2.9v-10.1h-5.6v-2.2h14.2v2.2H-243.8z"/>
		<path id="XMLID_178_" class="st1" d="M-234.6,448.4v-12.3h2.9v12.3H-234.6z"/>
		<path id="XMLID_180_" class="st1" d="M-225.7,439c0-1.1,0.2-1.9,0.6-2.3c0.4-0.4,1.2-0.6,2.4-0.6h9c1.2,0,2,0.2,2.4,0.6
			c0.4,0.4,0.6,1.2,0.6,2.3v6.5c0,1.1-0.2,1.9-0.6,2.3c-0.4,0.4-1.2,0.6-2.4,0.6h-9c-1.2,0-2-0.2-2.4-0.6c-0.4-0.4-0.6-1.2-0.6-2.3
			V439z M-222.9,446.1h9.4v-7.8h-9.4V446.1z"/>
		<path id="XMLID_183_" class="st0" d="M-195.1,434v14.4h-4.1V434h-8.1v-3.1h20.3v3.1H-195.1z"/>
		<path id="XMLID_185_" class="st1" d="M-183.3,448.4v-12.3h12.6v2.1h-9.7v2.7h5.7v2.1h-5.7v3h9.8v2.3h-12.7V448.4z"/>
		<path id="XMLID_187_" class="st1" d="M-165.4,448.4v-12.3h2.3l5.8,7.4l5.7-7.4h2.3v12.3h-2.7v-7.6c0-0.3,0-0.7,0.1-1.3
			c-0.3,0.6-0.5,1-0.7,1.3l-4.6,6.1h-0.6l-4.6-6.2c-0.3-0.4-0.6-0.9-0.7-1.3c0,0.5,0.1,0.9,0.1,1.3v7.6h-2.4V448.4z"/>
		<path id="XMLID_189_" class="st1" d="M-143.3,448.4v-12.3h10.5c1.8,0,2.8,0.8,2.8,2.4v2.7c0,1.6-0.9,2.4-2.8,2.4h-7.7v4.8
			L-143.3,448.4L-143.3,448.4z M-134.1,438.2h-6.4v3.3h6.4c0.4,0,0.8,0,0.9-0.1c0.2-0.1,0.4-0.4,0.4-0.8v-1.3c0-0.4-0.1-0.7-0.4-0.8
			C-133.3,438.3-133.6,438.2-134.1,438.2z"/>
		<path id="XMLID_192_" class="st1" d="M-125.9,439c0-1.1,0.2-1.9,0.6-2.3c0.4-0.4,1.2-0.6,2.4-0.6h9c1.2,0,2,0.2,2.4,0.6
			c0.4,0.4,0.6,1.2,0.6,2.3v6.5c0,1.1-0.2,1.9-0.6,2.3c-0.4,0.4-1.2,0.6-2.4,0.6h-9c-1.2,0-2-0.2-2.4-0.6c-0.4-0.4-0.6-1.2-0.6-2.3
			V439z M-123,446.1h9.4v-7.8h-9.4V446.1z"/>
		<path id="XMLID_195_" class="st1" d="M-104.7,448.4v-12.3h10.5c1.8,0,2.8,0.8,2.8,2.4v2.9c0,1.6-0.9,2.4-2.8,2.4h-1.6l5.7,4.6
			h-4.1l-5-4.6h-2.7v4.6L-104.7,448.4L-104.7,448.4z M-95.5,438.2h-6.4v3.5h6.4c0.4,0,0.8,0,0.9-0.1c0.2-0.1,0.4-0.4,0.4-0.8v-1.5
			c0-0.4-0.1-0.7-0.4-0.8C-94.8,438.3-95.1,438.2-95.5,438.2z"/>
		<path id="XMLID_198_" class="st1" d="M-88,448.4l6.9-12.3h2.8l7,12.3h-3.2l-1.5-2.7h-7.8l-1.4,2.7H-88z M-82.5,443.5h5.4l-2.6-5
			L-82.5,443.5z"/>
		<path id="XMLID_201_" class="st1" d="M-67.3,448.4v-12.3h2.9v10h9.2v2.3H-67.3z"/>
		<path id="XMLID_203_" class="st0" d="M-311.7,489.2v-17.5h18v3h-13.9v3.9h8.1v3h-8.1v4.4h14v3.3L-311.7,489.2L-311.7,489.2z"/>
		<path id="XMLID_205_" class="st1" d="M-287.4,489.2v-12.3h2l8.6,7.2c0.6,0.5,1.1,1,1.4,1.3c-0.1-1.1-0.1-1.8-0.1-2.1v-6.5h2.6
			v12.3h-2l-9-7.6c-0.4-0.3-0.7-0.7-1-1c0.1,0.8,0.1,1.4,0.1,2v6.6h-2.6V489.2z"/>
		<path id="XMLID_207_" class="st1" d="M-262.5,489.2l-7.1-12.3h3.3l5,8.9l4.7-8.9h2.9l-6.8,12.3H-262.5z"/>
		<path id="XMLID_209_" class="st1" d="M-250.5,489.2v-12.3h2.9v12.3H-250.5z"/>
		<path id="XMLID_211_" class="st1" d="M-241.3,489.2v-12.3h10.5c1.8,0,2.8,0.8,2.8,2.4v2.9c0,1.6-0.9,2.4-2.8,2.4h-1.6l5.7,4.6
			h-4.1l-5-4.6h-2.7v4.6H-241.3z M-232.1,479h-6.4v3.5h6.4c0.4,0,0.8,0,0.9-0.1c0.2-0.1,0.4-0.4,0.4-0.8v-1.5c0-0.4-0.1-0.7-0.4-0.8
			C-231.3,479.1-231.7,479-232.1,479z"/>
		<path id="XMLID_214_" class="st1" d="M-222.5,479.8c0-1.1,0.2-1.9,0.6-2.3s1.2-0.6,2.4-0.6h9c1.2,0,2,0.2,2.4,0.6s0.6,1.2,0.6,2.3
			v6.5c0,1.1-0.2,1.9-0.6,2.3s-1.2,0.6-2.4,0.6h-9c-1.2,0-2-0.2-2.4-0.6s-0.6-1.2-0.6-2.3V479.8z M-219.6,486.9h9.4v-7.8h-9.4V486.9
			z"/>
		<path id="XMLID_217_" class="st1" d="M-201.4,489.2v-12.3h2l8.6,7.2c0.6,0.5,1.1,1,1.4,1.3c-0.1-1.1-0.1-1.8-0.1-2.1v-6.5h2.6
			v12.3h-2l-9-7.6c-0.4-0.3-0.7-0.7-1-1c0.1,0.8,0.1,1.4,0.1,2v6.6h-2.6V489.2z"/>
		<path id="XMLID_219_" class="st1" d="M-180.7,489.2v-12.3h2.3l5.8,7.4l5.7-7.4h2.3v12.3h-2.6v-7.6c0-0.3,0-0.7,0.1-1.3
			c-0.3,0.6-0.5,1-0.7,1.3l-4.6,6.1h-0.6l-4.6-6.2c-0.3-0.4-0.6-0.9-0.7-1.3c0,0.5,0.1,0.9,0.1,1.3v7.6h-2.5V489.2z"/>
		<path id="XMLID_221_" class="st1" d="M-158.6,489.2v-12.3h12.6v2.1h-9.7v2.7h5.7v2.1h-5.7v3h9.8v2.3L-158.6,489.2L-158.6,489.2z"
			/>
		<path id="XMLID_223_" class="st1" d="M-140.7,489.2v-12.3h2l8.6,7.2c0.6,0.5,1.1,1,1.4,1.3c-0.1-1.1-0.1-1.8-0.1-2.1v-6.5h2.6
			v12.3h-2l-9-7.6c-0.4-0.3-0.7-0.7-1-1c0.1,0.8,0.1,1.4,0.1,2v6.6h-2.6V489.2z"/>
		<path id="XMLID_225_" class="st1" d="M-114.3,479.1v10.1h-2.9v-10.1h-5.6v-2.2h14.2v2.2H-114.3z"/>
		<path id="XMLID_227_" class="st1" d="M-107.5,489.2l6.9-12.3h2.8l7,12.3H-94l-1.5-2.7h-7.8l-1.4,2.7H-107.5z M-102,484.3h5.4
			l-2.6-5L-102,484.3z"/>
		<path id="XMLID_230_" class="st1" d="M-86.8,489.2v-12.3h2.9v10h9.2v2.3H-86.8z"/>
		<path id="XMLID_232_" class="st1" d="M-313,530v-12.3h2.9V530H-313z"/>
		<path id="XMLID_234_" class="st1" d="M-303.9,530v-12.3h2l8.6,7.2c0.6,0.5,1.1,1,1.4,1.3c-0.1-1.1-0.1-1.8-0.1-2.1v-6.5h2.6v12.3
			h-2l-9-7.6c-0.4-0.3-0.7-0.7-1-1c0.1,0.8,0.1,1.4,0.1,2v6.6L-303.9,530L-303.9,530z"/>
		<path id="XMLID_236_" class="st1" d="M-283.2,530v-12.3h12.4v2.1h-9.6v3.2h5.2v2.2h-5.2v4.7L-283.2,530L-283.2,530z"/>
		<path id="XMLID_238_" class="st1" d="M-267.5,520.6c0-1.1,0.2-1.9,0.6-2.3c0.4-0.4,1.2-0.6,2.4-0.6h9c1.2,0,2,0.2,2.4,0.6
			c0.4,0.4,0.6,1.2,0.6,2.3v6.5c0,1.1-0.2,1.9-0.6,2.3c-0.4,0.4-1.2,0.6-2.4,0.6h-9c-1.2,0-2-0.2-2.4-0.6c-0.4-0.4-0.6-1.2-0.6-2.3
			V520.6z M-264.6,527.7h9.4v-7.8h-9.4V527.7z"/>
		<path id="XMLID_241_" class="st1" d="M-246.3,530v-12.3h10.5c1.8,0,2.8,0.8,2.8,2.4v2.9c0,1.6-0.9,2.4-2.8,2.4h-1.6l5.7,4.6h-4.1
			l-5-4.6h-2.7v4.6H-246.3z M-237.1,519.8h-6.4v3.5h6.4c0.4,0,0.8,0,0.9-0.1c0.2-0.1,0.4-0.4,0.4-0.8v-1.5c0-0.4-0.1-0.7-0.4-0.8
			C-236.4,519.9-236.7,519.8-237.1,519.8z"/>
		<path id="XMLID_244_" class="st0" d="M-225.9,530v-17.5h3.3l8.3,10.6l8.1-10.6h3.3V530h-3.8v-10.9c0-0.4,0-1.1,0.1-1.9
			c-0.4,0.9-0.8,1.5-1,1.8l-6.6,8.8h-0.8l-6.6-8.8c-0.5-0.6-0.8-1.2-1.1-1.8c0.1,0.7,0.1,1.3,0.1,1.9v10.8L-225.9,530L-225.9,530z"
			/>
		<path id="XMLID_246_" class="st1" d="M-198.1,530l6.9-12.3h2.8l7,12.3h-3.2l-1.5-2.7h-7.8l-1.4,2.7H-198.1z M-192.6,525.1h5.4
			l-2.6-5L-192.6,525.1z"/>
		<path id="XMLID_249_" class="st1" d="M-171.7,519.9V530h-2.9v-10.1h-5.6v-2.2h14.2v2.2H-171.7z"/>
		<path id="XMLID_251_" class="st1" d="M-162.5,530v-12.3h2.9V530H-162.5z"/>
		<path id="XMLID_253_" class="st1" d="M-143.1,519.9h-7.7v7.8h7.7v-2.6l2.9,0.6v1.5c0,1.1-0.2,1.9-0.6,2.3
			c-0.4,0.4-1.2,0.6-2.4,0.6h-7.3c-1.2,0-2-0.2-2.4-0.6c-0.4-0.4-0.6-1.2-0.6-2.3v-6.5c0-1.1,0.2-1.9,0.6-2.3
			c0.4-0.4,1.2-0.6,2.4-0.6h7.3c1.2,0,2,0.2,2.4,0.6c0.4,0.4,0.6,1.2,0.6,2.3v1.2l-2.9,0.5V519.9z"/>
		<path id="XMLID_255_" class="st1" d="M-123.7,519.9h-8.1v2.6h7.7c1.2,0,2,0.2,2.4,0.6c0.4,0.4,0.7,1.2,0.7,2.3v1.7
			c0,1.1-0.2,1.9-0.7,2.3c-0.5,0.4-1.2,0.6-2.4,0.6h-7.6c-1.2,0-2-0.2-2.4-0.6c-0.4-0.4-0.7-1.2-0.7-2.3v-0.3l2.5-0.5v1.5h8.7V525
			h-7.7c-1.2,0-2-0.2-2.4-0.6s-0.6-1.2-0.6-2.3v-1.4c0-1.1,0.2-1.9,0.6-2.3c0.4-0.4,1.2-0.6,2.4-0.6h7c1.1,0,1.9,0.2,2.4,0.6
			c0.5,0.4,0.7,1.1,0.7,2.1v0.3l-2.5,0.6L-123.7,519.9L-123.7,519.9z"/>
		<path id="XMLID_257_" class="st0" d="M-311.7,570.8v-17.5h4.1v14.2h13.2v3.3H-311.7z"/>
		<path id="XMLID_259_" class="st0" d="M-292.2,570.8l6.9-12.3h2.8l7,12.3h-3.2l-1.5-2.7h-7.8l-1.4,2.7H-292.2z M-286.7,565.9h5.4
			l-2.6-5L-286.7,565.9z"/>
		<path id="XMLID_262_" class="st0" d="M-271.5,570.8v-12.3h10.5c1.8,0,2.8,0.8,2.8,2.4v1.5c0,1.2-0.7,1.9-2.1,2.1
			c1.5,0.2,2.2,1,2.2,2.4v1.6c0,1.6-1.2,2.4-3.6,2.4L-271.5,570.8L-271.5,570.8z M-262.1,560.5h-6.5v2.9h6.5c0.9,0,1.3-0.3,1.3-0.9
			v-1.2C-260.8,560.8-261.3,560.5-262.1,560.5z M-262.1,565.5h-6.5v3.1h6.5c0.5,0,0.8-0.1,1-0.2c0.3-0.2,0.4-0.5,0.4-0.9v-0.9
			c0-0.5-0.1-0.8-0.4-0.9C-261.3,565.5-261.7,565.5-262.1,565.5z"/>
		<path id="XMLID_266_" class="st1" d="M-252.8,561.4c0-1.1,0.2-1.9,0.6-2.3c0.4-0.4,1.2-0.6,2.4-0.6h9c1.2,0,2,0.2,2.4,0.6
			c0.4,0.4,0.6,1.2,0.6,2.3v6.5c0,1.1-0.2,1.9-0.6,2.3c-0.4,0.4-1.2,0.6-2.4,0.6h-9c-1.2,0-2-0.2-2.4-0.6c-0.4-0.4-0.6-1.2-0.6-2.3
			V561.4z M-250,568.5h9.4v-7.8h-9.4V568.5z"/>
		<path id="XMLID_269_" class="st1" d="M-231.7,570.8v-12.3h10.5c1.8,0,2.8,0.8,2.8,2.4v2.9c0,1.6-0.9,2.4-2.8,2.4h-1.6l5.7,4.6
			h-4.1l-5-4.6h-2.7v4.6H-231.7z M-222.4,560.6h-6.4v3.5h6.4c0.4,0,0.8,0,0.9-0.1c0.2-0.1,0.4-0.4,0.4-0.8v-1.5
			c0-0.4-0.1-0.7-0.4-0.8C-221.7,560.7-222,560.6-222.4,560.6z"/>
		<path id="XMLID_272_" class="st1" d="M-214.9,570.8l6.9-12.3h2.8l7,12.3h-3.2l-1.5-2.7h-7.8l-1.4,2.7H-214.9z M-209.4,565.9h5.4
			l-2.6-5L-209.4,565.9z"/>
		<path id="XMLID_275_" class="st1" d="M-188.5,560.7v10.1h-2.9v-10.1h-5.6v-2.2h14.2v2.2H-188.5z"/>
		<path id="XMLID_277_" class="st1" d="M-179.6,561.4c0-1.1,0.2-1.9,0.6-2.3c0.4-0.4,1.2-0.6,2.4-0.6h9c1.2,0,2,0.2,2.4,0.6
			c0.4,0.4,0.6,1.2,0.6,2.3v6.5c0,1.1-0.2,1.9-0.6,2.3c-0.4,0.4-1.2,0.6-2.4,0.6h-9c-1.2,0-2-0.2-2.4-0.6c-0.4-0.4-0.6-1.2-0.6-2.3
			V561.4z M-176.8,568.5h9.4v-7.8h-9.4V568.5z"/>
		<path id="XMLID_280_" class="st1" d="M-158.5,570.8v-12.3h10.5c1.8,0,2.8,0.8,2.8,2.4v2.9c0,1.6-0.9,2.4-2.8,2.4h-1.6l5.7,4.6
			h-4.1l-5-4.6h-2.7v4.6H-158.5z M-149.2,560.6h-6.4v3.5h6.4c0.4,0,0.8,0,0.9-0.1c0.2-0.1,0.4-0.4,0.4-0.8v-1.5
			c0-0.4-0.1-0.7-0.4-0.8C-148.5,560.7-148.8,560.6-149.2,560.6z"/>
		<path id="XMLID_283_" class="st1" d="M-135.9,570.8v-5.5l-6.4-6.8h3.8l4.2,4.7l4.2-4.7h3.4l-6.4,6.7v5.6H-135.9L-135.9,570.8z"/>
	</g>
</g>
<g id="STEMLAB">
	<g id="XMLID_23_">
		<path id="XMLID_58_" class="st1" d="M-256.5,340c-12.2,17.8,40.1,7.8,40.1,24c0,16.1-50.3-9.1-62.2,8.4
			c-6.4,9.4-2.8,2.7-13.5,18.5c0,0,12.2-16.5,54.8-6.8c36.1,0,39.1-14.6,32.1-24.9C-220.3,337.2-257.5,352.9-256.5,340z"/>
		<path id="XMLID_61_" class="st1" d="M-217,342c-2.4-3.5-8.1-11.9-8.1-11.9s-17.6-10.4-31.4,9.9C-249,329-223.3,332.8-217,342z"/>
		<polygon id="XMLID_62_" class="st1" points="-176.1,335 -196.4,335 -196.4,343 -175.4,343 -175.4,380 -166.4,380 -166.4,343 
			-143.4,343 -143.4,335 -165.3,335 		"/>
		<polygon id="XMLID_63_" class="st1" points="-130.4,335 -130.4,342.9 -130.4,353.1 -130.4,361 -130.4,371.7 -130.4,380 -119,380 
			-88.4,380 -88.4,372 -119.4,372 -119.4,361 -88.4,361 -88.4,353 -119.4,353 -119.4,343 -88.4,343 -88.4,335 -119,335 		"/>
		<polygon id="XMLID_64_" class="st1" points="-43.9,356.7 -55.7,331.2 -76.4,379.5 -69,382.6 -55.4,350.9 -43.6,376.4 -32.9,351.4 
			-19.8,382.6 -12.4,379.5 -32.8,330.9 		"/>
		<path id="XMLID_67_" class="st1" d="M132.9,338H87.6L87,373h-3.3l-21.2-36.8L41.1,373H8.5v-40h-8v48h45.2l16.8-28.8L79.1,381H132
			l-19-22.9L132.9,338z M115.1,373h-20l0.5-27h18.2l-11.5,11.6L115.1,373z"/>
	</g>
</g>
</svg>
