<?xml version="1.0" encoding="iso-8859-1"?>
<!-- Generator: Adobe Illustrator 19.0.0, SVG Export Plug-In . SVG Version: 6.00 Build 0)  -->
<svg version="1.1" xmlns="http://www.w3.org/2000/svg" xmlns:xlink="http://www.w3.org/1999/xlink" x="0px" y="0px"
	 viewBox="0 0 529.121 392.943" style="enable-background:new 0 0 529.121 392.943;" xml:space="preserve">
<g id="Layer_21">
	<path id="XMLID_41_" style="display:none;fill:#96D6E0;" d="M390.357,178.755c-31.639-0.109-37.295-20.183-77.108-20.183
		s-30.897,33.861-88.158,32.375c-58.788-1.526-51.975-33.791-87.335-32.369c-37.057,1.491-35.818,20.858-83.697,20.192
		C10.584,178.164,1.23,155.03,1.23,155.03L1.121,287.943h529V185.951c-17-0.493-27.374-27.381-65.347-27.381
		C426.45,158.57,421.996,178.864,390.357,178.755z"/>
	<path id="XMLID_25_" style="display:none;fill:#5587A2;" d="M390.357,186.155c-31.586,1.866-45.436-29.784-77.108-20.518
		c-31.794,9.302-30.398,40.128-85.631,39.678c-54.712-0.445-57.016-39.984-87.998-43.278c-36.886-3.922-49.5,30.385-83.612,30.385
		c-43.48,0-54.779-30.571-54.779-30.571L0,406.943h529l1.121-213.658c-29.817-0.169-37.696-31.652-66.584-31.652
		C443.84,161.632,435.086,183.513,390.357,186.155z"/>
	<path id="XMLID_24_" style="display:none;fill:#FFFFFF;fill-opacity:0.75;" d="M0.232,79.028c0,0,9.356,23.136,52.832,23.741
		c47.879,0.666,46.614-20.192,83.701-20.192s30.066,32.086,87.345,32.369c57.279,0.283,48.364-32.375,88.177-32.375
		s45.508,20.074,77.146,20.183c31.639,0.109,36.17-20.185,74.493-20.185s47.915,27.404,65.989,27.404
		C529.858,48.912,529.857,0,529.857,0H0.232V79.028z"/>
	<path id="XMLID_108_" style="display:none;fill:#FFFFFF;fill-opacity:0.75;" d="M0.232,47.028c0,0,9.356,23.136,52.832,23.741
		c47.879,0.666,46.614-20.192,83.701-20.192s30.066,32.086,87.345,32.369c57.279,0.283,48.364-32.375,88.177-32.375
		s45.508,20.074,77.146,20.183c31.639,0.109,36.17-20.185,74.493-20.185s47.915,27.404,65.989,27.404
		C529.858,16.912,529.857,0,529.857,0H0.232V47.028z"/>
	<path id="XMLID_109_" style="display:none;fill:#FFFFFF;" d="M0.121,14.028c0,0,9.412,23.136,52.888,23.741
		c47.879,0.666,46.642-20.192,83.729-20.192c37.087,0,30.08,32.086,87.359,32.369s48.371-32.375,88.184-32.375
		s45.511,20.074,77.15,20.183s36.171-20.185,74.495-20.185s47.916,27.375,65.99,27.375c-0.058-61.062-0.058-45.003-0.058-45.003
		H0.121V14.028z"/>
	<rect id="XMLID_26_" x="1.121" y="196.471" style="display:none;fill:#88B14B;" width="529" height="196.471"/>
	<rect id="XMLID_92_" x="-0.5" y="338.23" style="fill:#0C4C8A;" width="530.121" height="40"/>
	<rect id="XMLID_93_" x="0.56" y="298.489" style="display:none;fill:#666666;" width="529" height="40"/>
	<rect id="XMLID_91_" x="0.06" y="258.355" style="display:none;fill:#5587A2;" width="529" height="40"/>
	<rect id="XMLID_94_" x="-0.5" y="218.15" style="display:none;fill:#999999;" width="530.121" height="40"/>
	<polygon id="XMLID_80_" style="display:none;fill:#5C7148;" points="530.121,196.948 335.121,392.943 530.121,392.943 	"/>
</g>
<g id="Layer_6">
	<g id="XMLID_167_">
		<g id="XMLID_98_" style="display:none;">
			<path id="XMLID_168_" style="display:inline;fill:#F6D257;" d="M38.039,229.806H26.513v3.774h10.972
				c1.681,0,2.834,0.283,3.458,0.85c0.625,0.567,0.937,1.666,0.937,3.299v2.413c0,1.633-0.312,2.732-0.935,3.299
				s-1.773,0.85-3.451,0.85H26.649c-1.678,0-2.828-0.283-3.451-0.85c-0.624-0.566-0.935-1.666-0.935-3.299v-0.476l3.604-0.748v2.074
				h12.41v-4.012H27.329c-1.678,0-2.822-0.283-3.434-0.851c-0.612-0.566-0.918-1.666-0.918-3.298v-1.938
				c0-1.632,0.306-2.73,0.918-3.298c0.612-0.566,1.756-0.85,3.434-0.85h9.962c1.609,0,2.737,0.271,3.383,0.816
				c0.646,0.544,0.969,1.553,0.969,3.025v0.374l-3.604,0.851V229.806z"/>
			<path id="XMLID_170_" style="display:inline;fill:#FFFFFF;" d="M49,244.29v-12.281h10.52c1.84,0,2.761,0.794,2.761,2.381v2.736
				c0,1.587-0.92,2.38-2.761,2.38h-7.711v4.784H49z M58.235,234.104h-6.426v3.309h6.426c0.444,0,0.753-0.049,0.928-0.146
				c0.238-0.145,0.357-0.426,0.357-0.845v-1.328c0-0.419-0.119-0.7-0.357-0.845C58.988,234.153,58.679,234.104,58.235,234.104z"/>
			<path id="XMLID_173_" style="display:inline;fill:#FFFFFF;" d="M64.327,244.29l6.95-12.281h2.761l7.045,12.281H77.87
				l-1.476-2.689h-7.783l-1.428,2.689H64.327z M69.825,239.388h5.379l-2.642-4.998L69.825,239.388z"/>
			<path id="XMLID_176_" style="display:inline;fill:#FFFFFF;" d="M90.745,234.2v10.091h-2.856V234.2h-5.641v-2.19H96.41v2.19
				H90.745z"/>
			<path id="XMLID_178_" style="display:inline;fill:#FFFFFF;" d="M99.908,244.29v-12.281h2.856v12.281H99.908z"/>
			<path id="XMLID_180_" style="display:inline;fill:#FFFFFF;" d="M108.786,234.913c0-1.143,0.214-1.912,0.643-2.309
				s1.229-0.596,2.404-0.596h9.044c1.174,0,1.976,0.199,2.404,0.596s0.643,1.166,0.643,2.309v6.474c0,1.143-0.214,1.912-0.643,2.309
				s-1.23,0.595-2.404,0.595h-9.044c-1.174,0-1.976-0.198-2.404-0.595s-0.643-1.166-0.643-2.309V234.913z M111.642,241.982h9.425
				V234.2h-9.425V241.982z"/>
			<path id="XMLID_183_" style="display:inline;fill:#F6D257;" d="M139.45,229.874v14.416h-4.08v-14.416h-8.058v-3.128h20.23v3.128
				H139.45z"/>
			<path id="XMLID_185_" style="display:inline;fill:#FFFFFF;" d="M151.193,244.29v-12.281h12.566v2.095h-9.71v2.737h5.665v2.094
				h-5.665v3.047h9.83v2.309H151.193z"/>
			<path id="XMLID_187_" style="display:inline;fill:#FFFFFF;" d="M169.138,244.29v-12.281h2.309l5.784,7.426l5.664-7.426h2.285
				v12.281h-2.642v-7.592c0-0.302,0.032-0.738,0.095-1.31c-0.301,0.619-0.54,1.048-0.714,1.285l-4.617,6.141h-0.571l-4.617-6.164
				c-0.333-0.444-0.58-0.865-0.738-1.262c0.048,0.492,0.071,0.929,0.071,1.31v7.592H169.138z"/>
			<path id="XMLID_189_" style="display:inline;fill:#FFFFFF;" d="M191.201,244.29v-12.281h10.52c1.84,0,2.761,0.794,2.761,2.381
				v2.736c0,1.587-0.92,2.38-2.761,2.38h-7.711v4.784H191.201z M200.435,234.104h-6.426v3.309h6.426
				c0.444,0,0.753-0.049,0.928-0.146c0.238-0.145,0.357-0.426,0.357-0.845v-1.328c0-0.419-0.119-0.7-0.357-0.845
				C201.188,234.153,200.879,234.104,200.435,234.104z"/>
			<path id="XMLID_192_" style="display:inline;fill:#FFFFFF;" d="M208.622,234.913c0-1.143,0.214-1.912,0.643-2.309
				s1.229-0.596,2.404-0.596h9.044c1.174,0,1.976,0.199,2.404,0.596s0.643,1.166,0.643,2.309v6.474c0,1.143-0.214,1.912-0.643,2.309
				s-1.23,0.595-2.404,0.595h-9.044c-1.174,0-1.976-0.198-2.404-0.595s-0.643-1.166-0.643-2.309V234.913z M211.478,241.982h9.425
				V234.2h-9.425V241.982z"/>
			<path id="XMLID_195_" style="display:inline;fill:#FFFFFF;" d="M229.78,244.29v-12.281h10.52c1.84,0,2.761,0.794,2.761,2.381
				v2.879c0,1.587-0.92,2.381-2.761,2.381h-1.618l5.664,4.641h-4.093l-4.951-4.641h-2.713v4.641H229.78z M239.015,234.104h-6.426
				v3.451h6.426c0.444,0,0.753-0.048,0.928-0.144c0.238-0.144,0.357-0.424,0.357-0.839v-1.486c0-0.415-0.119-0.694-0.357-0.839
				C239.768,234.152,239.458,234.104,239.015,234.104z"/>
			<path id="XMLID_198_" style="display:inline;fill:#FFFFFF;" d="M246.511,244.29l6.95-12.281h2.761l7.045,12.281h-3.213
				l-1.476-2.689h-7.783l-1.428,2.689H246.511z M252.009,239.388h5.379l-2.642-4.998L252.009,239.388z"/>
			<path id="XMLID_201_" style="display:inline;fill:#FFFFFF;" d="M267.217,244.29v-12.281h2.855v9.973h9.211v2.309H267.217z"/>
		</g>
		<g id="XMLID_97_" style="display:none;">
			<path id="XMLID_203_" style="display:inline;fill:#F6D257;" d="M22.841,285.09v-17.544h17.952v2.992H26.921v3.91h8.092v2.991
				h-8.092v4.353h14.042v3.298H22.841z"/>
			<path id="XMLID_205_" style="display:inline;fill:#FFFFFF;" d="M47.14,285.09v-12.281h1.952l8.64,7.235
				c0.619,0.523,1.086,0.969,1.404,1.333c-0.08-1.143-0.119-1.848-0.119-2.118v-6.45h2.57v12.281h-1.952l-9.02-7.592
				c-0.381-0.317-0.722-0.65-1.023-1c0.079,0.794,0.119,1.444,0.119,1.951v6.641H47.14z"/>
			<path id="XMLID_207_" style="display:inline;fill:#FFFFFF;" d="M71.987,285.09l-7.092-12.281h3.261l4.974,8.878l4.736-8.878
				h2.856l-6.759,12.281H71.987z"/>
			<path id="XMLID_209_" style="display:inline;fill:#FFFFFF;" d="M84.054,285.09v-12.281h2.856v12.281H84.054z"/>
			<path id="XMLID_211_" style="display:inline;fill:#FFFFFF;" d="M93.193,285.09v-12.281h10.52c1.84,0,2.761,0.794,2.761,2.381
				v2.879c0,1.587-0.92,2.381-2.761,2.381h-1.618l5.664,4.641h-4.093l-4.951-4.641h-2.713v4.641H93.193z M102.427,274.904h-6.426
				v3.451h6.426c0.444,0,0.753-0.048,0.928-0.144c0.238-0.144,0.357-0.424,0.357-0.839v-1.486c0-0.415-0.119-0.694-0.357-0.839
				C103.181,274.952,102.871,274.904,102.427,274.904z"/>
			<path id="XMLID_214_" style="display:inline;fill:#FFFFFF;" d="M112.018,275.713c0-1.143,0.214-1.912,0.643-2.309
				s1.229-0.596,2.404-0.596h9.044c1.174,0,1.976,0.199,2.404,0.596s0.643,1.166,0.643,2.309v6.474c0,1.143-0.214,1.912-0.643,2.309
				s-1.23,0.595-2.404,0.595h-9.044c-1.174,0-1.976-0.198-2.404-0.595s-0.643-1.166-0.643-2.309V275.713z M114.874,282.782h9.425
				v-7.782h-9.425V282.782z"/>
			<path id="XMLID_217_" style="display:inline;fill:#FFFFFF;" d="M133.152,285.09v-12.281h1.952l8.64,7.235
				c0.619,0.523,1.086,0.969,1.404,1.333c-0.08-1.143-0.119-1.848-0.119-2.118v-6.45h2.57v12.281h-1.952l-9.02-7.592
				c-0.381-0.317-0.722-0.65-1.023-1c0.079,0.794,0.119,1.444,0.119,1.951v6.641H133.152z"/>
			<path id="XMLID_219_" style="display:inline;fill:#FFFFFF;" d="M153.834,285.09v-12.281h2.309l5.784,7.426l5.664-7.426h2.285
				v12.281h-2.642v-7.592c0-0.302,0.032-0.738,0.095-1.31c-0.301,0.619-0.54,1.048-0.714,1.285l-4.617,6.141h-0.571l-4.617-6.164
				c-0.333-0.444-0.58-0.865-0.738-1.262c0.048,0.492,0.071,0.929,0.071,1.31v7.592H153.834z"/>
			<path id="XMLID_221_" style="display:inline;fill:#FFFFFF;" d="M175.897,285.09v-12.281h12.566v2.095h-9.71v2.737h5.665v2.094
				h-5.665v3.047h9.83v2.309H175.897z"/>
			<path id="XMLID_223_" style="display:inline;fill:#FFFFFF;" d="M193.842,285.09v-12.281h1.952l8.64,7.235
				c0.619,0.523,1.086,0.969,1.404,1.333c-0.08-1.143-0.119-1.848-0.119-2.118v-6.45h2.57v12.281h-1.952l-9.02-7.592
				c-0.381-0.317-0.722-0.65-1.023-1c0.079,0.794,0.119,1.444,0.119,1.951v6.641H193.842z"/>
			<path id="XMLID_225_" style="display:inline;fill:#FFFFFF;" d="M220.259,274.999v10.091h-2.856v-10.091h-5.641v-2.19h14.161v2.19
				H220.259z"/>
			<path id="XMLID_227_" style="display:inline;fill:#FFFFFF;" d="M227.066,285.09l6.95-12.281h2.761l7.045,12.281h-3.213
				l-1.476-2.689h-7.783l-1.428,2.689H227.066z M232.564,280.188h5.379l-2.642-4.998L232.564,280.188z"/>
			<path id="XMLID_230_" style="display:inline;fill:#FFFFFF;" d="M247.772,285.09v-12.281h2.856v9.973h9.21v2.309H247.772z"/>
		</g>
		<g id="XMLID_96_" style="display:none;">
			<path id="XMLID_232_" style="display:inline;fill:#FFFFFF;" d="M21.495,325.89v-12.281h2.856v12.281H21.495z"/>
			<path id="XMLID_234_" style="display:inline;fill:#FFFFFF;" d="M30.609,325.89v-12.281h1.952l8.64,7.235
				c0.619,0.523,1.086,0.969,1.404,1.333c-0.08-1.143-0.119-1.848-0.119-2.118v-6.45h2.57v12.281h-1.952l-9.02-7.592
				c-0.381-0.317-0.722-0.65-1.023-1c0.079,0.794,0.119,1.444,0.119,1.951v6.641H30.609z"/>
			<path id="XMLID_236_" style="display:inline;fill:#FFFFFF;" d="M51.315,325.89v-12.281h12.424v2.143h-9.568v3.236h5.165v2.237
				h-5.165v4.665H51.315z"/>
			<path id="XMLID_238_" style="display:inline;fill:#FFFFFF;" d="M67.023,316.513c0-1.143,0.214-1.912,0.643-2.309
				s1.229-0.596,2.404-0.596h9.044c1.174,0,1.976,0.199,2.404,0.596s0.643,1.166,0.643,2.309v6.474c0,1.143-0.214,1.912-0.643,2.309
				s-1.23,0.595-2.404,0.595H70.07c-1.174,0-1.976-0.198-2.404-0.595s-0.643-1.166-0.643-2.309V316.513z M69.879,323.581h9.425
				v-7.782h-9.425V323.581z"/>
			<path id="XMLID_241_" style="display:inline;fill:#FFFFFF;" d="M88.181,325.89v-12.281h10.52c1.84,0,2.761,0.794,2.761,2.381
				v2.879c0,1.587-0.92,2.381-2.761,2.381h-1.618l5.664,4.641h-4.093l-4.951-4.641H90.99v4.641H88.181z M97.415,315.703H90.99v3.451
				h6.426c0.444,0,0.753-0.048,0.928-0.144c0.238-0.144,0.357-0.424,0.357-0.839v-1.486c0-0.415-0.119-0.694-0.357-0.839
				C98.169,315.751,97.859,315.703,97.415,315.703z"/>
			<path id="XMLID_244_" style="display:inline;fill:#F6D257;" d="M108.581,325.89v-17.544h3.298l8.262,10.608l8.092-10.608h3.264
				v17.544h-3.774v-10.846c0-0.431,0.045-1.055,0.136-1.87c-0.431,0.884-0.771,1.496-1.02,1.836l-6.596,8.771h-0.816l-6.596-8.806
				c-0.476-0.634-0.828-1.235-1.054-1.802c0.068,0.703,0.102,1.326,0.102,1.87v10.846H108.581z"/>
			<path id="XMLID_246_" style="display:inline;fill:#FFFFFF;" d="M136.396,325.89l6.95-12.281h2.761l7.045,12.281h-3.213
				l-1.476-2.689h-7.783l-1.428,2.689H136.396z M141.894,320.988h5.379l-2.642-4.998L141.894,320.988z"/>
			<path id="XMLID_249_" style="display:inline;fill:#FFFFFF;" d="M162.814,315.799v10.091h-2.856v-10.091h-5.641v-2.19h14.161v2.19
				H162.814z"/>
			<path id="XMLID_251_" style="display:inline;fill:#FFFFFF;" d="M171.977,325.89v-12.281h2.856v12.281H171.977z"/>
			<path id="XMLID_253_" style="display:inline;fill:#FFFFFF;" d="M191.421,315.799h-7.711v7.782h7.711v-2.642l2.856,0.595v1.452
				c0,1.143-0.214,1.912-0.643,2.309c-0.428,0.396-1.229,0.595-2.403,0.595H183.9c-1.174,0-1.976-0.198-2.404-0.595
				s-0.643-1.166-0.643-2.309v-6.474c0-1.143,0.214-1.912,0.643-2.309s1.229-0.596,2.404-0.596h7.331
				c1.174,0,1.975,0.199,2.403,0.596c0.429,0.396,0.643,1.166,0.643,2.309v1.166l-2.856,0.452V315.799z"/>
			<path id="XMLID_255_" style="display:inline;fill:#FFFFFF;" d="M210.818,315.751h-8.068v2.642h7.681
				c1.177,0,1.984,0.198,2.421,0.595c0.438,0.397,0.656,1.167,0.656,2.309v1.69c0,1.143-0.218,1.912-0.655,2.309
				s-1.242,0.595-2.416,0.595h-7.592c-1.174,0-1.979-0.198-2.416-0.595c-0.437-0.396-0.655-1.166-0.655-2.309v-0.333l2.523-0.524
				v1.452h8.687v-2.809h-7.664c-1.174,0-1.976-0.198-2.404-0.595s-0.643-1.166-0.643-2.309v-1.356c0-1.143,0.214-1.912,0.643-2.309
				s1.229-0.596,2.404-0.596h6.974c1.126,0,1.916,0.19,2.368,0.571s0.679,1.087,0.679,2.118v0.262l-2.523,0.596V315.751z"/>
		</g>
		<g id="XMLID_95_">
			<path id="XMLID_257_" style="fill:#F6D257;" d="M22.841,366.691v-17.544h4.08v14.246h13.158v3.298H22.841z"/>
			<path id="XMLID_259_" style="fill:#F6D257;" d="M42.36,366.691l6.95-12.281h2.761l7.045,12.281h-3.213l-1.476-2.689h-7.783
				l-1.428,2.689H42.36z M47.858,361.788h5.379l-2.642-4.998L47.858,361.788z"/>
			<path id="XMLID_262_" style="fill:#F6D257;" d="M63.066,366.691V354.41h10.52c1.84,0,2.761,0.794,2.761,2.381v1.499
				c0,1.206-0.706,1.896-2.118,2.07c1.476,0.19,2.213,0.976,2.213,2.356v1.571c0,1.603-1.206,2.403-3.618,2.403H63.066z
				 M72.396,356.41h-6.521v2.927h6.521c0.873,0,1.309-0.293,1.309-0.88v-1.167C73.705,356.702,73.268,356.41,72.396,356.41z
				 M72.396,361.36h-6.521v3.117h6.521c0.476,0,0.809-0.055,1-0.166c0.254-0.158,0.381-0.468,0.381-0.929v-0.928
				c0-0.46-0.127-0.77-0.381-0.929C73.205,361.415,72.872,361.36,72.396,361.36z"/>
			<path id="XMLID_266_" style="fill:#FFFFFF;" d="M81.702,357.314c0-1.143,0.214-1.912,0.643-2.309s1.229-0.596,2.404-0.596h9.044
				c1.174,0,1.976,0.199,2.404,0.596s0.643,1.166,0.643,2.309v6.474c0,1.143-0.214,1.912-0.643,2.309s-1.23,0.595-2.404,0.595
				h-9.044c-1.174,0-1.976-0.198-2.404-0.595s-0.643-1.166-0.643-2.309V357.314z M84.558,364.382h9.425V356.6h-9.425V364.382z"/>
			<path id="XMLID_269_" style="fill:#FFFFFF;" d="M102.859,366.691V354.41h10.52c1.84,0,2.761,0.794,2.761,2.381v2.879
				c0,1.587-0.92,2.381-2.761,2.381h-1.618l5.664,4.641h-4.093l-4.951-4.641h-2.713v4.641H102.859z M112.094,356.504h-6.426v3.451
				h6.426c0.444,0,0.753-0.048,0.928-0.144c0.238-0.144,0.357-0.424,0.357-0.839v-1.486c0-0.415-0.119-0.694-0.357-0.839
				C112.847,356.552,112.538,356.504,112.094,356.504z"/>
			<path id="XMLID_272_" style="fill:#FFFFFF;" d="M119.59,366.691l6.95-12.281h2.761l7.045,12.281h-3.213l-1.476-2.689h-7.783
				l-1.428,2.689H119.59z M125.088,361.788h5.379l-2.642-4.998L125.088,361.788z"/>
			<path id="XMLID_275_" style="fill:#FFFFFF;" d="M146.008,356.6v10.091h-2.856V356.6h-5.641v-2.19h14.161v2.19H146.008z"/>
			<path id="XMLID_277_" style="fill:#FFFFFF;" d="M154.91,357.314c0-1.143,0.214-1.912,0.643-2.309s1.229-0.596,2.404-0.596H167
				c1.174,0,1.976,0.199,2.404,0.596s0.643,1.166,0.643,2.309v6.474c0,1.143-0.214,1.912-0.643,2.309s-1.23,0.595-2.404,0.595
				h-9.044c-1.174,0-1.976-0.198-2.404-0.595s-0.643-1.166-0.643-2.309V357.314z M157.766,364.382h9.425V356.6h-9.425V364.382z"/>
			<path id="XMLID_280_" style="fill:#FFFFFF;" d="M176.067,366.691V354.41h10.52c1.84,0,2.761,0.794,2.761,2.381v2.879
				c0,1.587-0.92,2.381-2.761,2.381h-1.618l5.664,4.641h-4.093l-4.951-4.641h-2.713v4.641H176.067z M185.302,356.504h-6.426v3.451
				h6.426c0.444,0,0.753-0.048,0.928-0.144c0.238-0.144,0.357-0.424,0.357-0.839v-1.486c0-0.415-0.119-0.694-0.357-0.839
				C186.055,356.552,185.746,356.504,185.302,356.504z"/>
			<path id="XMLID_283_" style="fill:#FFFFFF;" d="M198.582,366.691v-5.498l-6.378-6.783h3.808l4.212,4.713l4.236-4.713h3.356
				l-6.354,6.712v5.569H198.582z"/>
		</g>
	</g>
</g>
<g id="STEMLAB" style="display:none;">
	<g id="XMLID_23_" style="display:inline;">
		<path id="XMLID_58_" style="fill:#FFFFFF;" d="M78,135.936c-12.16,17.803,40.114,7.833,40.115,23.995
			c0,16.116-50.284-9.108-62.221,8.369c-6.396,9.387-2.842,2.701-13.542,18.454c0,0,12.226-16.522,54.768-6.811
			c36.142,0,39.094-14.555,32.062-24.889C114.227,133.077,76.991,148.769,78,135.936z"/>
		<path id="XMLID_61_" style="fill:#FFFFFF;" d="M117.508,137.9c-2.39-3.518-8.082-11.876-8.082-11.876S91.859,115.58,78,135.936
			C85.487,124.91,111.242,128.69,117.508,137.9z"/>
		<polygon id="XMLID_62_" style="fill:#FFFFFF;" points="158.463,130.943 138.121,130.943 138.121,138.943 159.121,138.943 
			159.121,175.943 168.121,175.943 168.121,138.943 191.121,138.943 191.121,130.943 169.221,130.943 		"/>
		<polygon id="XMLID_63_" style="fill:#FFFFFF;" points="204.121,130.943 204.121,138.804 204.121,148.967 204.121,156.871 
			204.121,167.566 204.121,175.943 215.508,175.943 246.121,175.943 246.121,167.943 215.121,167.943 215.121,156.943 
			246.121,156.943 246.121,148.943 215.121,148.943 215.121,138.943 246.121,138.943 246.121,130.943 215.508,130.943 		"/>
		<polygon id="XMLID_64_" style="fill:#FFFFFF;" points="290.658,152.616 278.823,127.132 258.144,175.367 265.497,178.519 
			279.115,146.754 290.957,172.255 301.641,147.284 314.693,178.486 322.074,175.399 301.723,126.751 		"/>
		<path id="XMLID_67_" style="fill:#FFFFFF;" d="M467.441,133.943h-45.253l-0.594,35h-3.266l-21.178-36.804l-21.44,36.804h-32.59
			v-40h-8v48h45.188l16.8-28.838l16.594,28.838h52.93l-19.006-22.93L467.441,133.943z M449.61,168.943h-20.015l0.458-27H448.3
			l-11.454,11.602L449.61,168.943z"/>
	</g>
</g>
<g id="S" style="display:none;">
	<g id="Layer_10" style="display:inline;">
		<polygon id="XMLID_287_" style="fill:#5C7148;" points="97.121,197.471 97.121,107.943 35.686,197.404 		"/>
		<polygon id="XMLID_79_" style="fill:#88B14B;" points="97.121,196.471 97.121,107.943 157.366,196.943 		"/>
	</g>
	<g id="Layer_11_copy_2" style="display:inline;">
		<g id="XMLID_34_">
			<path id="XMLID_37_" style="fill:#5587A2;" d="M97.121,129.255v-5.846c-5.819,0.418-12.847,3.313-19.12,12.527
				C81.577,130.669,89.322,128.787,97.121,129.255z"/>
			<path id="XMLID_36_" style="fill:#5587A2;" d="M97.121,164.449c-15.284-2.225-34.443-6.079-41.226,3.851
				c-6.396,9.387-2.842,2.701-13.542,18.454c0,0,12.226-16.522,54.768-6.811V164.449z"/>
			<path id="XMLID_35_" style="fill:#5587A2;" d="M97.121,149.096v-7.046c-10.829-0.39-19.618,0.208-19.12-6.114
				C71.29,145.761,84.2,147.128,97.121,149.096z"/>
		</g>
	</g>
	<g id="Layer_11_copy" style="display:inline;">
		<g id="XMLID_45_">
			<path id="XMLID_49_" style="fill:#96D6E0;" d="M97.121,129.255c8.526,0.512,17.115,3.835,20.387,8.645
				c-2.39-3.518-8.082-11.876-8.082-11.876s-5.268-3.12-12.306-2.615V129.255z"/>
			<path id="XMLID_48_" style="fill:#96D6E0;" d="M129.182,155.054c-7.588-11.151-20.908-12.602-32.062-13.004v7.046
				c10.494,1.598,20.994,3.592,20.995,10.836c0,6.959-9.379,6.209-20.995,4.518v15.493
				C133.262,179.943,136.215,165.388,129.182,155.054z"/>
		</g>
	</g>
</g>
<g id="poly" style="display:none;">
	<polygon id="XMLID_28_" style="display:inline;fill:#5C7148;" points="301.015,158.018 283.981,197.943 317.384,197.943 	"/>
	<polygon id="XMLID_16_" style="display:inline;fill:#88B14B;" points="278.969,157.943 260.821,197.943 296.544,197.943 	"/>
	<polygon id="XMLID_15_" style="display:inline;fill:#88B14B;" points="397,156.713 372.055,197.943 419.903,197.91 	"/>
	<polygon id="XMLID_14_" style="display:inline;fill:#5C7148;" points="400.794,169.152 384.981,195.943 415.84,195.943 	"/>
	<polygon id="XMLID_13_" style="display:inline;fill:#F6D257;" points="204.121,130.9 204.121,175.943 235.253,153.421 	"/>
</g>
<g id="Layer_9" style="display:none;">
	<polygon id="XMLID_74_" style="display:inline;fill:#D14476;" points="536.304,326.487 517.121,315.88 517.121,337.976 	"/>
	<polygon id="XMLID_76_" style="display:inline;fill:#D14476;" points="536.304,364.487 517.121,353.88 517.121,375.976 	"/>
	<g id="XMLID_43_" style="display:inline;">
		<path id="XMLID_44_" style="fill:#EFCEC5;" d="M478.731,328.709h-7.209v6.06h-1.928v-6.06h-7.178v-8.87h7.178v-3.374h1.928v3.374
			h7.209V328.709z M469.594,326.853v-5.168h-5.229v5.168H469.594z M476.792,326.853v-5.168h-5.271v5.168H476.792z"/>
		<path id="XMLID_51_" style="fill:#EFCEC5;" d="M500.817,333.282l-1.127,1.662c-3.187-1.17-5.876-2.618-8.07-4.348
			c-2.372,1.88-5.124,3.277-8.254,4.193l-1.047-1.672c3.363-1.079,5.961-2.348,7.793-3.804c-1.613-1.668-2.97-3.944-4.07-6.829
			l1.805-0.729c1.025,2.783,2.27,4.875,3.732,6.275c1.524-1.482,2.744-3.708,3.66-6.675h-12.775v-1.876h8.028
			c-0.417-0.93-0.916-1.812-1.497-2.646l1.959-0.625c0.73,1.196,1.284,2.287,1.66,3.271h8.08v1.876h-3.383
			c-1.054,3.438-2.458,6.091-4.215,7.957C494.894,330.756,497.467,332.079,500.817,333.282z"/>
	</g>
	<g id="XMLID_4_" style="display:inline;">
		<path id="XMLID_5_" style="fill:#EFCEC5;" d="M398.962,371.082v-14.448h14.784v2.464h-11.425v3.221h6.664v2.464h-6.664v3.584
			h11.564v2.716H398.962z"/>
		<path id="XMLID_7_" style="fill:#EFCEC5;" d="M418.973,371.082v-10.113h1.607l7.115,5.958c0.509,0.432,0.895,0.797,1.156,1.098
			c-0.065-0.94-0.099-1.522-0.099-1.744v-5.312h2.117v10.113h-1.607l-7.428-6.252c-0.314-0.262-0.596-0.536-0.844-0.823
			c0.065,0.653,0.099,1.188,0.099,1.606v5.469H418.973z"/>
		<path id="XMLID_12_" style="fill:#EFCEC5;" d="M445.511,362.772h-7.35v6.409h7.35v-2.254h-3.841v-1.725h6.135v3.488
			c0,0.941-0.177,1.575-0.529,1.901c-0.354,0.327-1.013,0.49-1.979,0.49h-6.978c-0.968,0-1.627-0.163-1.98-0.49
			c-0.353-0.326-0.528-0.96-0.528-1.901v-5.331c0-0.94,0.176-1.574,0.528-1.901c0.354-0.326,1.013-0.489,1.98-0.489h6.978
			c0.94,0,1.594,0.16,1.96,0.479c0.365,0.32,0.549,0.925,0.549,1.813v0.235l-2.294,0.411V362.772z"/>
		<path id="XMLID_30_" style="fill:#EFCEC5;" d="M452.783,371.082v-10.113h2.353v8.212h7.585v1.901H452.783z"/>
		<path id="XMLID_32_" style="fill:#EFCEC5;" d="M466.169,371.082v-10.113h2.353v10.113H466.169z"/>
		<path id="XMLID_38_" style="fill:#EFCEC5;" d="M482.457,362.733h-6.645v2.176h6.325c0.969,0,1.634,0.163,1.994,0.49
			c0.359,0.326,0.54,0.96,0.54,1.9v1.392c0,0.941-0.18,1.575-0.539,1.901c-0.359,0.327-1.022,0.49-1.989,0.49h-6.253
			c-0.967,0-1.63-0.163-1.989-0.49c-0.359-0.326-0.539-0.96-0.539-1.901v-0.274l2.078-0.431v1.195h7.153v-2.312h-6.311
			c-0.968,0-1.627-0.163-1.98-0.49c-0.353-0.326-0.528-0.96-0.528-1.901v-1.117c0-0.94,0.176-1.574,0.528-1.901
			c0.354-0.326,1.013-0.489,1.98-0.489h5.742c0.928,0,1.578,0.156,1.95,0.47c0.373,0.313,0.559,0.896,0.559,1.745v0.215l-2.077,0.49
			V362.733z"/>
		<path id="XMLID_40_" style="fill:#EFCEC5;" d="M489.552,371.082v-10.113h2.353v3.92h7.35v-3.92h2.372v10.113h-2.372v-4.352h-7.35
			v4.352H489.552z"/>
	</g>
</g>
</svg>
