<?xml version="1.0" encoding="iso-8859-1"?>
<!-- Generator: Adobe Illustrator 19.0.0, SVG Export Plug-In . SVG Version: 6.00 Build 0)  -->
<svg version="1.1" id="Layer_5" opacity="0.25" xmlns="http://www.w3.org/2000/svg" xmlns:xlink="http://www.w3.org/1999/xlink"
	 x="0px" y="0px" viewBox="0 0 1024 1993.507" style="enable-background:new 0 0 1024 1993.507;" xml:space="preserve">
<g id="XMLID_68_">
	<polygon id="XMLID_117_" style="fill:#C7B299;" points="77.263,375.224 40.977,448.951 -0.928,432.429 	"/>
	<polygon id="XMLID_127_" style="fill:#534741;" points="135.481,427.772 135.481,464.352 102.209,453.004 	"/>
	<polygon id="XMLID_130_" style="fill:#534741;" points="102.209,453.004 102.209,406.456 77.263,375.224 	"/>
	<polygon id="XMLID_131_" style="fill:#76909F;" points="102.209,406.456 135.481,427.772 134.02,394.361 	"/>
	<polygon id="XMLID_122_" style="fill:#E9BBBD;" points="77.263,375.224 -0.963,394.361 40.977,358.14 	"/>
	<polygon id="XMLID_128_" style="fill:#E9BBBD;" points="162.71,486.946 221.442,462.078 213.373,513.242 	"/>
	<polygon id="XMLID_123_" style="fill:#D38792;" points="102.209,453.004 40.977,448.951 77.263,375.224 	"/>
	<polygon id="XMLID_118_" style="fill:#76909F;" points="77.263,375.224 -0.928,432.429 -0.963,394.361 	"/>
	<polygon id="XMLID_125_" style="fill:#534741;" points="102.209,453.004 35.509,473.578 40.977,448.951 	"/>
	<polygon id="XMLID_129_" style="fill:#E8E5D1;" points="165.884,427.772 135.481,427.772 134.02,394.361 	"/>
	<polygon id="XMLID_120_" style="fill:#C65F6F;" points="40.977,448.951 35.509,473.578 -0.928,432.429 	"/>
	<polygon id="XMLID_126_" style="fill:#E9BBBD;" points="135.481,427.772 102.209,453.004 102.209,406.456 	"/>
	<polygon id="XMLID_133_" style="fill:#F6D257;" points="288.171,406.988 275.354,447.123 245.711,410.708 	"/>
	<polygon id="XMLID_121_" style="fill:#C65F6F;" points="165.884,427.772 135.481,464.352 135.481,427.772 	"/>
	<polygon id="XMLID_89_" style="fill:#76909F;" points="323.104,487.66 345.115,465.895 317.268,459.496 	"/>
</g>
<g id="XMLID_55_">
	<polygon id="XMLID_71_" style="fill:#E9BBBD;" points="921.563,795.614 962.346,672.725 1023.596,696.423 	"/>
	<polygon id="XMLID_70_" style="fill:#F6D257;" points="824.763,718.481 824.423,665.15 886.037,681.386 	"/>
	<polygon id="XMLID_69_" style="fill:#534741;" points="886.037,681.386 873.47,749.249 921.563,795.614 	"/>
	<polygon id="XMLID_67_" style="fill:#534741;" points="873.47,749.249 824.763,718.481 827.204,767.179 	"/>
	<polygon id="XMLID_66_" style="fill:#534741;" points="921.563,795.614 1024,751.923 963.191,805.121 	"/>
	<polygon id="XMLID_65_" style="fill:#E9BBBD;" points="572.574,854.373 660.438,823.93 643.706,897.571 	"/>
	<polygon id="XMLID_64_" style="fill:#D14476;" points="886.037,681.386 962.346,672.725 921.563,795.614 	"/>
	<polygon id="XMLID_63_" style="fill:#594A42;" points="921.563,795.614 1023.596,696.423 1024,751.923 	"/>
	<polygon id="XMLID_62_" style="fill:#0C4C8A;" points="886.037,681.386 970.089,636.769 962.346,672.725 	"/>
	<polygon id="XMLID_61_" style="fill:#5587A2;" points="780.436,718.764 824.763,718.481 827.204,767.179 	"/>
	<polygon id="XMLID_60_" style="fill:#C65F6F;" points="962.346,672.725 970.089,636.769 1023.596,696.423 	"/>
	<polygon id="XMLID_59_" style="fill:#D38792;" points="824.763,718.481 886.037,681.386 873.47,749.249 	"/>
	<polygon id="XMLID_58_" style="fill:#594A42;" points="677.156,791.379 695.798,732.849 739.058,785.906 	"/>
	<polygon id="XMLID_57_" style="fill:#C65F6F;" points="780.436,718.764 824.423,665.15 824.763,718.481 	"/>
	<polygon id="XMLID_56_" style="fill:#76909F;" points="607.224,645.885 565.123,662.145 598.609,686.925 	"/>
</g>
<g id="XMLID_90_">
	<polygon id="XMLID_105_" style="fill:#C7B299;" points="826.98,1699.321 920.189,1891.8 1029.525,1849.498 	"/>
	<polygon id="XMLID_104_" style="fill:#534741;" points="674.593,1835.113 673.986,1930.313 760.766,1901.331 	"/>
	<polygon id="XMLID_103_" style="fill:#534741;" points="760.766,1901.331 761.539,1780.191 826.98,1699.321 	"/>
	<polygon id="XMLID_102_" style="fill:#76909F;" points="761.539,1780.191 674.593,1835.113 678.95,1748.185 	"/>
	<polygon id="XMLID_101_" style="fill:#E9BBBD;" points="826.98,1699.321 1030.246,1750.426 921.697,1655.464 	"/>
	<polygon id="XMLID_100_" style="fill:#E9BBBD;" points="281.132,1759.383 404.531,1802.137 381.032,1698.714 	"/>
	<polygon id="XMLID_99_" style="fill:#D38792;" points="760.766,1901.331 920.189,1891.8 826.98,1699.321 	"/>
	<polygon id="XMLID_98_" style="fill:#76909F;" points="826.98,1699.321 1029.525,1849.498 1030.246,1750.426 	"/>
	<polygon id="XMLID_97_" style="fill:#534741;" points="760.766,1901.331 934.011,1955.984 920.189,1891.8 	"/>
	<polygon id="XMLID_96_" style="fill:#F6D257;" points="595.467,1834.608 674.593,1835.113 678.95,1748.185 	"/>
	<polygon id="XMLID_95_" style="fill:#C65F6F;" points="920.189,1891.8 934.011,1955.984 1029.525,1849.498 	"/>
	<polygon id="XMLID_94_" style="fill:#E9BBBD;" points="674.593,1835.113 760.766,1901.331 761.539,1780.191 	"/>
	<polygon id="XMLID_93_" style="fill:#594A42;" points="531.866,1736.062 569.031,1821.177 613.351,1750.426 	"/>
	<polygon id="XMLID_92_" style="fill:#C65F6F;" points="595.467,1834.608 673.986,1930.313 674.593,1835.113 	"/>
	<polygon id="XMLID_91_" style="fill:#76909F;" points="481.672,1859.775 422.544,1836.94 469.573,1802.137 	"/>
</g>
<g id="XMLID_26_">
	<polygon id="XMLID_151_" style="fill:#DD959D;" points="938.634,173.794 978.501,253.661 1024.346,235.668 	"/>
	<polygon id="XMLID_150_" style="fill:#594A42;" points="848.284,232.379 880.931,277.642 891.331,245.217 	"/>
	<polygon id="XMLID_149_" style="fill:#594A42;" points="921.994,257.411 921.891,199.478 938.634,173.794 	"/>
	<polygon id="XMLID_148_" style="fill:#726658;" points="1024.016,187.91 978.325,155.202 1023.98,167.778 	"/>
	<polygon id="XMLID_147_" style="fill:#E9BBBD;" points="938.634,173.794 1024.016,187.91 978.325,155.202 	"/>
	<polygon id="XMLID_146_" style="fill:#D14476;" points="889.702,343.522 934.263,334.452 902.229,302.878 	"/>
	<polygon id="XMLID_152_" style="fill:#C2B59B;" points="848.284,232.379 891.331,245.217 873.498,199.478 	"/>
	<polygon id="XMLID_145_" style="fill:#88B14B;" points="803.481,220.541 825.739,204.416 800.695,196.167 	"/>
	<polygon id="XMLID_144_" style="fill:#9B8579;" points="921.994,257.411 978.501,253.661 938.634,173.794 	"/>
	<polygon id="XMLID_143_" style="fill:#9BA9B2;" points="938.634,173.794 1024.346,235.668 1024.016,187.91 	"/>
	<polygon id="XMLID_142_" style="fill:#0C4C8A;" points="921.994,257.411 978.56,287.057 978.501,253.661 	"/>
	<polygon id="XMLID_141_" style="fill:#9BA9B2;" points="873.498,199.478 891.331,245.217 921.891,199.478 	"/>
	<polygon id="XMLID_140_" style="fill:#594A42;" points="978.501,253.661 978.56,287.057 1024.346,235.668 	"/>
	<polygon id="XMLID_139_" style="fill:#F6D257;" points="891.331,245.217 921.994,257.411 921.891,199.478 	"/>
	<polygon id="XMLID_138_" style="fill:#D38792;" points="880.931,277.642 921.994,257.411 891.331,245.217 	"/>
</g>
<g id="XMLID_72_">
	<polygon id="XMLID_88_" style="fill:#DD959D;" points="190.296,1082.162 101.795,1261.226 0,1220.895 	"/>
	<polygon id="XMLID_87_" style="fill:#594A42;" points="390.914,1213.488 318.438,1314.972 295.34,1242.277 	"/>
	<polygon id="XMLID_86_" style="fill:#594A42;" points="227.259,1269.624 227.477,1139.741 190.296,1082.162 	"/>
	<polygon id="XMLID_85_" style="fill:#726658;" points="0.724,1113.826 102.165,1040.488 0.8,1068.691 	"/>
	<polygon id="XMLID_84_" style="fill:#E9BBBD;" points="190.296,1082.162 0.724,1113.826 102.165,1040.488 	"/>
	<polygon id="XMLID_83_" style="fill:#D14476;" points="309.006,1462.672 210.065,1442.346 281.185,1371.553 	"/>
	<polygon id="XMLID_82_" style="fill:#C2B59B;" points="390.914,1213.488 295.34,1242.277 334.924,1139.731 	"/>
	<polygon id="XMLID_81_" style="fill:#88B14B;" points="449.666,1175.872 400.242,1139.725 455.848,1121.226 	"/>
	<polygon id="XMLID_80_" style="fill:#9B8579;" points="227.259,1269.624 101.795,1261.226 190.296,1082.162 	"/>
	<polygon id="XMLID_79_" style="fill:#0C4C8A;" points="190.296,1082.162 0,1220.895 0.724,1113.826 	"/>
	<polygon id="XMLID_77_" style="fill:#0C4C8A;" points="227.259,1269.624 101.67,1336.099 101.795,1261.226 	"/>
	<polygon id="XMLID_76_" style="fill:#9BA9B2;" points="334.924,1139.731 295.34,1242.277 227.477,1139.741 	"/>
	<polygon id="XMLID_75_" style="fill:#594A42;" points="101.795,1261.226 101.67,1336.099 0,1220.895 	"/>
	<polygon id="XMLID_74_" style="fill:#F6D257;" points="295.34,1242.277 227.259,1269.624 227.477,1139.741 	"/>
	<polygon id="XMLID_73_" style="fill:#D38792;" points="318.438,1314.972 227.259,1269.624 295.34,1242.277 	"/>
</g>
<g id="XMLID_78_">
	<polygon id="XMLID_136_" style="fill:#E9BBBD;" points="142.842,159.642 174.722,144.919 174.722,177.553 	"/>
	<polygon id="XMLID_137_" style="fill:#76909F;" points="217.442,130.096 197.243,122.019 199.523,140.073 	"/>
	<polygon id="XMLID_135_" style="fill:#C2B59B;" points="102.217,124.627 155.449,106.137 133.247,137.902 	"/>
	<polygon id="XMLID_132_" style="fill:#C65F6F;" points="102.18,82.493 128.833,78.274 102.217,124.627 	"/>
	<polygon id="XMLID_134_" style="fill:#76909F;" points="102.217,124.627 128.833,78.274 155.449,106.137 	"/>
</g>
</svg>
