<?xml version="1.0" encoding="iso-8859-1"?>
<!-- Generator: Adobe Illustrator 19.0.0, SVG Export Plug-In . SVG Version: 6.00 Build 0)  -->
<svg version="1.1" id="icon-facebook2" xmlns="http://www.w3.org/2000/svg" xmlns:xlink="http://www.w3.org/1999/xlink" x="0px"
	 y="0px" viewBox="-619 141 40 400" style="enable-background:new -619 141 40 400;" xml:space="preserve">
<rect x="-619" y="501" style="display:none;fill:#F6D257;" width="40" height="40"/>
<path style="fill:#FFFFFF;" d="M-584,146v32.5h-26.25c-2.071,0-3.75-1.679-3.75-3.75s1.679-3.75,3.75-3.75h23.75v-30h-25
	c-2.75,0-5,2.25-5,5v30c0,2.75,2.25,5,5,5h30v-35H-584z"/>
<path style="fill:#FFFFFF;" d="M-610.248,173.5L-610.248,173.5c-0.001,0-0.001,0-0.002,0c-0.69,0-1.25,0.56-1.25,1.25
	s0.56,1.25,1.25,1.25c0.001,0,0.001,0,0.002,0l0,0h23.746v-2.5C-586.502,173.5-610.248,173.5-610.248,173.5z"/>
<path style="fill:#FFFFFF;" d="M-581.353,217.602v-2.398h-1.353v-11.21c-1-0.65-0.473-1.176,0.176-1.176l0,0
	c0.65,0,1.176-0.527,1.176-1.176v-0.045c0-0.65-0.527-1.176-1.176-1.176h-4.706c-0.65,0-1.176,0.527-1.176,1.176v0.045
	c0,0.65,0.527,1.176,1.176,1.176l0,0c0.65,0,1.176,0.527,0.176,1.176v11.21h-5.059v-11.21c-1-0.65-0.473-1.176,0.177-1.176l0,0
	c0.65,0,1.176-0.527,1.176-1.176v-0.045c0-0.65-0.527-1.176-1.176-1.176h-4.706c-0.65,0-1.177,0.527-1.177,1.176v0.045
	c0,0.65,0.527,1.176,1.177,1.176l0,0c0.65,0,1.176,0.527,0.176,1.176v11.21h-5.059v-11.21c-1-0.65-0.473-1.176,0.176-1.176l0,0
	c0.65,0,1.177-0.527,1.177-1.176v-0.045c0-0.65-0.527-1.176-1.177-1.176h-4.706c-0.65,0-1.176,0.527-1.176,1.176v0.045
	c0,0.65,0.527,1.176,1.176,1.176l0,0c0.65,0,1.177,0.527,0.177,1.176v11.21h-5.059v-11.21c-1-0.65-0.473-1.176,0.176-1.176l0,0
	c0.65,0,1.176-0.527,1.176-1.176v-0.045c0-0.65-0.527-1.176-1.176-1.176h-4.706c-0.65,0-1.176,0.527-1.176,1.176v0.045
	c0,0.65,0.527,1.176,1.176,1.176l0,0c0.65,0,1.176,0.527,0.176,1.176v11.21h-1.353v2.398H-619V220h40v-2.398H-581.353z"/>
<path style="fill:#FFFFFF;" d="M-599,182.728l20,13.813v2.382h-40v-2.382L-599,182.728z"/>
<path style="fill:#FFFFFF;" d="M-583.148,234.948c-0.868-1.183-2.077-2.566-3.405-3.895c-1.328-1.329-2.711-2.538-3.895-3.405
	C-592.463,226.171-593.44,226-594,226h-14.375c-1.723,0-3.125,1.402-3.125,3.125v28.75c0,1.723,1.402,3.125,3.125,3.125h23.75
	c1.723,0,3.125-1.402,3.125-3.125V238.5C-581.5,237.94-581.671,236.963-583.148,234.948z M-588.321,232.821
	c1.199,1.199,2.141,2.281,2.835,3.179h-6.014v-6.014C-590.602,230.681-589.52,231.622-588.321,232.821L-588.321,232.821z
	 M-584,257.875c0,0.339-0.286,0.625-0.625,0.625h-23.75c-0.339,0-0.625-0.286-0.625-0.625v-28.75c0-0.339,0.286-0.625,0.625-0.625
	c0,0,14.373,0,14.375,0v8.75c0,0.69,0.56,1.25,1.25,1.25h8.75V257.875z"/>
<path style="fill:#FFFFFF;" d="M-595.448,222.648C-597.463,221.171-598.44,221-599,221h-14.375c-1.723,0-3.125,1.402-3.125,3.125
	v28.75c0,1.509,1.075,2.772,2.5,3.062v-31.812c0-0.339,0.286-0.625,0.625-0.625h19.019
	C-594.733,223.191-595.099,222.904-595.448,222.648z"/>
<path style="fill:#FFFFFF;" d="M-579.259,283.472c0.313,2.167,0.516,5.132-0.456,6.267c-1.607,1.877-11.786,1.877-11.786-1.877
	c0-1.891,1.674-3.13,0.067-5.007c-1.581-1.846-4.415-1.876-7.567-1.877c-3.152-0.001-5.986,0.03-7.567,1.877
	c-1.607,1.877,0.067,3.116,0.067,5.007c0,3.753-10.179,3.753-11.786,1.877c-0.972-1.135-0.768-4.1-0.456-6.267
	c0.241-1.447,0.849-3.008,2.795-5l0,0c2.919-2.724,7.338-4.951,16.79-4.999v-0.001c0.052,0,0.104,0,0.156,0.001
	s0.104-0.001,0.156-0.001v0.001c9.452,0.048,13.871,2.274,16.79,4.999l0,0c1.946,1.992,2.554,3.553,2.795,5H-579.259z"/>
<path style="fill:#FFFFFF;" d="M-599,301c-7.378,0-13.358,5.596-13.358,12.5C-612.358,326-599,341-599,341s13.358-15,13.358-27.5
	C-585.642,306.596-591.622,301-599,301z M-599,321c-4.426,0-7.755-3.358-7.755-7.5s3.328-7.5,7.755-7.5s7.677,3.358,7.677,7.5
	S-594.574,321-599,321z"/>
<path style="fill:#FFFFFF;" d="M-592.333,370.202v-1.833c2.448-1.38,4.444-4.819,4.444-8.258c0-5.523,0-10-6.667-10
	c-6.667,0-6.667,4.477-6.667,10c0,3.44,1.996,6.878,4.444,8.258v1.833c-7.539,0.616-13.333,4.32-13.333,8.798H-579
	C-579,374.522-584.795,370.818-592.333,370.202z"/>
<path style="fill:#FFFFFF;" d="M-607.639,371.06c1.921-1.255,4.308-2.21,6.937-2.792c-0.523-0.618-0.996-1.307-1.406-2.049
	c-1.056-1.918-1.614-4.03-1.614-6.108c0-2.988,0-5.81,1.062-8.116c1.031-2.24,2.886-3.628,5.529-4.149
	c-0.588-2.656-2.151-4.401-6.313-4.401c-6.667,0-6.667,4.477-6.667,10c0,3.44,1.996,6.878,4.444,8.258v1.833
	c-7.539,0.616-13.333,4.32-13.333,8.798h9.688C-608.808,371.885-608.25,371.46-607.639,371.06z"/>
<path style="fill:#FFFFFF;" d="M-596.959,381.101c-12.649-1.252-23.192,9.29-21.939,21.939c0.927,9.36,8.498,16.931,17.858,17.858
	c12.649,1.252,23.192-9.29,21.939-21.939C-580.028,389.599-587.599,382.028-596.959,381.101z M-599,418.5
	c-2.459,0-4.8-0.508-6.923-1.424l9.107-10.246c0.204-0.229,0.316-0.525,0.316-0.831v-3.749c0-0.673-0.531-1.255-1.204-1.25
	c-4.428,0.032-9.116-4.588-9.162-4.634c-0.234-0.234-0.552-0.366-0.884-0.366h-5c-0.69,0-1.25,0.56-1.25,1.25v7.5
	c0,0.474,0.268,0.906,0.691,1.118l4.309,2.155v7.339c-4.533-3.162-7.5-8.415-7.5-14.362c0-2.684,0.605-5.227,1.685-7.5h3.165
	c1.228,0,2.405-0.488,3.273-1.356l3.395-3.395c0.628-0.628,0.981-1.48,0.981-2.369v-2.154c1.584-0.472,3.262-0.726,5-0.726
	c2.75,0,5.352,0.635,7.667,1.766c-0.162,0.137-0.319,0.28-0.471,0.431c-1.417,1.417-2.197,3.3-2.197,5.303s0.78,3.887,2.197,5.303
	c1.423,1.423,3.329,2.198,5.298,2.198c0.124,0,0.248-0.003,0.372-0.009c0.54,2.024,1.514,7.291-0.328,14.544
	c-0.017,0.068-0.027,0.136-0.033,0.204C-589.672,416.485-594.1,418.5-599,418.5L-599,418.5z"/>
<path style="fill:#FFFFFF;" d="M-585.668,421h-26.665c-3.667,0-6.668,2.999-6.668,6.666v26.666c0,3.667,3,6.667,6.668,6.667h26.665
	c3.669,0,6.667-3,6.667-6.667v-26.666c0-3.667-2.998-6.666-6.668-6.666L-585.668,421z M-609,431h20c0.357,0,0.703,0.077,1.021,0.221
	L-599,444.079l-11.021-12.858C-609.703,431.078-609.357,431-609,431z M-611.5,448.5v-15c0-0.052,0.002-0.104,0.005-0.156
	l7.331,8.552l-7.25,7.25C-611.47,448.938-611.5,448.721-611.5,448.5z M-589,451h-20c-0.221,0-0.438-0.03-0.646-0.086l7.114-7.114
	l3.532,4.121l3.532-4.121l7.114,7.114C-588.563,450.97-588.779,451-589,451z M-586.5,448.5c0,0.221-0.03,0.438-0.086,0.646
	l-7.25-7.25l7.331-8.552c0.003,0.052,0.005,0.104,0.005,0.156C-586.5,433.5-586.5,448.5-586.5,448.5z"/>
<path style="fill:#FFFFFF;" d="M-582.75,461h-32.5c-2.063,0-3.75,1.688-3.75,3.75v32.5c0,2.063,1.688,3.75,3.75,3.75h32.5
	c2.063,0,3.75-1.688,3.75-3.75v-32.5C-579,462.686-580.688,461-582.75,461z M-598.703,496c-8.289,0-15-6.711-15-15s6.711-15,15-15
	c4.047,0,7.438,1.477,10.047,3.922l-4.07,3.922c-1.117-1.07-3.063-2.313-5.977-2.313c-5.125,0-9.297,4.242-9.297,9.469
	c0,5.227,4.18,9.469,9.297,9.469c5.938,0,8.164-4.266,8.508-6.469h-8.508v-5.141h14.164c0.125,0.75,0.234,1.5,0.234,2.484
	c0.008,8.57-5.734,14.656-14.398,14.656V496z"/>
<path style="fill:#FFFFFF;" d="M-582.754,501h-32.5c-2.063,0-3.75,1.688-3.75,3.75v32.5c0,2.063,1.688,3.75,3.75,3.75h16.25v-17.5
	h-5v-5h5V516c0-4.133,3.367-7.5,7.5-7.5h5v5h-5c-1.375,0-2.5,1.125-2.5,2.5v2.5h7.5l-1.25,5h-6.25V541h11.25
	c2.063,0,3.75-1.688,3.75-3.75v-32.5C-579.004,502.686-580.692,501-582.754,501z"/>
</svg>
