<?xml version="1.0" encoding="iso-8859-1"?>
<!-- Generator: Adobe Illustrator 19.0.0, SVG Export Plug-In . SVG Version: 6.00 Build 0)  -->
<svg version="1.1" id="Layer_1" xmlns="http://www.w3.org/2000/svg" xmlns:xlink="http://www.w3.org/1999/xlink" x="0px" y="0px"
	 viewBox="0 0 960 560" style="enable-background:new 0 0 960 560;" xml:space="preserve">
<rect id="XMLID_19_" x="270" y="149.077" style="fill:#00A99D;" width="292" height="202.923"/>
<polyline id="XMLID_26_" style="fill:none;stroke:#333333;stroke-width:5;stroke-miterlimit:10;" points="548,227.013 547.5,349.5 
	574.728,349.5 592.512,312.156 610.497,349.5 637.075,349.5 626.323,329.464 637.075,312.5 609,312.5 "/>
<g id="XMLID_3_">
	
		<line id="XMLID_7_" style="fill:none;stroke:#005CA2;stroke-width:5;stroke-miterlimit:10;" x1="487" y1="239.5" x2="562" y2="239.5"/>
	
		<line id="XMLID_8_" style="fill:none;stroke:#005CA2;stroke-width:5;stroke-miterlimit:10;" x1="487" y1="249.5" x2="562" y2="249.5"/>
	
		<line id="XMLID_9_" style="fill:none;stroke:#005CA2;stroke-width:5;stroke-miterlimit:10;" x1="487" y1="259.5" x2="562" y2="259.5"/>
	
		<line id="XMLID_10_" style="fill:none;stroke:#005CA2;stroke-width:5;stroke-miterlimit:10;" x1="487" y1="269.5" x2="562" y2="269.5"/>
</g>
<path id="XMLID_23_" style="fill:#005CA2;" d="M449.54,236.958c0.214,0,0.46,0.024,0.46,0.032V237h70v35v0.039L520.194,352h-30
	l0.009-79.884c0,0-36.894-0.061-40-0.058c-9.375-0.023-18.253-7.687-18.253-17.43C431.949,244.885,439.797,236.958,449.54,236.958z"
	/>
<polygon id="XMLID_1_" style="fill:#009245;" points="270.147,352 387.52,148.705 504.892,352 "/>
<polygon id="XMLID_25_" style="fill:#006837;" points="387.6,149.077 386.528,352 504.312,352 "/>
<g id="XMLID_22_">
	
		<line id="XMLID_30_" style="fill:none;stroke:#00A99D;stroke-width:5;stroke-miterlimit:10;" x1="387" y1="175.5" x2="462" y2="175.5"/>
	
		<line id="XMLID_29_" style="fill:none;stroke:#00A99D;stroke-width:5;stroke-miterlimit:10;" x1="387" y1="185.5" x2="462" y2="185.5"/>
	
		<line id="XMLID_28_" style="fill:none;stroke:#00A99D;stroke-width:5;stroke-miterlimit:10;" x1="387" y1="195.5" x2="462" y2="195.5"/>
	
		<line id="XMLID_24_" style="fill:none;stroke:#00A99D;stroke-width:5;stroke-miterlimit:10;" x1="387" y1="205.5" x2="462" y2="205.5"/>
</g>
<path id="XMLID_2_" style="fill:none;stroke:#29ABE2;stroke-miterlimit:10;" d="M0,323.391"/>
<ellipse id="XMLID_33_" style="display:none;fill:#29ABE2;" cx="438.657" cy="314.412" rx="38.571" ry="37.511"/>
<circle id="XMLID_5_" style="display:none;fill:#29ABE2;" cx="358.843" cy="254.508" r="27.506"/>
<line id="XMLID_4_" style="fill:none;stroke:#333333;stroke-width:5;stroke-miterlimit:10;" x1="360" y1="229.5" x2="548" y2="229.5"/>
<line id="XMLID_11_" style="fill:none;stroke:#333333;stroke-width:5;stroke-miterlimit:10;" x1="360" y1="279.5" x2="426" y2="279.5"/>
<g id="XMLID_6_" style="display:none;">
	
		<line id="XMLID_12_" style="display:inline;fill:none;stroke:#29ABE2;stroke-width:5;stroke-miterlimit:10;" x1="357" y1="289.5" x2="439" y2="289.5"/>
	
		<line id="XMLID_13_" style="display:inline;fill:none;stroke:#29ABE2;stroke-width:5;stroke-miterlimit:10;" x1="357" y1="299.5" x2="439" y2="299.5"/>
	
		<line id="XMLID_14_" style="display:inline;fill:none;stroke:#29ABE2;stroke-width:5;stroke-miterlimit:10;" x1="357" y1="309.5" x2="439" y2="309.5"/>
	
		<line id="XMLID_15_" style="display:inline;fill:none;stroke:#29ABE2;stroke-width:5;stroke-miterlimit:10;" x1="357" y1="319.5" x2="439" y2="319.5"/>
	
		<line id="XMLID_16_" style="display:inline;fill:none;stroke:#29ABE2;stroke-width:5;stroke-miterlimit:10;" x1="357" y1="329.5" x2="439" y2="329.5"/>
	
		<line id="XMLID_17_" style="display:inline;fill:none;stroke:#29ABE2;stroke-width:5;stroke-miterlimit:10;" x1="357" y1="339.5" x2="439" y2="339.5"/>
</g>
<path id="XMLID_35_" style="fill:#333333;" d="M425.657,276.902c-10.175,0-19.424,3.838-26.316,10.098H426v5h-31.274
	c-1.208,1.574-2.285,3.248-3.231,5H426v5h-36.743c-0.584,1.62-1.062,3.287-1.415,5H426v5h-38.827
	c-0.052,0.798-0.088,1.601-0.088,2.412c0,0.871,0.042,1.732,0.102,2.588H426v5h-38.124c0.362,1.713,0.849,3.381,1.442,5H426v5
	h-34.413c0.959,1.754,2.055,3.426,3.278,5H426v5h-26.47c6.872,6.158,16.046,9.923,26.127,9.923
	c21.302,0,38.571-16.794,38.571-37.511C464.228,293.696,446.959,276.902,425.657,276.902z"/>
<line id="XMLID_18_" style="fill:none;stroke:#333333;stroke-width:10;stroke-miterlimit:10;" x1="270" y1="347" x2="426" y2="347"/>
<path id="XMLID_20_" style="fill:#333333;" d="M360,252h27.231c-0.155-1.718-0.469-3.388-0.925-5H360v-5h24.343
	c-0.914-1.787-2.011-3.466-3.278-5H360v-9.998c-15,0-27.506,12.315-27.506,27.506c0,15.191,12.506,27.506,27.506,27.506V272h21.063
	c1.267-1.534,2.365-3.213,3.279-5H360v-5h26.305c0.456-1.612,0.771-3.282,0.926-5H360V252z"/>
<path id="XMLID_31_" style="fill:#FBB03B;" d="M270,188h27.231c-0.155-1.718-0.469-3.388-0.925-5H270v-5h24.343
	c-0.914-1.787-2.011-3.466-3.278-5H270v-9.998c-15,0-27.506,12.315-27.506,27.506c0,15.191,12.506,27.506,27.506,27.506V208h21.063
	c1.267-1.534,2.365-3.213,3.279-5H270v-5h26.305c0.456-1.612,0.771-3.282,0.926-5H270V188z"/>
<path id="XMLID_32_" style="fill:#FFFFFF;" d="M563,188h27.231c-0.155-1.718-0.469-3.388-0.925-5H563v-5h24.343
	c-0.914-1.787-2.011-3.466-3.278-5H563v-9.998c-15,0-27.506,12.315-27.506,27.506c0,15.191,12.506,27.506,27.506,27.506V208h21.063
	c1.267-1.534,2.365-3.213,3.279-5H563v-5h26.305c0.456-1.612,0.771-3.282,0.926-5H563V188z"/>
<path id="XMLID_27_" style="fill:#4D4D4D;" d="M572,237c9.682,0,17.53,7.818,17.53,17.5c0,9.682-7.849,17.5-17.53,17.5h69v-35H572z"
	/>
</svg>
