<?xml version="1.0" encoding="iso-8859-1"?>
<!-- Generator: Adobe Illustrator 19.0.0, SVG Export Plug-In . SVG Version: 6.00 Build 0)  -->
<svg version="1.1" id="Layer_1" xmlns="http://www.w3.org/2000/svg" xmlns:xlink="http://www.w3.org/1999/xlink" x="0px" y="0px"
	 viewBox="-389 201 500 400" style="enable-background:new -389 201 500 400;" xml:space="preserve">
<rect id="XMLID_91_" x="-389.527" y="461" style="fill:#5587A2;" width="500.054" height="40"/>
<g id="XMLID_249_">
	<path id="XMLID_277_" style="fill:#F6D257;" d="M-366.344,488.158v-16.43h16.813v2.802h-12.992v3.662h7.579v2.801h-7.579v4.076
		h13.151v3.089L-366.344,488.158L-366.344,488.158z"/>
	<path id="XMLID_275_" style="fill:#FFFFFF;" d="M-343.587,488.158v-11.502h1.828l8.091,6.776c0.579,0.49,1.017,0.907,1.315,1.248
		c-0.075-1.07-0.111-1.73-0.111-1.984v-6.041h2.407v11.502h-1.828l-8.447-7.11c-0.357-0.297-0.676-0.609-0.958-0.937
		c0.074,0.744,0.111,1.353,0.111,1.827v6.219h-2.408L-343.587,488.158L-343.587,488.158z"/>
	<path id="XMLID_273_" style="fill:#FFFFFF;" d="M-320.317,488.158l-6.642-11.502h3.054l4.658,8.314l4.436-8.314h2.675l-6.33,11.502
		H-320.317z"/>
	<path id="XMLID_271_" style="fill:#FFFFFF;" d="M-309.016,488.158v-11.502h2.675v11.502H-309.016z"/>
	<path id="XMLID_268_" style="fill:#FFFFFF;" d="M-300.458,488.158v-11.502h9.852c1.724,0,2.585,0.744,2.585,2.23v2.696
		c0,1.486-0.862,2.23-2.585,2.23h-1.515l5.305,4.346h-3.833l-4.636-4.346h-2.541v4.346L-300.458,488.158L-300.458,488.158z
		 M-291.81,478.618h-6.018v3.232h6.018c0.416,0,0.706-0.045,0.869-0.134c0.223-0.134,0.334-0.397,0.334-0.786v-1.392
		c0-0.389-0.112-0.65-0.334-0.786C-291.104,478.663-291.394,478.618-291.81,478.618z"/>
	<path id="XMLID_265_" style="fill:#FFFFFF;" d="M-282.827,479.376c0-1.07,0.201-1.791,0.602-2.162s1.151-0.558,2.251-0.558h8.47
		c1.099,0,1.85,0.187,2.251,0.558s0.602,1.092,0.602,2.162v6.063c0,1.07-0.201,1.791-0.602,2.162s-1.152,0.557-2.251,0.557h-8.47
		c-1.1,0-1.85-0.186-2.251-0.557s-0.602-1.092-0.602-2.162V479.376z M-280.152,485.996h8.827v-7.288h-8.827V485.996z"/>
	<path id="XMLID_263_" style="fill:#FFFFFF;" d="M-263.035,488.158v-11.502h1.828l8.091,6.776c0.579,0.49,1.017,0.907,1.315,1.248
		c-0.075-1.07-0.111-1.73-0.111-1.984v-6.041h2.407v11.502h-1.828l-8.447-7.11c-0.357-0.297-0.676-0.609-0.958-0.937
		c0.074,0.744,0.111,1.353,0.111,1.827v6.219h-2.408V488.158z"/>
	<path id="XMLID_261_" style="fill:#FFFFFF;" d="M-243.666,488.158v-11.502h2.162l5.417,6.954l5.305-6.954h2.14v11.502h-2.474v-7.11
		c0-0.283,0.03-0.691,0.089-1.226c-0.282,0.58-0.505,0.981-0.669,1.204l-4.324,5.751h-0.535l-4.324-5.773
		c-0.312-0.416-0.543-0.81-0.691-1.182c0.045,0.461,0.067,0.87,0.067,1.226v7.11H-243.666z"/>
	<path id="XMLID_259_" style="fill:#FFFFFF;" d="M-223.004,488.158v-11.502h11.769v1.962h-9.094v2.564h5.305v1.961h-5.305v2.853
		h9.206v2.162L-223.004,488.158L-223.004,488.158z"/>
	<path id="XMLID_257_" style="fill:#FFFFFF;" d="M-206.198,488.158v-11.502h1.828l8.091,6.776c0.579,0.49,1.017,0.907,1.315,1.248
		c-0.075-1.07-0.111-1.73-0.111-1.984v-6.041h2.407v11.502h-1.828l-8.447-7.11c-0.357-0.297-0.676-0.609-0.958-0.937
		c0.074,0.744,0.111,1.353,0.111,1.827v6.219h-2.408V488.158z"/>
	<path id="XMLID_255_" style="fill:#FFFFFF;" d="M-181.457,478.708v9.45h-2.675v-9.45h-5.283v-2.051h13.262v2.051H-181.457z"/>
	<path id="XMLID_252_" style="fill:#FFFFFF;" d="M-175.083,488.158l6.509-11.502h2.585l6.598,11.502h-3.009l-1.382-2.519h-7.289
		l-1.337,2.519H-175.083z M-169.934,483.567h5.037l-2.474-4.681L-169.934,483.567z"/>
	<path id="XMLID_250_" style="fill:#FFFFFF;" d="M-155.691,488.158v-11.502h2.675v9.34h8.626v2.162L-155.691,488.158
		L-155.691,488.158z"/>
</g>
</svg>
