<?xml version="1.0" encoding="iso-8859-1"?>
<!-- Generator: Adobe Illustrator 19.0.0, SVG Export Plug-In . SVG Version: 6.00 Build 0)  -->
<svg version="1.1" id="Layer_1" xmlns="http://www.w3.org/2000/svg" xmlns:xlink="http://www.w3.org/1999/xlink" x="0px" y="0px"
	 viewBox="-389 201 500 400" style="enable-background:new -389 201 500 400;" xml:space="preserve">
<rect id="XMLID_93_" x="-390.137" y="500.599" style="fill:#666666;" width="500.576" height="40"/>
<g id="XMLID_223_">
	<path id="XMLID_247_" style="fill:#FFFFFF;" d="M-367.181,526.965v-11.502h2.675v11.502H-367.181z"/>
	<path id="XMLID_245_" style="fill:#FFFFFF;" d="M-358.644,526.965v-11.502h1.828l8.091,6.776c0.579,0.49,1.017,0.907,1.315,1.248
		c-0.075-1.07-0.111-1.73-0.111-1.984v-6.041h2.407v11.502h-1.828l-8.447-7.11c-0.357-0.297-0.676-0.609-0.958-0.937
		c0.074,0.744,0.111,1.353,0.111,1.827v6.219h-2.408V526.965z"/>
	<path id="XMLID_243_" style="fill:#FFFFFF;" d="M-339.253,526.965v-11.502h11.635v2.007h-8.961v3.031h4.837v2.095h-4.837v4.369
		H-339.253L-339.253,526.965z"/>
	<path id="XMLID_240_" style="fill:#FFFFFF;" d="M-324.542,518.183c0-1.07,0.201-1.791,0.602-2.162
		c0.401-0.371,1.151-0.558,2.251-0.558h8.47c1.099,0,1.85,0.187,2.251,0.558c0.401,0.371,0.602,1.092,0.602,2.162v6.063
		c0,1.07-0.201,1.791-0.602,2.162c-0.401,0.371-1.152,0.557-2.251,0.557h-8.47c-1.1,0-1.85-0.186-2.251-0.557
		c-0.401-0.371-0.602-1.092-0.602-2.162V518.183z M-321.867,524.803h8.827v-7.288h-8.827
		C-321.867,517.515-321.867,524.803-321.867,524.803z"/>
	<path id="XMLID_237_" style="fill:#FFFFFF;" d="M-304.727,526.965v-11.502h9.852c1.724,0,2.585,0.744,2.585,2.23v2.696
		c0,1.486-0.862,2.23-2.585,2.23h-1.515l5.305,4.346h-3.835l-4.636-4.346h-2.541v4.346L-304.727,526.965L-304.727,526.965z
		 M-296.079,517.425h-6.018v3.232h6.018c0.416,0,0.706-0.045,0.869-0.134c0.223-0.134,0.334-0.397,0.334-0.786v-1.392
		c0-0.389-0.112-0.65-0.334-0.786C-295.374,517.47-295.663,517.425-296.079,517.425z"/>
	<path id="XMLID_235_" style="fill:#F6D257;" d="M-285.622,526.965v-16.43h3.089l7.738,9.935l7.578-9.935h3.057v16.43h-3.534
		v-10.157c0-0.403,0.042-0.988,0.127-1.751c-0.403,0.828-0.722,1.401-0.955,1.719l-6.177,8.215h-0.765l-6.177-8.247
		c-0.446-0.594-0.775-1.157-0.987-1.687c0.064,0.658,0.096,1.242,0.096,1.751v10.157H-285.622L-285.622,526.965z"/>
	<path id="XMLID_232_" style="fill:#FFFFFF;" d="M-259.573,526.965l6.509-11.502h2.585l6.598,11.502h-3.009l-1.382-2.519h-7.289
		l-1.337,2.519H-259.573z M-254.424,522.374h5.037l-2.474-4.681L-254.424,522.374z"/>
	<path id="XMLID_230_" style="fill:#FFFFFF;" d="M-234.832,517.515v9.45h-2.675v-9.45h-5.283v-2.051h13.262v2.051H-234.832z"/>
	<path id="XMLID_228_" style="fill:#FFFFFF;" d="M-226.251,526.965v-11.502h2.675v11.502H-226.251z"/>
	<path id="XMLID_226_" style="fill:#FFFFFF;" d="M-208.041,517.515h-7.221v7.288h7.221v-2.474l2.675,0.557v1.36
		c0,1.07-0.201,1.791-0.602,2.162c-0.401,0.371-1.151,0.557-2.251,0.557h-6.865c-1.1,0-1.85-0.186-2.251-0.557
		c-0.401-0.371-0.602-1.092-0.602-2.162v-6.063c0-1.07,0.201-1.791,0.602-2.162c0.401-0.371,1.151-0.558,2.251-0.558h6.865
		c1.099,0,1.85,0.187,2.251,0.558c0.401,0.371,0.602,1.092,0.602,2.162v1.092l-2.675,0.423V517.515z"/>
	<path id="XMLID_224_" style="fill:#FFFFFF;" d="M-189.875,517.47h-7.556v2.474h7.193c1.102,0,1.858,0.186,2.267,0.557
		c0.41,0.372,0.615,1.093,0.615,2.162v1.583c0,1.07-0.204,1.791-0.613,2.162c-0.409,0.371-1.163,0.557-2.262,0.557h-7.11
		c-1.1,0-1.854-0.186-2.262-0.557c-0.409-0.371-0.613-1.092-0.613-2.162v-0.312l2.363-0.491v1.36h8.136v-2.63h-7.177
		c-1.1,0-1.85-0.186-2.251-0.557s-0.602-1.092-0.602-2.162v-1.27c0-1.07,0.201-1.791,0.602-2.162
		c0.401-0.371,1.151-0.558,2.251-0.558h6.531c1.055,0,1.794,0.178,2.217,0.535c0.423,0.357,0.636,1.018,0.636,1.984v0.245
		l-2.363,0.558v-1.316H-189.875z"/>
</g>
</svg>
