<?xml version="1.0" encoding="iso-8859-1"?>
<!-- Generator: Adobe Illustrator 19.0.0, SVG Export Plug-In . SVG Version: 6.00 Build 0)  -->
<svg version="1.1" id="Layer_1" xmlns="http://www.w3.org/2000/svg" xmlns:xlink="http://www.w3.org/1999/xlink" x="0px" y="0px"
	 viewBox="-389 201 500 400" style="enable-background:new -389 201 500 400;" xml:space="preserve">
<path id="XMLID_58_" style="fill:#FFFFFF;" d="M-314.262,341.069c-11.388,16.673,37.567,7.336,37.569,22.472
	c0,15.093-47.092-8.53-58.271,7.838c-5.99,8.791-2.662,2.53-12.682,17.282c0,0,11.45-15.473,51.291-6.379
	c33.847,0,36.613-13.631,30.027-23.309C-280.334,338.391-315.207,353.088-314.262,341.069z"/>
<path id="XMLID_61_" style="fill:#FFFFFF;" d="M-277.262,342.908c-2.239-3.294-7.569-11.122-7.569-11.122
	s-16.452-9.781-29.431,9.283C-307.251,330.743-283.131,334.283-277.262,342.908z"/>
<polygon id="XMLID_62_" style="fill:#FFFFFF;" points="-238.907,336.401 -258,336.401 -258,343.401 -238,343.401 -238,378.401 
	-230,378.401 -230,343.401 -208,343.401 -208,336.401 -228.832,336.401 "/>
<polygon id="XMLID_63_" style="fill:#FFFFFF;" points="-196,336.401 -196,343.755 -196,353.272 -196,360.675 -196,370.692 
	-196,378.401 -185.483,378.401 -157,378.401 -157,370.401 -186,370.401 -186,360.401 -157,360.401 -157,352.401 -186,352.401 
	-186,343.401 -157,343.401 -157,336.401 -185.483,336.401 "/>
<polygon id="XMLID_64_" style="fill:#FFFFFF;" points="-115.104,356.69 -126.187,332.824 -145.553,377.997 -138.667,380.949 
	-125.914,351.2 -114.823,375.082 -104.817,351.696 -92.594,380.918 -85.682,378.027 -104.741,332.467 "/>
<path id="XMLID_67_" style="fill:#FFFFFF;" d="M50.458,338.401H8.078l-0.556,33H4.464l-19.833-34.468l-20.079,34.468H-66v-37h-7v45
	h41.856l15.733-27.008l15.54,27.008h49.57L31.9,357.562L50.458,338.401z M33.758,371.401H15.014l0.429-25h17.089l-10.727,10.722
	L33.758,371.401z"/>
</svg>
