<?xml version="1.0" encoding="iso-8859-1"?>
<!-- Generator: Adobe Illustrator 19.0.0, SVG Export Plug-In . SVG Version: 6.00 Build 0)  -->
<svg version="1.1" id="Layer_1" xmlns="http://www.w3.org/2000/svg" xmlns:xlink="http://www.w3.org/1999/xlink" x="0px" y="0px"
	 viewBox="-389 201 500 400" style="enable-background:new -389 201 500 400;" xml:space="preserve">
<rect id="XMLID_94_" x="-389.875" y="421.17" style="fill:#999999;" width="500.576" height="40"/>
<g id="XMLID_279_">
	<path id="XMLID_372_" style="fill:#F6D257;" d="M-351.686,431.98h-10.795v3.535h10.276c1.574,0,2.654,0.265,3.239,0.796
		s0.878,1.56,0.878,3.089v2.26c0,1.529-0.292,2.559-0.876,3.089c-0.584,0.53-1.661,0.796-3.232,0.796h-10.158
		c-1.571,0-2.648-0.265-3.232-0.796c-0.584-0.53-0.876-1.56-0.876-3.089v-0.445l3.375-0.701v1.943h11.622V438.7h-10.252
		c-1.571,0-2.643-0.265-3.216-0.797c-0.573-0.53-0.86-1.56-0.86-3.089v-1.815c0-1.528,0.287-2.557,0.86-3.089
		c0.573-0.53,1.645-0.796,3.216-0.796h9.33c1.507,0,2.563,0.254,3.168,0.765c0.605,0.509,0.908,1.454,0.908,2.833v0.35l-3.375,0.797
		V431.98z"/>
	<path id="XMLID_369_" style="fill:#FFFFFF;" d="M-341.421,445.545v-11.502h9.852c1.724,0,2.585,0.744,2.585,2.23v2.563
		c0,1.486-0.862,2.229-2.585,2.229h-7.221v4.48H-341.421z M-332.773,436.005h-6.018v3.099h6.018c0.416,0,0.706-0.046,0.869-0.136
		c0.223-0.135,0.334-0.399,0.334-0.791v-1.244c0-0.392-0.112-0.656-0.334-0.791C-332.067,436.051-332.357,436.005-332.773,436.005z"
		/>
	<path id="XMLID_366_" style="fill:#FFFFFF;" d="M-327.067,445.545l6.509-11.502h2.585l6.598,11.502h-3.009l-1.382-2.519h-7.289
		l-1.337,2.519H-327.067z M-321.918,440.954h5.037l-2.474-4.681L-321.918,440.954z"/>
	<path id="XMLID_364_" style="fill:#FFFFFF;" d="M-302.326,436.095v9.45h-2.675v-9.45h-5.283v-2.051h13.262v2.051H-302.326z"/>
	<path id="XMLID_362_" style="fill:#FFFFFF;" d="M-293.745,445.545v-11.502h2.675v11.502H-293.745z"/>
	<path id="XMLID_359_" style="fill:#FFFFFF;" d="M-285.431,436.764c0-1.07,0.201-1.791,0.602-2.162
		c0.401-0.371,1.151-0.558,2.251-0.558h8.47c1.099,0,1.85,0.187,2.251,0.558c0.401,0.371,0.602,1.092,0.602,2.162v6.063
		c0,1.07-0.201,1.791-0.602,2.162s-1.152,0.557-2.251,0.557h-8.47c-1.1,0-1.85-0.186-2.251-0.557s-0.602-1.092-0.602-2.162V436.764z
		 M-282.756,443.383h8.827v-7.288h-8.827V443.383z"/>
	<path id="XMLID_357_" style="fill:#F6D257;" d="M-256.713,432.044v13.501h-3.821v-13.501h-7.547v-2.929h18.946v2.929H-256.713z"/>
	<path id="XMLID_355_" style="fill:#FFFFFF;" d="M-245.715,445.545v-11.502h11.769v1.962h-9.094v2.564h5.305v1.961h-5.305v2.853
		h9.206v2.162H-245.715z"/>
	<path id="XMLID_353_" style="fill:#FFFFFF;" d="M-228.909,445.545v-11.502h2.162l5.417,6.954l5.305-6.954h2.14v11.502h-2.474v-7.11
		c0-0.283,0.03-0.691,0.089-1.226c-0.282,0.58-0.505,0.981-0.669,1.204l-4.324,5.751h-0.535l-4.324-5.773
		c-0.312-0.416-0.543-0.81-0.691-1.182c0.045,0.461,0.067,0.87,0.067,1.226v7.11H-228.909z"/>
	<path id="XMLID_350_" style="fill:#FFFFFF;" d="M-208.247,445.545v-11.502h9.852c1.724,0,2.585,0.744,2.585,2.23v2.563
		c0,1.486-0.862,2.229-2.585,2.229h-7.221v4.48H-208.247z M-199.599,436.005h-6.018v3.099h6.018c0.416,0,0.706-0.046,0.869-0.136
		c0.223-0.135,0.334-0.399,0.334-0.791v-1.244c0-0.392-0.112-0.656-0.334-0.791C-198.894,436.051-199.183,436.005-199.599,436.005z"
		/>
	<path id="XMLID_347_" style="fill:#FFFFFF;" d="M-191.931,436.764c0-1.07,0.201-1.791,0.602-2.162
		c0.401-0.371,1.151-0.558,2.251-0.558h8.47c1.099,0,1.85,0.187,2.251,0.558c0.401,0.371,0.602,1.092,0.602,2.162v6.063
		c0,1.07-0.201,1.791-0.602,2.162s-1.152,0.557-2.251,0.557h-8.47c-1.1,0-1.85-0.186-2.251-0.557s-0.602-1.092-0.602-2.162V436.764z
		 M-189.257,443.383h8.827v-7.288h-8.827V443.383z"/>
	<path id="XMLID_287_" style="fill:#FFFFFF;" d="M-172.117,445.545v-11.502h9.852c1.724,0,2.585,0.744,2.585,2.23v2.696
		c0,1.486-0.862,2.23-2.585,2.23h-1.515l5.305,4.346h-3.833l-4.636-4.346h-2.541v4.346H-172.117L-172.117,445.545z
		 M-163.468,436.005h-6.018v3.232h6.018c0.416,0,0.706-0.045,0.869-0.134c0.223-0.134,0.334-0.397,0.334-0.786v-1.392
		c0-0.389-0.112-0.65-0.334-0.786C-162.763,436.05-163.053,436.005-163.468,436.005z"/>
	<path id="XMLID_282_" style="fill:#FFFFFF;" d="M-156.448,445.545l6.509-11.502h2.585l6.598,11.502h-3.009l-1.382-2.519h-7.289
		l-1.337,2.519H-156.448z M-151.299,440.954h5.037l-2.474-4.681L-151.299,440.954z"/>
	<path id="XMLID_280_" style="fill:#FFFFFF;" d="M-137.056,445.545v-11.502h2.674v9.34h8.626v2.162H-137.056z"/>
</g>
</svg>
