<?xml version="1.0" encoding="iso-8859-1"?>
<!-- Generator: Adobe Illustrator 19.0.0, SVG Export Plug-In . SVG Version: 6.00 Build 0)  -->
<svg version="1.1" id="Layer_1" xmlns="http://www.w3.org/2000/svg" xmlns:xlink="http://www.w3.org/1999/xlink" x="0px" y="0px"
	 viewBox="-389 201 500 400" style="enable-background:new -389 201 500 400;" xml:space="preserve">
<path id="XMLID_36_" style="fill:#5587A2;" d="M-296,367.772c-15-2.084-32.435-5.693-38.786,3.607
	c-5.99,8.791-2.573,2.53-12.594,17.282c0,0,11.38-15.473,51.38-6.379V367.772z"/>
<path id="XMLID_35_" style="display:none;fill:#5587A2;" d="M-296,353.393v-6.599c-10-0.365-18.372,0.195-17.907-5.725
	C-320.191,350.27-308,351.551-296,353.393z"/>
<path id="XMLID_83_" style="display:none;fill:#96D6E0;" d="M-265.973,358.973C-273.08,348.53-286,347.171-296,346.795v6.599
	c9,1.497,19.662,3.364,19.662,10.148c0,6.518-8.662,5.815-19.662,4.231v14.51C-263,382.282-259.387,368.651-265.973,358.973z"/>
<path id="XMLID_37_" style="display:none;fill:#5587A2;" d="M-296,334.812v-5.475c-6,0.392-12.032,3.103-17.907,11.732
	C-310.557,336.136-304,334.374-296,334.812z"/>
<path id="XMLID_84_" style="display:none;fill:#96D6E0;" d="M-296,334.812c8,0.479,15.851,3.591,18.916,8.096
	c-2.239-3.294-7.48-11.122-7.48-11.122S-290,328.864-296,329.338V334.812z"/>
</svg>
