<?xml version="1.0" encoding="iso-8859-1"?>
<!-- Generator: Adobe Illustrator 19.0.0, SVG Export Plug-In . SVG Version: 6.00 Build 0)  -->
<svg version="1.1" xmlns="http://www.w3.org/2000/svg" xmlns:xlink="http://www.w3.org/1999/xlink" x="0px" y="0px"
	 viewBox="0 0 500 400" style="enable-background:new 0 0 500 400;" xml:space="preserve">
<g id="Layer_21">
	<rect id="XMLID_49_" x="-1" y="2.401" style="fill:#FBB03B;" width="499" height="392"/>
	<path id="XMLID_41_" style="fill:#96D6E0;" d="M366.244,180.17c-29.862-0.102-35.201-18.902-72.778-18.902
		s-29.162,31.711-83.208,30.32c-55.487-1.429-49.057-31.646-82.431-30.314c-34.976,1.396-33.807,19.534-78.997,18.91
		c-41.034-0.567-49.863-22.245-49.863-22.245l-0.103,124.463H498v-95.492c-16.125-0.461-25.757-25.643-61.598-25.643
		C400.231,161.266,396.106,180.272,366.244,180.17z"/>
	<path id="XMLID_25_" style="fill:#5587A2;" d="M367.466,186.798c-29.825,1.724-42.904-27.529-72.811-18.964
		c-30.022,8.598-28.704,37.089-80.858,36.674c-51.663-0.411-53.838-36.956-83.094-40.001c-34.83-3.625-46.741,28.084-78.952,28.084
		c-41.057,0-51.726-28.489-51.726-28.489l-1.161,226.299h499.518l1.058-197.246c-28.156-0.156-35.595-29.139-62.873-29.139
		C417.968,164.016,409.702,184.356,367.466,186.798z"/>
	<path id="XMLID_24_" style="fill:#FFFFFF;fill-opacity:0.75;" d="M-1.093,76.774c0,0,8.842,21.667,49.928,22.234
		c45.247,0.624,44.052-18.91,79.101-18.91s28.413,30.05,82.544,30.314c54.131,0.265,45.705-30.32,83.33-30.32
		s43.006,18.8,72.906,18.902c29.9,0.102,34.181-18.903,70.398-18.903s45.282,25.664,62.362,25.664
		c-0.054-57.186-0.055-102.993-0.055-102.993H-1.093V76.774z"/>
	<path id="XMLID_108_" style="fill:#FFFFFF;fill-opacity:0.75;" d="M-1.093,46.805c0,0,8.842,21.667,49.928,22.234
		c45.247,0.624,44.052-18.91,79.101-18.91s28.413,30.05,82.544,30.314c54.131,0.265,45.705-30.32,83.33-30.32
		s43.006,18.8,72.906,18.902c29.9,0.102,34.181-18.903,70.398-18.903s45.282,25.664,62.362,25.664
		c-0.054-57.186-0.055-73.024-0.055-73.024H-1.093V46.805z"/>
	<path id="XMLID_109_" style="fill:#FFFFFF;" d="M-1,15.9c0,0,8.795,21.667,49.881,22.234c45.247,0.624,44.029-18.91,79.077-18.91
		s28.402,30.05,82.532,30.314s45.699-30.32,83.324-30.32s43.003,18.8,72.903,18.902s34.18-18.903,70.397-18.903
		s45.281,25.484,62.361,25.484c-0.054-57.186-0.056-42.299-0.056-42.299H-1V15.9z"/>
	<rect id="XMLID_26_" x="0" y="379.599" style="fill:#88B14B;" width="500" height="20"/>
	<rect id="XMLID_92_" x="-0.576" y="339.599" style="fill:#0C4C8A;" width="500.576" height="40"/>
	<rect id="XMLID_93_" x="-1.137" y="299.599" style="fill:#666666;" width="500.576" height="40"/>
	<rect id="XMLID_91_" x="-0.614" y="259.599" style="fill:#5587A2;" width="500.054" height="40"/>
	<rect id="XMLID_94_" x="-0.875" y="220.17" style="fill:#999999;" width="500.576" height="40"/>
	<polygon id="XMLID_80_" style="fill:#5C7148;" points="501,197.208 315.537,400.401 501,400.401 	"/>
</g>
<g id="Layer_6">
	<g id="XMLID_193_">
		<g id="XMLID_279_" style="display:none;">
			<path id="XMLID_372_" style="display:inline;fill:#F6D257;" d="M37.314,230.98H26.519v3.535h10.276
				c1.574,0,2.654,0.265,3.239,0.796c0.585,0.531,0.878,1.56,0.878,3.089v2.26c0,1.529-0.292,2.559-0.876,3.089
				s-1.661,0.796-3.232,0.796H26.646c-1.571,0-2.648-0.265-3.232-0.796c-0.584-0.53-0.876-1.56-0.876-3.089v-0.445l3.375-0.701
				v1.943h11.622V237.7H27.283c-1.571,0-2.643-0.265-3.216-0.797c-0.573-0.53-0.86-1.56-0.86-3.089v-1.815
				c0-1.528,0.287-2.557,0.86-3.089c0.573-0.53,1.645-0.796,3.216-0.796h9.33c1.507,0,2.563,0.254,3.168,0.765
				c0.605,0.509,0.908,1.454,0.908,2.833v0.35l-3.375,0.797V230.98z"/>
			<path id="XMLID_369_" style="display:inline;fill:#FFFFFF;" d="M47.579,244.545v-11.502h9.852c1.724,0,2.585,0.744,2.585,2.23
				v2.563c0,1.486-0.862,2.229-2.585,2.229h-7.221v4.48H47.579z M56.227,235.005h-6.018v3.099h6.018
				c0.416,0,0.706-0.046,0.869-0.136c0.223-0.135,0.334-0.399,0.334-0.791v-1.244c0-0.392-0.112-0.656-0.334-0.791
				C56.933,235.051,56.643,235.005,56.227,235.005z"/>
			<path id="XMLID_366_" style="display:inline;fill:#FFFFFF;" d="M61.933,244.545l6.509-11.502h2.585l6.598,11.502h-3.009
				l-1.382-2.519h-7.289l-1.337,2.519H61.933z M67.082,239.954h5.037l-2.474-4.681L67.082,239.954z"/>
			<path id="XMLID_364_" style="display:inline;fill:#FFFFFF;" d="M86.674,235.095v9.45h-2.675v-9.45h-5.283v-2.051h13.262v2.051
				H86.674z"/>
			<path id="XMLID_362_" style="display:inline;fill:#FFFFFF;" d="M95.255,244.545v-11.502h2.675v11.502H95.255z"/>
			<path id="XMLID_359_" style="display:inline;fill:#FFFFFF;" d="M103.569,235.764c0-1.07,0.201-1.791,0.602-2.162
				c0.401-0.371,1.151-0.558,2.251-0.558h8.47c1.099,0,1.85,0.187,2.251,0.558c0.401,0.371,0.602,1.092,0.602,2.162v6.063
				c0,1.07-0.201,1.791-0.602,2.162c-0.401,0.371-1.152,0.557-2.251,0.557h-8.47c-1.1,0-1.85-0.186-2.251-0.557
				c-0.401-0.371-0.602-1.092-0.602-2.162V235.764z M106.244,242.383h8.827v-7.288h-8.827V242.383z"/>
			<path id="XMLID_357_" style="display:inline;fill:#F6D257;" d="M132.287,231.044v13.501h-3.821v-13.501h-7.547v-2.929h18.946
				v2.929H132.287z"/>
			<path id="XMLID_355_" style="display:inline;fill:#FFFFFF;" d="M143.285,244.545v-11.502h11.769v1.962h-9.094v2.564h5.305v1.961
				h-5.305v2.853h9.206v2.162H143.285z"/>
			<path id="XMLID_353_" style="display:inline;fill:#FFFFFF;" d="M160.091,244.545v-11.502h2.162l5.417,6.954l5.305-6.954h2.14
				v11.502h-2.474v-7.11c0-0.283,0.03-0.691,0.089-1.226c-0.282,0.58-0.505,0.981-0.669,1.204l-4.324,5.751h-0.535l-4.324-5.773
				c-0.312-0.416-0.543-0.81-0.691-1.182c0.045,0.461,0.067,0.87,0.067,1.226v7.11H160.091z"/>
			<path id="XMLID_350_" style="display:inline;fill:#FFFFFF;" d="M180.753,244.545v-11.502h9.852c1.724,0,2.585,0.744,2.585,2.23
				v2.563c0,1.486-0.862,2.229-2.585,2.229h-7.221v4.48H180.753z M189.401,235.005h-6.018v3.099h6.018
				c0.416,0,0.706-0.046,0.869-0.136c0.223-0.135,0.334-0.399,0.334-0.791v-1.244c0-0.392-0.112-0.656-0.334-0.791
				C190.106,235.051,189.817,235.005,189.401,235.005z"/>
			<path id="XMLID_347_" style="display:inline;fill:#FFFFFF;" d="M197.069,235.764c0-1.07,0.201-1.791,0.602-2.162
				c0.401-0.371,1.151-0.558,2.251-0.558h8.47c1.099,0,1.85,0.187,2.251,0.558c0.401,0.371,0.602,1.092,0.602,2.162v6.063
				c0,1.07-0.201,1.791-0.602,2.162c-0.401,0.371-1.152,0.557-2.251,0.557h-8.47c-1.1,0-1.85-0.186-2.251-0.557
				c-0.401-0.371-0.602-1.092-0.602-2.162V235.764z M199.743,242.383h8.827v-7.288h-8.827V242.383z"/>
			<path id="XMLID_287_" style="display:inline;fill:#FFFFFF;" d="M216.883,244.545v-11.502h9.852c1.724,0,2.585,0.744,2.585,2.23
				v2.696c0,1.486-0.862,2.23-2.585,2.23h-1.515l5.305,4.346h-3.833l-4.636-4.346h-2.541v4.346H216.883z M225.532,235.005h-6.018
				v3.232h6.018c0.416,0,0.706-0.045,0.869-0.134c0.223-0.134,0.334-0.397,0.334-0.786v-1.392c0-0.389-0.112-0.65-0.334-0.786
				C226.237,235.05,225.947,235.005,225.532,235.005z"/>
			<path id="XMLID_282_" style="display:inline;fill:#FFFFFF;" d="M232.552,244.545l6.509-11.502h2.585l6.598,11.502h-3.009
				l-1.382-2.519h-7.289l-1.337,2.519H232.552z M237.701,239.954h5.037l-2.474-4.681L237.701,239.954z"/>
			<path id="XMLID_280_" style="display:inline;fill:#FFFFFF;" d="M251.944,244.545v-11.502h2.674v9.34h8.626v2.162H251.944z"/>
		</g>
		<g id="XMLID_249_" style="display:none;">
			<path id="XMLID_277_" style="display:inline;fill:#F6D257;" d="M23.08,283.755v-16.43h16.813v2.802H26.901v3.662h7.579v2.801
				h-7.579v4.076h13.151v3.089H23.08z"/>
			<path id="XMLID_275_" style="display:inline;fill:#FFFFFF;" d="M45.837,283.755v-11.502h1.828l8.091,6.776
				c0.579,0.49,1.017,0.907,1.315,1.248c-0.075-1.07-0.111-1.73-0.111-1.984v-6.041h2.407v11.502h-1.828l-8.447-7.11
				c-0.357-0.297-0.676-0.609-0.958-0.937c0.074,0.744,0.111,1.353,0.111,1.827v6.219H45.837z"/>
			<path id="XMLID_273_" style="display:inline;fill:#FFFFFF;" d="M69.107,283.755l-6.642-11.502h3.054l4.658,8.314l4.436-8.314
				h2.675l-6.33,11.502H69.107z"/>
			<path id="XMLID_271_" style="display:inline;fill:#FFFFFF;" d="M80.408,283.755v-11.502h2.675v11.502H80.408z"/>
			<path id="XMLID_268_" style="display:inline;fill:#FFFFFF;" d="M88.966,283.755v-11.502h9.852c1.724,0,2.585,0.744,2.585,2.23
				v2.696c0,1.486-0.862,2.23-2.585,2.23h-1.515l5.305,4.346h-3.833l-4.636-4.346h-2.541v4.346H88.966z M97.614,274.215h-6.018
				v3.232h6.018c0.416,0,0.706-0.045,0.869-0.134c0.223-0.134,0.334-0.397,0.334-0.786v-1.392c0-0.389-0.112-0.65-0.334-0.786
				C98.32,274.26,98.03,274.215,97.614,274.215z"/>
			<path id="XMLID_265_" style="display:inline;fill:#FFFFFF;" d="M106.597,274.973c0-1.07,0.201-1.791,0.602-2.162
				c0.401-0.371,1.151-0.558,2.251-0.558h8.47c1.099,0,1.85,0.187,2.251,0.558s0.602,1.092,0.602,2.162v6.063
				c0,1.07-0.201,1.791-0.602,2.162c-0.401,0.371-1.152,0.557-2.251,0.557h-8.47c-1.1,0-1.85-0.186-2.251-0.557
				c-0.401-0.371-0.602-1.092-0.602-2.162V274.973z M109.272,281.593h8.827v-7.288h-8.827V281.593z"/>
			<path id="XMLID_263_" style="display:inline;fill:#FFFFFF;" d="M126.389,283.755v-11.502h1.828l8.091,6.776
				c0.579,0.49,1.017,0.907,1.315,1.248c-0.075-1.07-0.111-1.73-0.111-1.984v-6.041h2.407v11.502h-1.828l-8.447-7.11
				c-0.357-0.297-0.676-0.609-0.958-0.937c0.074,0.744,0.111,1.353,0.111,1.827v6.219H126.389z"/>
			<path id="XMLID_261_" style="display:inline;fill:#FFFFFF;" d="M145.758,283.755v-11.502h2.162l5.417,6.954l5.305-6.954h2.14
				v11.502h-2.474v-7.11c0-0.283,0.03-0.691,0.089-1.226c-0.282,0.58-0.505,0.981-0.669,1.204l-4.324,5.751h-0.535l-4.324-5.773
				c-0.312-0.416-0.543-0.81-0.691-1.182c0.045,0.461,0.067,0.87,0.067,1.226v7.11H145.758z"/>
			<path id="XMLID_259_" style="display:inline;fill:#FFFFFF;" d="M166.42,283.755v-11.502h11.769v1.962h-9.094v2.564h5.305v1.961
				h-5.305v2.853h9.206v2.162H166.42z"/>
			<path id="XMLID_257_" style="display:inline;fill:#FFFFFF;" d="M183.226,283.755v-11.502h1.828l8.091,6.776
				c0.579,0.49,1.017,0.907,1.315,1.248c-0.075-1.07-0.111-1.73-0.111-1.984v-6.041h2.407v11.502h-1.828l-8.447-7.11
				c-0.357-0.297-0.676-0.609-0.958-0.937c0.074,0.744,0.111,1.353,0.111,1.827v6.219H183.226z"/>
			<path id="XMLID_255_" style="display:inline;fill:#FFFFFF;" d="M207.967,274.305v9.45h-2.675v-9.45h-5.283v-2.051h13.262v2.051
				H207.967z"/>
			<path id="XMLID_252_" style="display:inline;fill:#FFFFFF;" d="M214.341,283.755l6.509-11.502h2.585l6.598,11.502h-3.009
				l-1.382-2.519h-7.289l-1.337,2.519H214.341z M219.49,279.164h5.037l-2.474-4.681L219.49,279.164z"/>
			<path id="XMLID_250_" style="display:inline;fill:#FFFFFF;" d="M233.733,283.755v-11.502h2.675v9.34h8.626v2.162H233.733z"/>
		</g>
		<g id="XMLID_223_" style="display:none;">
			<path id="XMLID_247_" style="display:inline;fill:#FFFFFF;" d="M21.819,325.965v-11.502h2.675v11.502H21.819z"/>
			<path id="XMLID_245_" style="display:inline;fill:#FFFFFF;" d="M30.356,325.965v-11.502h1.828l8.091,6.776
				c0.579,0.49,1.017,0.907,1.315,1.248c-0.075-1.07-0.111-1.73-0.111-1.984v-6.041h2.407v11.502h-1.828l-8.447-7.11
				c-0.357-0.297-0.676-0.609-0.958-0.937c0.074,0.744,0.111,1.353,0.111,1.827v6.219H30.356z"/>
			<path id="XMLID_243_" style="display:inline;fill:#FFFFFF;" d="M49.747,325.965v-11.502h11.635v2.007h-8.961v3.031h4.837v2.095
				h-4.837v4.369H49.747z"/>
			<path id="XMLID_240_" style="display:inline;fill:#FFFFFF;" d="M64.458,317.183c0-1.07,0.201-1.791,0.602-2.162
				c0.401-0.371,1.151-0.558,2.251-0.558h8.47c1.099,0,1.85,0.187,2.251,0.558s0.602,1.092,0.602,2.162v6.063
				c0,1.07-0.201,1.791-0.602,2.162c-0.401,0.371-1.152,0.557-2.251,0.557h-8.47c-1.1,0-1.85-0.186-2.251-0.557
				c-0.401-0.371-0.602-1.092-0.602-2.162V317.183z M67.133,323.803h8.827v-7.288h-8.827V323.803z"/>
			<path id="XMLID_237_" style="display:inline;fill:#FFFFFF;" d="M84.273,325.965v-11.502h9.852c1.724,0,2.585,0.744,2.585,2.23
				v2.696c0,1.486-0.862,2.23-2.585,2.23h-1.515l5.305,4.346H94.08l-4.636-4.346h-2.541v4.346H84.273z M92.921,316.425h-6.018v3.232
				h6.018c0.416,0,0.706-0.045,0.869-0.134c0.223-0.134,0.334-0.397,0.334-0.786v-1.392c0-0.389-0.112-0.65-0.334-0.786
				C93.626,316.47,93.337,316.425,92.921,316.425z"/>
			<path id="XMLID_235_" style="display:inline;fill:#F6D257;" d="M103.378,325.965v-16.43h3.089l7.738,9.935l7.578-9.935h3.057
				v16.43h-3.534v-10.157c0-0.403,0.042-0.988,0.127-1.751c-0.403,0.828-0.722,1.401-0.955,1.719l-6.177,8.215h-0.765l-6.177-8.247
				c-0.446-0.594-0.775-1.157-0.987-1.687c0.064,0.658,0.096,1.242,0.096,1.751v10.157H103.378z"/>
			<path id="XMLID_232_" style="display:inline;fill:#FFFFFF;" d="M129.427,325.965l6.509-11.502h2.585l6.598,11.502h-3.009
				l-1.382-2.519h-7.289l-1.337,2.519H129.427z M134.576,321.374h5.037l-2.474-4.681L134.576,321.374z"/>
			<path id="XMLID_230_" style="display:inline;fill:#FFFFFF;" d="M154.168,316.515v9.45h-2.675v-9.45h-5.283v-2.051h13.262v2.051
				H154.168z"/>
			<path id="XMLID_228_" style="display:inline;fill:#FFFFFF;" d="M162.749,325.965v-11.502h2.675v11.502H162.749z"/>
			<path id="XMLID_226_" style="display:inline;fill:#FFFFFF;" d="M180.959,316.515h-7.221v7.288h7.221v-2.474l2.675,0.557v1.36
				c0,1.07-0.201,1.791-0.602,2.162c-0.401,0.371-1.151,0.557-2.251,0.557h-6.865c-1.1,0-1.85-0.186-2.251-0.557
				c-0.401-0.371-0.602-1.092-0.602-2.162v-6.063c0-1.07,0.201-1.791,0.602-2.162c0.401-0.371,1.151-0.558,2.251-0.558h6.865
				c1.099,0,1.85,0.187,2.251,0.558c0.401,0.371,0.602,1.092,0.602,2.162v1.092l-2.675,0.423V316.515z"/>
			<path id="XMLID_224_" style="display:inline;fill:#FFFFFF;" d="M199.125,316.47h-7.556v2.474h7.193
				c1.102,0,1.858,0.186,2.267,0.557c0.41,0.372,0.615,1.093,0.615,2.162v1.583c0,1.07-0.204,1.791-0.613,2.162
				c-0.409,0.371-1.163,0.557-2.262,0.557h-7.11c-1.1,0-1.854-0.186-2.262-0.557c-0.409-0.371-0.613-1.092-0.613-2.162v-0.312
				l2.363-0.491v1.36h8.136v-2.63h-7.177c-1.1,0-1.85-0.186-2.251-0.557c-0.401-0.371-0.602-1.092-0.602-2.162v-1.27
				c0-1.07,0.201-1.791,0.602-2.162c0.401-0.371,1.151-0.558,2.251-0.558h6.531c1.055,0,1.794,0.178,2.217,0.535
				s0.636,1.018,0.636,1.984v0.245l-2.363,0.558V316.47z"/>
		</g>
		<g id="XMLID_194_" style="display:none;">
			<path id="XMLID_221_" style="display:inline;fill:#F6D257;" d="M23.08,366.176v-16.43h3.821v13.342h12.323v3.089H23.08z"/>
			<path id="XMLID_218_" style="display:inline;fill:#F6D257;" d="M41.361,366.176l6.509-11.502h2.585l6.598,11.502h-3.009
				l-1.382-2.519h-7.289l-1.337,2.519H41.361z M46.51,361.585h5.037l-2.474-4.681L46.51,361.585z"/>
			<path id="XMLID_214_" style="display:inline;fill:#F6D257;" d="M60.752,366.176v-11.502h9.852c1.724,0,2.585,0.744,2.585,2.23
				v1.404c0,1.13-0.661,1.776-1.984,1.939c1.382,0.178,2.073,0.914,2.073,2.207v1.472c0,1.501-1.129,2.251-3.388,2.251H60.752z
				 M69.49,356.547h-6.107v2.741h6.107c0.817,0,1.226-0.274,1.226-0.824v-1.093C70.716,356.822,70.307,356.547,69.49,356.547z
				 M69.49,361.183h-6.107v2.919h6.107c0.446,0,0.758-0.051,0.936-0.155c0.238-0.148,0.357-0.438,0.357-0.87v-0.869
				c0-0.431-0.119-0.721-0.357-0.87C70.247,361.235,69.935,361.183,69.49,361.183z"/>
			<path id="XMLID_211_" style="display:inline;fill:#FFFFFF;" d="M78.205,357.394c0-1.07,0.201-1.791,0.602-2.162
				c0.401-0.371,1.151-0.558,2.251-0.558h8.47c1.099,0,1.85,0.187,2.251,0.558c0.401,0.371,0.602,1.092,0.602,2.162v6.063
				c0,1.07-0.201,1.791-0.602,2.162s-1.152,0.557-2.251,0.557h-8.47c-1.1,0-1.85-0.186-2.251-0.557s-0.602-1.092-0.602-2.162
				V357.394z M80.879,364.014h8.827v-7.288h-8.827V364.014z"/>
			<path id="XMLID_208_" style="display:inline;fill:#FFFFFF;" d="M98.019,366.176v-11.502h9.852c1.724,0,2.585,0.744,2.585,2.23
				v2.696c0,1.486-0.862,2.23-2.585,2.23h-1.515l5.305,4.346h-3.833l-4.636-4.346h-2.541v4.346H98.019z M106.667,356.636h-6.018
				v3.232h6.018c0.416,0,0.706-0.045,0.869-0.134c0.223-0.134,0.334-0.397,0.334-0.786v-1.392c0-0.389-0.112-0.65-0.334-0.786
				C107.373,356.681,107.083,356.636,106.667,356.636z"/>
			<path id="XMLID_205_" style="display:inline;fill:#FFFFFF;" d="M113.688,366.176l6.509-11.502h2.585l6.598,11.502h-3.009
				l-1.382-2.519H117.7l-1.337,2.519H113.688z M118.837,361.585h5.037l-2.474-4.681L118.837,361.585z"/>
			<path id="XMLID_203_" style="display:inline;fill:#FFFFFF;" d="M138.429,356.726v9.45h-2.675v-9.45h-5.283v-2.051h13.262v2.051
				H138.429z"/>
			<path id="XMLID_200_" style="display:inline;fill:#FFFFFF;" d="M146.765,357.394c0-1.07,0.201-1.791,0.602-2.162
				c0.401-0.371,1.151-0.558,2.251-0.558h8.47c1.099,0,1.85,0.187,2.251,0.558c0.401,0.371,0.602,1.092,0.602,2.162v6.063
				c0,1.07-0.201,1.791-0.602,2.162c-0.401,0.371-1.152,0.557-2.251,0.557h-8.47c-1.1,0-1.85-0.186-2.251-0.557
				c-0.401-0.371-0.602-1.092-0.602-2.162V357.394z M149.44,364.014h8.827v-7.288h-8.827V364.014z"/>
			<path id="XMLID_197_" style="display:inline;fill:#FFFFFF;" d="M166.58,366.176v-11.502h9.852c1.724,0,2.585,0.744,2.585,2.23
				v2.696c0,1.486-0.862,2.23-2.585,2.23h-1.515l5.305,4.346h-3.833l-4.636-4.346h-2.541v4.346H166.58z M175.228,356.636h-6.018
				v3.232h6.018c0.416,0,0.706-0.045,0.869-0.134c0.223-0.134,0.334-0.397,0.334-0.786v-1.392c0-0.389-0.112-0.65-0.334-0.786
				C175.934,356.681,175.644,356.636,175.228,356.636z"/>
			<path id="XMLID_195_" style="display:inline;fill:#FFFFFF;" d="M187.665,366.176v-5.149l-5.974-6.353h3.566l3.945,4.414
				l3.967-4.414h3.143l-5.951,6.286v5.216H187.665z"/>
		</g>
	</g>
</g>
<g id="STEMLAB">
	<g id="XMLID_23_">
		<path id="XMLID_58_" style="fill:#FFFFFF;" d="M74.738,140.069c-11.388,16.673,37.567,7.336,37.569,22.472
			c0,15.093-47.092-8.53-58.271,7.838c-5.99,8.791-2.662,2.53-12.682,17.282c0,0,11.45-15.473,51.291-6.379
			c33.847,0,36.613-13.631,30.027-23.309C108.666,137.391,73.793,152.088,74.738,140.069z"/>
		<path id="XMLID_61_" style="fill:#FFFFFF;" d="M111.738,141.908c-2.239-3.294-7.569-11.122-7.569-11.122
			s-16.452-9.781-29.431,9.283C81.749,129.743,105.869,133.283,111.738,141.908z"/>
		<polygon id="XMLID_62_" style="fill:#FFFFFF;" points="150.093,135.401 131,135.401 131,142.401 151,142.401 151,177.401 
			159,177.401 159,142.401 181,142.401 181,135.401 160.168,135.401 		"/>
		<polygon id="XMLID_63_" style="fill:#FFFFFF;" points="193,135.401 193,142.755 193,152.272 193,159.675 193,169.692 193,177.401 
			203.517,177.401 232,177.401 232,169.401 203,169.401 203,159.401 232,159.401 232,151.401 203,151.401 203,142.401 232,142.401 
			232,135.401 203.517,135.401 		"/>
		<polygon id="XMLID_64_" style="fill:#FFFFFF;" points="273.896,155.69 262.813,131.824 243.447,176.997 250.333,179.949 
			263.086,150.2 274.177,174.082 284.183,150.696 296.406,179.918 303.318,177.027 284.259,131.467 		"/>
		<path id="XMLID_67_" style="fill:#FFFFFF;" d="M439.458,137.401h-42.38l-0.556,33h-3.058l-19.833-34.468l-20.079,34.468H323v-37
			h-7v45h41.856l15.733-27.008l15.54,27.008h49.57L420.9,156.562L439.458,137.401z M422.758,170.401h-18.744l0.429-25h17.089
			l-10.727,10.722L422.758,170.401z"/>
	</g>
</g>
<g id="S">
	<g id="Layer_10">
		<polygon id="XMLID_100_" style="fill:#5C7148;" points="93,197.698 93,113.853 35.465,197.635 		"/>
		<polygon id="XMLID_96_" style="fill:#88B14B;" points="93,196.762 93,113.853 149.421,197.203 		"/>
	</g>
	<g id="Layer_11_copy_2">
		<g id="XMLID_34_">
			<path id="XMLID_37_" style="fill:#5587A2;" d="M93,133.812v-5.475c-6,0.392-12.032,3.103-17.907,11.732
				C78.443,135.136,85,133.374,93,133.812z"/>
			<path id="XMLID_36_" style="fill:#5587A2;" d="M93,166.772c-15-2.084-32.435-5.693-38.786,3.607
				c-5.99,8.791-2.573,2.53-12.594,17.282c0,0,11.38-15.473,51.38-6.379V166.772z"/>
			<path id="XMLID_35_" style="fill:#5587A2;" d="M93,152.393v-6.599c-10-0.365-18.372,0.195-17.907-5.725
				C68.809,149.27,81,150.551,93,152.393z"/>
		</g>
	</g>
	<g id="Layer_11_copy">
		<g id="XMLID_82_">
			<path id="XMLID_84_" style="fill:#96D6E0;" d="M93,133.812c8,0.479,15.851,3.591,18.916,8.096
				c-2.239-3.294-7.48-11.122-7.48-11.122S99,127.864,93,128.338V133.812z"/>
			<path id="XMLID_83_" style="fill:#96D6E0;" d="M123.027,157.973C115.92,147.53,103,146.171,93,145.795v6.599
				c9,1.497,19.662,3.364,19.662,10.148c0,6.518-8.662,5.815-19.662,4.231v14.51C126,181.282,129.613,167.651,123.027,157.973z"/>
		</g>
	</g>
</g>
<g id="poly">
	<polygon id="XMLID_28_" style="fill:#5C7148;" points="284.596,160.011 268.644,197.401 299.926,197.401 	"/>
	<polygon id="XMLID_16_" style="fill:#88B14B;" points="263.949,159.94 246.953,197.401 280.409,197.401 	"/>
	<polygon id="XMLID_15_" style="fill:#88B14B;" points="374.488,159.527 351.126,198.14 395.937,198.109 	"/>
	<polygon id="XMLID_14_" style="fill:#5C7148;" points="378.041,172.311 363.233,197.401 392.132,197.401 	"/>
	<polygon id="XMLID_13_" style="fill:#F6D257;" points="193,135.353 193,177.536 222.157,156.444 	"/>
</g>
<g id="Layer_9">
	<polygon id="XMLID_135_" style="fill:#D14476;" points="521.184,316.945 502,306.339 502,328.435 	"/>
	<polygon id="XMLID_134_" style="fill:#D14476;" points="521.184,354.945 502,344.339 502,366.435 	"/>
	<g id="XMLID_127_">
		<path id="XMLID_130_" style="fill:#EFCEC5;" d="M463.61,319.639h-7.209v6.06h-1.928v-6.06h-7.178v-8.87h7.178v-3.374h1.928v3.374
			h7.209V319.639z M454.474,317.783v-5.168h-5.229v5.168H454.474z M461.672,317.783v-5.168h-5.271v5.168H461.672z"/>
		<path id="XMLID_128_" style="fill:#EFCEC5;" d="M485.696,324.212l-1.127,1.662c-3.187-1.17-5.876-2.618-8.07-4.348
			c-2.372,1.88-5.124,3.277-8.254,4.193l-1.047-1.672c3.363-1.079,5.961-2.348,7.793-3.804c-1.613-1.668-2.97-3.944-4.07-6.829
			l1.805-0.729c1.025,2.783,2.27,4.875,3.732,6.275c1.524-1.482,2.744-3.708,3.66-6.675h-12.775v-1.876h8.028
			c-0.417-0.93-0.916-1.812-1.497-2.646l1.959-0.625c0.73,1.196,1.284,2.287,1.66,3.271h8.08v1.876h-3.383
			c-1.054,3.438-2.458,6.091-4.215,7.957C479.773,321.686,482.347,323.009,485.696,324.212z"/>
	</g>
	<g id="XMLID_57_">
		<path id="XMLID_125_" style="fill:#EFCEC5;" d="M383.842,362.012v-14.448h14.784v2.464h-11.425v3.221h6.664v2.464h-6.664v3.584
			h11.564v2.716H383.842z"/>
		<path id="XMLID_123_" style="fill:#EFCEC5;" d="M403.853,362.012v-10.113h1.607l7.115,5.958c0.509,0.432,0.895,0.797,1.156,1.098
			c-0.065-0.94-0.099-1.522-0.099-1.744v-5.312h2.117v10.113h-1.607l-7.428-6.252c-0.314-0.262-0.596-0.536-0.844-0.823
			c0.065,0.653,0.099,1.188,0.099,1.606v5.469H403.853z"/>
		<path id="XMLID_121_" style="fill:#EFCEC5;" d="M430.391,353.702h-7.35v6.409h7.35v-2.254h-3.841v-1.725h6.135v3.488
			c0,0.941-0.177,1.575-0.529,1.901c-0.354,0.327-1.013,0.49-1.979,0.49h-6.978c-0.968,0-1.627-0.163-1.98-0.49
			c-0.353-0.326-0.528-0.96-0.528-1.901v-5.331c0-0.94,0.176-1.574,0.528-1.901c0.354-0.326,1.013-0.489,1.98-0.489h6.978
			c0.94,0,1.594,0.16,1.96,0.479c0.365,0.32,0.549,0.925,0.549,1.813v0.235l-2.294,0.411V353.702z"/>
		<path id="XMLID_119_" style="fill:#EFCEC5;" d="M437.662,362.012v-10.113h2.353v8.212h7.585v1.901H437.662z"/>
		<path id="XMLID_74_" style="fill:#EFCEC5;" d="M451.049,362.012v-10.113h2.353v10.113H451.049z"/>
		<path id="XMLID_70_" style="fill:#EFCEC5;" d="M467.337,353.663h-6.645v2.176h6.325c0.969,0,1.634,0.163,1.994,0.49
			c0.359,0.326,0.54,0.96,0.54,1.9v1.392c0,0.941-0.18,1.575-0.539,1.901c-0.359,0.327-1.022,0.49-1.989,0.49h-6.253
			c-0.967,0-1.63-0.163-1.989-0.49c-0.359-0.326-0.539-0.96-0.539-1.901v-0.274l2.078-0.431v1.195h7.153v-2.312h-6.311
			c-0.968,0-1.627-0.163-1.98-0.49c-0.353-0.326-0.528-0.96-0.528-1.901v-1.117c0-0.94,0.176-1.574,0.528-1.901
			c0.354-0.326,1.013-0.489,1.98-0.489h5.742c0.928,0,1.578,0.156,1.95,0.47c0.373,0.313,0.559,0.896,0.559,1.745v0.215l-2.077,0.49
			V353.663z"/>
		<path id="XMLID_59_" style="fill:#EFCEC5;" d="M474.432,362.012v-10.113h2.353v3.92h7.35v-3.92h2.372v10.113h-2.372v-4.352h-7.35
			v4.352H474.432z"/>
	</g>
</g>
</svg>
