<?xml version="1.0" encoding="iso-8859-1"?>
<!-- Generator: Adobe Illustrator 19.0.0, SVG Export Plug-In . SVG Version: 6.00 Build 0)  -->
<svg version="1.1" id="Layer_1" xmlns="http://www.w3.org/2000/svg" xmlns:xlink="http://www.w3.org/1999/xlink" x="0px" y="0px"
	 viewBox="-389 201 500 400" style="enable-background:new -389 201 500 400;" xml:space="preserve">
<rect id="XMLID_92_" x="-389.576" y="540.599" style="fill:#0C4C8A;" width="500.576" height="40"/>
<g id="XMLID_194_">
	<path id="XMLID_221_" style="fill:#F6D257;" d="M-365.92,567.176v-16.43h3.821v13.342h12.323v3.089L-365.92,567.176
		L-365.92,567.176z"/>
	<path id="XMLID_218_" style="fill:#F6D257;" d="M-347.639,567.176l6.509-11.502h2.585l6.598,11.502h-3.009l-1.382-2.519h-7.289
		l-1.337,2.519H-347.639z M-342.49,562.585h5.037l-2.474-4.681L-342.49,562.585z"/>
	<path id="XMLID_214_" style="fill:#F6D257;" d="M-328.248,567.176v-11.502h9.852c1.724,0,2.585,0.744,2.585,2.23v1.404
		c0,1.13-0.661,1.776-1.984,1.939c1.382,0.178,2.073,0.914,2.073,2.207v1.472c0,1.501-1.129,2.251-3.388,2.251L-328.248,567.176
		L-328.248,567.176z M-319.51,557.547h-6.107v2.741h6.107c0.817,0,1.226-0.274,1.226-0.824v-1.093
		C-318.284,557.822-318.693,557.547-319.51,557.547z M-319.51,562.183h-6.107v2.919h6.107c0.446,0,0.758-0.051,0.936-0.155
		c0.238-0.148,0.357-0.438,0.357-0.87v-0.869c0-0.431-0.119-0.721-0.357-0.87C-318.753,562.235-319.065,562.183-319.51,562.183z"/>
	<path id="XMLID_211_" style="fill:#FFFFFF;" d="M-310.795,558.394c0-1.07,0.201-1.791,0.602-2.162
		c0.401-0.371,1.151-0.558,2.251-0.558h8.47c1.099,0,1.85,0.187,2.251,0.558c0.401,0.371,0.602,1.092,0.602,2.162v6.063
		c0,1.07-0.201,1.791-0.602,2.162c-0.401,0.371-1.152,0.557-2.251,0.557h-8.47c-1.1,0-1.85-0.186-2.251-0.557
		c-0.401-0.371-0.602-1.092-0.602-2.162V558.394z M-308.121,565.014h8.827v-7.288h-8.827V565.014z"/>
	<path id="XMLID_208_" style="fill:#FFFFFF;" d="M-290.981,567.176v-11.502h9.852c1.724,0,2.585,0.744,2.585,2.23v2.696
		c0,1.486-0.862,2.23-2.585,2.23h-1.515l5.305,4.346h-3.833l-4.636-4.346h-2.541v4.346H-290.981L-290.981,567.176z
		 M-282.333,557.636h-6.018v3.232h6.018c0.416,0,0.706-0.045,0.869-0.134c0.223-0.134,0.334-0.397,0.334-0.786v-1.392
		c0-0.389-0.112-0.65-0.334-0.786C-281.627,557.681-281.917,557.636-282.333,557.636z"/>
	<path id="XMLID_205_" style="fill:#FFFFFF;" d="M-275.312,567.176l6.509-11.502h2.585l6.598,11.502h-3.009l-1.382-2.519h-7.289
		l-1.337,2.519H-275.312z M-270.163,562.585h5.037l-2.474-4.681L-270.163,562.585z"/>
	<path id="XMLID_203_" style="fill:#FFFFFF;" d="M-250.571,557.726v9.45h-2.675v-9.45h-5.283v-2.051h13.262v2.051H-250.571z"/>
	<path id="XMLID_200_" style="fill:#FFFFFF;" d="M-242.235,558.394c0-1.07,0.201-1.791,0.602-2.162
		c0.401-0.371,1.151-0.558,2.251-0.558h8.47c1.099,0,1.85,0.187,2.251,0.558c0.401,0.371,0.602,1.092,0.602,2.162v6.063
		c0,1.07-0.201,1.791-0.602,2.162c-0.401,0.371-1.152,0.557-2.251,0.557h-8.47c-1.1,0-1.85-0.186-2.251-0.557
		c-0.401-0.371-0.602-1.092-0.602-2.162V558.394z M-239.56,565.014h8.827v-7.288h-8.827V565.014z"/>
	<path id="XMLID_197_" style="fill:#FFFFFF;" d="M-222.42,567.176v-11.502h9.852c1.724,0,2.585,0.744,2.585,2.23v2.696
		c0,1.486-0.862,2.23-2.585,2.23h-1.515l5.305,4.346h-3.833l-4.636-4.346h-2.541v4.346H-222.42L-222.42,567.176z M-213.772,557.636
		h-6.018v3.232h6.018c0.416,0,0.706-0.045,0.869-0.134c0.223-0.134,0.334-0.397,0.334-0.786v-1.392c0-0.389-0.112-0.65-0.334-0.786
		C-213.066,557.681-213.356,557.636-213.772,557.636z"/>
	<path id="XMLID_195_" style="fill:#FFFFFF;" d="M-201.335,567.176v-5.149l-5.974-6.353h3.566l3.945,4.414l3.967-4.414h3.143
		l-5.951,6.286v5.216H-201.335L-201.335,567.176z"/>
</g>
</svg>
