<?xml version="1.0" encoding="utf-8"?>
<!-- Generated by IcoMoon.io -->
<!DOCTYPE svg PUBLIC "-//W3C//DTD SVG 1.1//EN" "http://www.w3.org/Graphics/SVG/1.1/DTD/svg11.dtd">
<svg version="1.1" xmlns="http://www.w3.org/2000/svg" xmlns:xlink="http://www.w3.org/1999/xlink" width="64" height="96" viewBox="0 0 64 96">
<svg id="icon-LOGO_basic_01" width="46" height="32" viewBox="0 0 46 32" x="0" y="0">
<path fill="#f6d257" d="M4.683 18.716h-0.937v0.309h0.896c0.138 0 0.228 0.024 0.285 0.065 0.049 0.049 0.073 0.138 0.073 0.269v0.195c0 0.13-0.024 0.22-0.073 0.269s-0.147 0.065-0.285 0.065h-0.888c-0.138 0-0.228-0.024-0.285-0.065-0.049-0.049-0.073-0.138-0.073-0.269v-0.041l0.293-0.057v0.171h1.010v-0.326h-0.888c-0.138 0-0.228-0.024-0.277-0.073s-0.073-0.138-0.073-0.269v-0.155c0-0.13 0.024-0.22 0.073-0.269s0.147-0.065 0.277-0.065h0.814c0.13 0 0.22 0.024 0.277 0.065 0.049 0.041 0.081 0.13 0.081 0.244v0.033l-0.293 0.073v-0.171h-0.008z"></path>
<path fill="#fff" d="M5.579 19.897v-1.002h0.855c0.147 0 0.228 0.065 0.228 0.195v0.22c0 0.13-0.073 0.195-0.228 0.195h-0.627v0.391h-0.228zM6.328 19.066h-0.521v0.269h0.521c0.033 0 0.065 0 0.073-0.008 0.016-0.008 0.033-0.033 0.033-0.065v-0.106c0-0.033-0.008-0.057-0.033-0.065-0.008-0.016-0.033-0.024-0.073-0.024z"></path>
<path fill="#fff" d="M6.825 19.897l0.562-1.002h0.228l0.57 1.002h-0.261l-0.122-0.22h-0.635l-0.114 0.22h-0.228zM7.273 19.498h0.44l-0.212-0.407-0.228 0.407z"></path>
<path fill="#fff" d="M8.975 19.075v0.823h-0.236v-0.823h-0.456v-0.179h1.157v0.179h-0.464z"></path>
<path fill="#fff" d="M9.725 19.897v-1.002h0.236v1.002h-0.236z"></path>
<path fill="#fff" d="M10.449 19.132c0-0.090 0.016-0.155 0.049-0.187s0.098-0.049 0.195-0.049h0.733c0.098 0 0.163 0.016 0.195 0.049s0.049 0.098 0.049 0.187v0.529c0 0.090-0.016 0.155-0.049 0.187s-0.098 0.049-0.195 0.049h-0.733c-0.098 0-0.163-0.016-0.195-0.049s-0.049-0.098-0.049-0.187v-0.529zM10.678 19.71h0.766v-0.635h-0.766v0.635z"></path>
<path fill="#f6d257" d="M12.942 18.724v1.173h-0.334v-1.173h-0.66v-0.252h1.653v0.252h-0.66z"></path>
<path fill="#fff" d="M13.903 19.897v-1.002h1.026v0.171h-0.79v0.22h0.464v0.171h-0.464v0.244h0.798v0.187h-1.034v0.008z"></path>
<path fill="#fff" d="M15.361 19.897v-1.002h0.187l0.472 0.603 0.464-0.603h0.187v1.002h-0.22v-0.619c0-0.024 0-0.057 0.008-0.106-0.024 0.049-0.041 0.081-0.057 0.106l-0.375 0.497h-0.049l-0.375-0.505c-0.024-0.033-0.049-0.073-0.057-0.106 0 0.041 0.008 0.073 0.008 0.106v0.619h-0.195v0.008z"></path>
<path fill="#fff" d="M17.161 19.897v-1.002h0.855c0.147 0 0.228 0.065 0.228 0.195v0.22c0 0.13-0.073 0.195-0.228 0.195h-0.627v0.391h-0.228zM17.91 19.066h-0.521v0.269h0.521c0.033 0 0.065 0 0.073-0.008 0.016-0.008 0.033-0.033 0.033-0.065v-0.106c0-0.033-0.008-0.057-0.033-0.065-0.008-0.016-0.033-0.024-0.073-0.024z"></path>
<path fill="#fff" d="M18.578 19.132c0-0.090 0.016-0.155 0.049-0.187s0.098-0.049 0.195-0.049h0.733c0.098 0 0.163 0.016 0.195 0.049s0.049 0.098 0.049 0.187v0.529c0 0.090-0.016 0.155-0.049 0.187s-0.098 0.049-0.195 0.049h-0.733c-0.098 0-0.163-0.016-0.195-0.049s-0.049-0.098-0.049-0.187v-0.529zM18.814 19.71h0.766v-0.635h-0.766v0.635z"></path>
<path fill="#fff" d="M20.304 19.897v-1.002h0.855c0.147 0 0.228 0.065 0.228 0.195v0.236c0 0.13-0.073 0.195-0.228 0.195h-0.13l0.464 0.375h-0.334l-0.407-0.375h-0.22v0.375h-0.228zM21.054 19.066h-0.521v0.285h0.521c0.033 0 0.065 0 0.073-0.008 0.016-0.008 0.033-0.033 0.033-0.065v-0.122c0-0.033-0.008-0.057-0.033-0.065-0.016-0.016-0.041-0.024-0.073-0.024z"></path>
<path fill="#fff" d="M21.665 19.897l0.562-1.002h0.228l0.57 1.002h-0.261l-0.122-0.22h-0.635l-0.114 0.22h-0.228zM22.113 19.498h0.44l-0.212-0.407-0.228 0.407z"></path>
<path fill="#fff" d="M23.35 19.897v-1.002h0.236v0.814h0.749v0.187h-0.986z"></path>
<path fill="#f6d257" d="M3.445 23.22v-1.425h1.466v0.244h-1.132v0.318h0.66v0.244h-0.66v0.358h1.14v0.269l-1.474-0.008z"></path>
<path fill="#fff" d="M5.424 23.22v-1.002h0.163l0.7 0.586c0.049 0.041 0.090 0.081 0.114 0.106-0.008-0.090-0.008-0.147-0.008-0.171v-0.529h0.212v1.002h-0.163l-0.733-0.619c-0.033-0.024-0.057-0.057-0.081-0.081 0.008 0.065 0.008 0.114 0.008 0.163v0.538h-0.212v0.008z"></path>
<path fill="#fff" d="M7.452 23.22l-0.578-1.002h0.269l0.407 0.725 0.383-0.725h0.236l-0.554 1.002h-0.163z"></path>
<path fill="#fff" d="M8.43 23.22v-1.002h0.236v1.002h-0.236z"></path>
<path fill="#fff" d="M9.179 23.22v-1.002h0.855c0.147 0 0.228 0.065 0.228 0.195v0.236c0 0.13-0.073 0.195-0.228 0.195h-0.13l0.464 0.375h-0.334l-0.407-0.375h-0.22v0.375h-0.228zM9.928 22.389h-0.521v0.285h0.521c0.033 0 0.065 0 0.073-0.008 0.016-0.008 0.033-0.033 0.033-0.065v-0.122c0-0.033-0.008-0.057-0.033-0.065-0.008-0.016-0.041-0.024-0.073-0.024z"></path>
<path fill="#fff" d="M10.71 22.455c0-0.090 0.016-0.155 0.049-0.187s0.098-0.049 0.195-0.049h0.733c0.098 0 0.163 0.016 0.195 0.049s0.049 0.098 0.049 0.187v0.529c0 0.090-0.016 0.155-0.049 0.187s-0.098 0.049-0.195 0.049h-0.733c-0.098 0-0.163-0.016-0.195-0.049s-0.049-0.098-0.049-0.187v-0.529zM10.946 23.033h0.766v-0.635h-0.766v0.635z"></path>
<path fill="#fff" d="M12.429 23.22v-1.002h0.163l0.7 0.586c0.049 0.041 0.090 0.081 0.114 0.106-0.008-0.090-0.008-0.147-0.008-0.171v-0.529h0.212v1.002h-0.163l-0.733-0.619c-0.033-0.024-0.057-0.057-0.081-0.081 0.008 0.065 0.008 0.114 0.008 0.163v0.538h-0.212v0.008z"></path>
<path fill="#fff" d="M14.115 23.22v-1.002h0.187l0.472 0.603 0.464-0.603h0.187v1.002h-0.212v-0.619c0-0.024 0-0.057 0.008-0.106-0.024 0.049-0.041 0.081-0.057 0.106l-0.375 0.497h-0.049l-0.375-0.505c-0.024-0.033-0.049-0.073-0.057-0.106 0 0.041 0.008 0.073 0.008 0.106v0.619h-0.204v0.008z"></path>
<path fill="#fff" d="M15.914 23.22v-1.002h1.026v0.171h-0.79v0.22h0.464v0.171h-0.464v0.244h0.798v0.187l-1.034 0.008z"></path>
<path fill="#fff" d="M17.372 23.22v-1.002h0.163l0.7 0.586c0.049 0.041 0.090 0.081 0.114 0.106-0.008-0.090-0.008-0.147-0.008-0.171v-0.529h0.212v1.002h-0.163l-0.733-0.619c-0.033-0.024-0.057-0.057-0.081-0.081 0.008 0.065 0.008 0.114 0.008 0.163v0.538h-0.212v0.008z"></path>
<path fill="#fff" d="M19.523 22.398v0.823h-0.236v-0.823h-0.456v-0.179h1.157v0.179h-0.464z"></path>
<path fill="#fff" d="M20.076 23.22l0.562-1.002h0.228l0.57 1.002h-0.261l-0.122-0.22h-0.635l-0.114 0.22h-0.228zM20.524 22.821h0.44l-0.212-0.407-0.228 0.407z"></path>
<path fill="#fff" d="M21.762 23.22v-1.002h0.236v0.814h0.749v0.187h-0.985z"></path>
<path fill="#fff" d="M3.339 26.543v-1.002h0.236v1.002h-0.236z"></path>
<path fill="#fff" d="M4.080 26.543v-1.002h0.163l0.7 0.586c0.049 0.041 0.090 0.081 0.114 0.106-0.008-0.090-0.008-0.147-0.008-0.171v-0.529h0.212v1.002h-0.163l-0.733-0.619c-0.033-0.024-0.057-0.057-0.081-0.081 0.008 0.065 0.008 0.114 0.008 0.163v0.538l-0.212 0.008z"></path>
<path fill="#fff" d="M5.766 26.543v-1.002h1.010v0.171h-0.782v0.261h0.424v0.179h-0.424v0.383l-0.228 0.008z"></path>
<path fill="#fff" d="M7.045 25.778c0-0.090 0.016-0.155 0.049-0.187s0.098-0.049 0.195-0.049h0.733c0.098 0 0.163 0.016 0.195 0.049s0.049 0.098 0.049 0.187v0.529c0 0.090-0.016 0.155-0.049 0.187s-0.098 0.049-0.195 0.049h-0.733c-0.098 0-0.163-0.016-0.195-0.049s-0.049-0.098-0.049-0.187v-0.529zM7.281 26.356h0.766v-0.635h-0.766v0.635z"></path>
<path fill="#fff" d="M8.772 26.543v-1.002h0.855c0.147 0 0.228 0.065 0.228 0.195v0.236c0 0.13-0.073 0.195-0.228 0.195h-0.13l0.464 0.375h-0.334l-0.407-0.375h-0.22v0.375h-0.228zM9.521 25.712h-0.521v0.285h0.521c0.033 0 0.065 0 0.073-0.008 0.016-0.008 0.033-0.033 0.033-0.065v-0.122c0-0.033-0.008-0.057-0.033-0.065-0.016-0.016-0.041-0.024-0.073-0.024z"></path>
<path fill="#f6d257" d="M10.433 26.543v-1.425h0.269l0.676 0.863 0.66-0.863h0.269v1.425h-0.309v-0.888c0-0.033 0-0.090 0.008-0.155-0.033 0.073-0.065 0.122-0.081 0.147l-0.538 0.717h-0.065l-0.538-0.717c-0.041-0.049-0.065-0.098-0.090-0.147 0.008 0.057 0.008 0.106 0.008 0.155v0.88l-0.269 0.008z"></path>
<path fill="#fff" d="M12.697 26.543l0.562-1.002h0.228l0.57 1.002h-0.261l-0.122-0.22h-0.635l-0.114 0.22h-0.228zM13.145 26.144h0.44l-0.212-0.407-0.228 0.407z"></path>
<path fill="#fff" d="M14.848 25.721v0.823h-0.236v-0.823h-0.456v-0.179h1.157v0.179h-0.464z"></path>
<path fill="#fff" d="M15.597 26.543v-1.002h0.236v1.002h-0.236z"></path>
<path fill="#fff" d="M17.177 25.721h-0.627v0.635h0.627v-0.212l0.236 0.049v0.122c0 0.090-0.016 0.155-0.049 0.187s-0.098 0.049-0.195 0.049h-0.595c-0.098 0-0.163-0.016-0.195-0.049s-0.049-0.098-0.049-0.187v-0.529c0-0.090 0.016-0.155 0.049-0.187s0.098-0.049 0.195-0.049h0.595c0.098 0 0.163 0.016 0.195 0.049s0.049 0.098 0.049 0.187v0.098l-0.236 0.041v-0.204z"></path>
<path fill="#fff" d="M18.757 25.721h-0.66v0.212h0.627c0.098 0 0.163 0.016 0.195 0.049s0.057 0.098 0.057 0.187v0.138c0 0.090-0.016 0.155-0.057 0.187s-0.098 0.049-0.195 0.049h-0.619c-0.098 0-0.163-0.016-0.195-0.049s-0.057-0.098-0.057-0.187v-0.024l0.204-0.041v0.122h0.709v-0.228h-0.627c-0.098 0-0.163-0.016-0.195-0.049s-0.049-0.098-0.049-0.187v-0.114c0-0.090 0.016-0.155 0.049-0.187s0.098-0.049 0.195-0.049h0.57c0.090 0 0.155 0.016 0.195 0.049s0.057 0.090 0.057 0.171v0.024l-0.204 0.049v-0.122z"></path>
<path fill="#f6d257" d="M3.445 29.866v-1.425h0.334v1.157h1.075v0.269h-1.409z"></path>
<path fill="#f6d257" d="M5.033 29.866l0.562-1.002h0.228l0.57 1.002h-0.261l-0.122-0.22h-0.635l-0.114 0.22h-0.228zM5.481 29.467h0.44l-0.212-0.407-0.228 0.407z"></path>
<path fill="#f6d257" d="M6.719 29.866v-1.002h0.855c0.147 0 0.228 0.065 0.228 0.195v0.122c0 0.098-0.057 0.155-0.171 0.171 0.122 0.016 0.179 0.081 0.179 0.195v0.13c0 0.13-0.098 0.195-0.293 0.195l-0.798-0.008zM7.485 29.027h-0.529v0.236h0.529c0.073 0 0.106-0.024 0.106-0.073v-0.098c0-0.041-0.041-0.065-0.106-0.065zM7.485 29.434h-0.529v0.252h0.529c0.041 0 0.065-0.008 0.081-0.016 0.024-0.016 0.033-0.041 0.033-0.073v-0.073c0-0.041-0.008-0.065-0.033-0.073-0.016-0.016-0.049-0.016-0.081-0.016z"></path>
<path fill="#fff" d="M8.242 29.101c0-0.090 0.016-0.155 0.049-0.187s0.098-0.049 0.195-0.049h0.733c0.098 0 0.163 0.016 0.195 0.049s0.049 0.098 0.049 0.187v0.529c0 0.090-0.016 0.155-0.049 0.187s-0.098 0.049-0.195 0.049h-0.733c-0.098 0-0.163-0.016-0.195-0.049s-0.049-0.098-0.049-0.187v-0.529zM8.47 29.679h0.766v-0.635h-0.766v0.635z"></path>
<path fill="#fff" d="M9.961 29.866v-1.002h0.855c0.147 0 0.228 0.065 0.228 0.195v0.236c0 0.13-0.073 0.195-0.228 0.195h-0.13l0.464 0.375h-0.334l-0.407-0.375h-0.22v0.375h-0.228zM10.718 29.035h-0.521v0.285h0.521c0.033 0 0.065 0 0.073-0.008 0.016-0.008 0.033-0.033 0.033-0.065v-0.122c0-0.033-0.008-0.057-0.033-0.065-0.016-0.016-0.041-0.024-0.073-0.024z"></path>
<path fill="#fff" d="M11.329 29.866l0.562-1.002h0.228l0.57 1.002h-0.261l-0.122-0.22h-0.635l-0.114 0.22h-0.228zM11.777 29.467h0.44l-0.212-0.407-0.228 0.407z"></path>
<path fill="#fff" d="M13.479 29.044v0.823h-0.236v-0.823h-0.456v-0.179h1.157v0.179h-0.464z"></path>
<path fill="#fff" d="M14.204 29.101c0-0.090 0.016-0.155 0.049-0.187s0.098-0.049 0.195-0.049h0.733c0.098 0 0.163 0.016 0.195 0.049s0.049 0.098 0.049 0.187v0.529c0 0.090-0.016 0.155-0.049 0.187s-0.098 0.049-0.195 0.049h-0.733c-0.098 0-0.163-0.016-0.195-0.049s-0.049-0.098-0.049-0.187v-0.529zM14.432 29.679h0.766v-0.635h-0.766v0.635z"></path>
<path fill="#fff" d="M15.923 29.866v-1.002h0.855c0.147 0 0.228 0.065 0.228 0.195v0.236c0 0.13-0.073 0.195-0.228 0.195h-0.13l0.464 0.375h-0.334l-0.407-0.375h-0.22v0.375h-0.228zM16.68 29.035h-0.521v0.285h0.521c0.033 0 0.065 0 0.073-0.008 0.016-0.008 0.033-0.033 0.033-0.065v-0.122c0-0.033-0.008-0.057-0.033-0.065-0.016-0.016-0.041-0.024-0.073-0.024z"></path>
<path fill="#fff" d="M17.763 29.866v-0.448l-0.521-0.554h0.309l0.342 0.383 0.342-0.383h0.277l-0.521 0.546v0.456h-0.228z"></path>
<path fill="#fff" d="M7.941 11.068c-0.994 1.45 3.266 0.635 3.266 1.955 0 1.311-4.097-0.741-5.066 0.684-0.521 0.766-0.228 0.22-1.1 1.507 0 0 0.994-1.344 4.463-0.554 2.94 0 3.185-1.189 2.614-2.028-1.23-1.792-4.26-0.513-4.178-1.564z"></path>
<path fill="#fff" d="M11.158 11.231c-0.195-0.285-0.66-0.969-0.66-0.969s-1.433-0.847-2.557 0.806c0.611-0.896 2.704-0.586 3.217 0.163z"></path>
<path fill="#fff" d="M14.489 10.661h-1.653v0.652h1.71v3.014h0.733v-3.014h1.873v-0.652h-1.784z"></path>
<path fill="#fff" d="M18.211 10.661v3.665h3.421v-0.652h-2.525v-0.896h2.525v-0.652h-2.525v-0.814h2.525v-0.652h-2.492z"></path>
<path fill="#fff" d="M25.256 12.429l-0.961-2.077-1.686 3.934 0.603 0.252 1.108-2.582 0.961 2.077 0.871-2.036 1.067 2.541 0.603-0.252-1.662-3.958z"></path>
<path fill="#fff" d="M39.656 10.906h-3.69l-0.049 2.851h-0.269l-1.727-2.997-1.743 2.997h-2.655v-3.258h-0.652v3.909h3.681l1.368-2.346 1.352 2.346h4.308l-1.547-1.865 1.621-1.637zM38.206 13.756h-1.629l0.041-2.199h1.482l-0.937 0.945 1.042 1.254z"></path>
</svg>
<svg id="icon-LOGO_basic_02" width="46" height="32" viewBox="0 0 46 32" x="0" y="32">
<path fill="#5c7148" d="M44.763 19.889l-18.008 12.111h18.008z"></path>
<path fill="#f6d257" d="M4.683 18.716h-0.937v0.309h0.896c0.138 0 0.228 0.024 0.285 0.065 0.049 0.049 0.073 0.138 0.073 0.269v0.195c0 0.13-0.024 0.22-0.073 0.269s-0.147 0.065-0.285 0.065h-0.888c-0.138 0-0.228-0.024-0.285-0.065-0.049-0.049-0.073-0.138-0.073-0.269v-0.041l0.293-0.057v0.171h1.010v-0.326h-0.888c-0.138 0-0.228-0.024-0.277-0.073s-0.073-0.138-0.073-0.269v-0.155c0-0.13 0.024-0.22 0.073-0.269s0.147-0.065 0.277-0.065h0.814c0.13 0 0.22 0.024 0.277 0.065 0.049 0.041 0.081 0.13 0.081 0.244v0.033l-0.293 0.073v-0.171h-0.008z"></path>
<path fill="#fff" d="M5.579 19.897v-1.002h0.855c0.147 0 0.228 0.065 0.228 0.195v0.22c0 0.13-0.073 0.195-0.228 0.195h-0.627v0.391h-0.228zM6.328 19.066h-0.521v0.269h0.521c0.033 0 0.065 0 0.073-0.008 0.016-0.008 0.033-0.033 0.033-0.065v-0.106c0-0.033-0.008-0.057-0.033-0.065-0.008-0.016-0.033-0.024-0.073-0.024z"></path>
<path fill="#fff" d="M6.825 19.897l0.562-1.002h0.228l0.57 1.002h-0.261l-0.122-0.22h-0.635l-0.114 0.22h-0.228zM7.273 19.498h0.44l-0.212-0.407-0.228 0.407z"></path>
<path fill="#fff" d="M8.975 19.075v0.823h-0.236v-0.823h-0.456v-0.179h1.157v0.179h-0.464z"></path>
<path fill="#fff" d="M9.725 19.897v-1.002h0.236v1.002h-0.236z"></path>
<path fill="#fff" d="M10.449 19.132c0-0.090 0.016-0.155 0.049-0.187s0.098-0.049 0.195-0.049h0.733c0.098 0 0.163 0.016 0.195 0.049s0.049 0.098 0.049 0.187v0.529c0 0.090-0.016 0.155-0.049 0.187s-0.098 0.049-0.195 0.049h-0.733c-0.098 0-0.163-0.016-0.195-0.049s-0.049-0.098-0.049-0.187v-0.529zM10.678 19.71h0.766v-0.635h-0.766v0.635z"></path>
<path fill="#f6d257" d="M12.942 18.724v1.173h-0.334v-1.173h-0.66v-0.252h1.653v0.252h-0.66z"></path>
<path fill="#fff" d="M13.903 19.897v-1.002h1.026v0.171h-0.79v0.22h0.464v0.171h-0.464v0.244h0.798v0.187h-1.034v0.008z"></path>
<path fill="#fff" d="M15.361 19.897v-1.002h0.187l0.472 0.603 0.464-0.603h0.187v1.002h-0.22v-0.619c0-0.024 0-0.057 0.008-0.106-0.024 0.049-0.041 0.081-0.057 0.106l-0.375 0.497h-0.049l-0.375-0.505c-0.024-0.033-0.049-0.073-0.057-0.106 0 0.041 0.008 0.073 0.008 0.106v0.619h-0.195v0.008z"></path>
<path fill="#fff" d="M17.161 19.897v-1.002h0.855c0.147 0 0.228 0.065 0.228 0.195v0.22c0 0.13-0.073 0.195-0.228 0.195h-0.627v0.391h-0.228zM17.91 19.066h-0.521v0.269h0.521c0.033 0 0.065 0 0.073-0.008 0.016-0.008 0.033-0.033 0.033-0.065v-0.106c0-0.033-0.008-0.057-0.033-0.065-0.008-0.016-0.033-0.024-0.073-0.024z"></path>
<path fill="#fff" d="M18.578 19.132c0-0.090 0.016-0.155 0.049-0.187s0.098-0.049 0.195-0.049h0.733c0.098 0 0.163 0.016 0.195 0.049s0.049 0.098 0.049 0.187v0.529c0 0.090-0.016 0.155-0.049 0.187s-0.098 0.049-0.195 0.049h-0.733c-0.098 0-0.163-0.016-0.195-0.049s-0.049-0.098-0.049-0.187v-0.529zM18.814 19.71h0.766v-0.635h-0.766v0.635z"></path>
<path fill="#fff" d="M20.304 19.897v-1.002h0.855c0.147 0 0.228 0.065 0.228 0.195v0.236c0 0.13-0.073 0.195-0.228 0.195h-0.13l0.464 0.375h-0.334l-0.407-0.375h-0.22v0.375h-0.228zM21.054 19.066h-0.521v0.285h0.521c0.033 0 0.065 0 0.073-0.008 0.016-0.008 0.033-0.033 0.033-0.065v-0.122c0-0.033-0.008-0.057-0.033-0.065-0.016-0.016-0.041-0.024-0.073-0.024z"></path>
<path fill="#fff" d="M21.665 19.897l0.562-1.002h0.228l0.57 1.002h-0.261l-0.122-0.22h-0.635l-0.114 0.22h-0.228zM22.113 19.498h0.44l-0.212-0.407-0.228 0.407z"></path>
<path fill="#fff" d="M23.35 19.897v-1.002h0.236v0.814h0.749v0.187h-0.986z"></path>
<path fill="#f6d257" d="M3.445 23.22v-1.425h1.466v0.244h-1.132v0.318h0.66v0.244h-0.66v0.358h1.14v0.269l-1.474-0.008z"></path>
<path fill="#fff" d="M5.424 23.22v-1.002h0.163l0.7 0.586c0.049 0.041 0.090 0.081 0.114 0.106-0.008-0.090-0.008-0.147-0.008-0.171v-0.529h0.212v1.002h-0.163l-0.733-0.619c-0.033-0.024-0.057-0.057-0.081-0.081 0.008 0.065 0.008 0.114 0.008 0.163v0.538h-0.212v0.008z"></path>
<path fill="#fff" d="M7.452 23.22l-0.578-1.002h0.269l0.407 0.725 0.383-0.725h0.236l-0.554 1.002h-0.163z"></path>
<path fill="#fff" d="M8.43 23.22v-1.002h0.236v1.002h-0.236z"></path>
<path fill="#fff" d="M9.179 23.22v-1.002h0.855c0.147 0 0.228 0.065 0.228 0.195v0.236c0 0.13-0.073 0.195-0.228 0.195h-0.13l0.464 0.375h-0.334l-0.407-0.375h-0.22v0.375h-0.228zM9.928 22.389h-0.521v0.285h0.521c0.033 0 0.065 0 0.073-0.008 0.016-0.008 0.033-0.033 0.033-0.065v-0.122c0-0.033-0.008-0.057-0.033-0.065-0.008-0.016-0.041-0.024-0.073-0.024z"></path>
<path fill="#fff" d="M10.71 22.455c0-0.090 0.016-0.155 0.049-0.187s0.098-0.049 0.195-0.049h0.733c0.098 0 0.163 0.016 0.195 0.049s0.049 0.098 0.049 0.187v0.529c0 0.090-0.016 0.155-0.049 0.187s-0.098 0.049-0.195 0.049h-0.733c-0.098 0-0.163-0.016-0.195-0.049s-0.049-0.098-0.049-0.187v-0.529zM10.946 23.033h0.766v-0.635h-0.766v0.635z"></path>
<path fill="#fff" d="M12.429 23.22v-1.002h0.163l0.7 0.586c0.049 0.041 0.090 0.081 0.114 0.106-0.008-0.090-0.008-0.147-0.008-0.171v-0.529h0.212v1.002h-0.163l-0.733-0.619c-0.033-0.024-0.057-0.057-0.081-0.081 0.008 0.065 0.008 0.114 0.008 0.163v0.538h-0.212v0.008z"></path>
<path fill="#fff" d="M14.115 23.22v-1.002h0.187l0.472 0.603 0.464-0.603h0.187v1.002h-0.212v-0.619c0-0.024 0-0.057 0.008-0.106-0.024 0.049-0.041 0.081-0.057 0.106l-0.375 0.497h-0.049l-0.375-0.505c-0.024-0.033-0.049-0.073-0.057-0.106 0 0.041 0.008 0.073 0.008 0.106v0.619h-0.204v0.008z"></path>
<path fill="#fff" d="M15.914 23.22v-1.002h1.026v0.171h-0.79v0.22h0.464v0.171h-0.464v0.244h0.798v0.187l-1.034 0.008z"></path>
<path fill="#fff" d="M17.372 23.22v-1.002h0.163l0.7 0.586c0.049 0.041 0.090 0.081 0.114 0.106-0.008-0.090-0.008-0.147-0.008-0.171v-0.529h0.212v1.002h-0.163l-0.733-0.619c-0.033-0.024-0.057-0.057-0.081-0.081 0.008 0.065 0.008 0.114 0.008 0.163v0.538h-0.212v0.008z"></path>
<path fill="#fff" d="M19.523 22.398v0.823h-0.236v-0.823h-0.456v-0.179h1.157v0.179h-0.464z"></path>
<path fill="#fff" d="M20.076 23.22l0.562-1.002h0.228l0.57 1.002h-0.261l-0.122-0.22h-0.635l-0.114 0.22h-0.228zM20.524 22.821h0.44l-0.212-0.407-0.228 0.407z"></path>
<path fill="#fff" d="M21.762 23.22v-1.002h0.236v0.814h0.749v0.187h-0.985z"></path>
<path fill="#fff" d="M3.339 26.543v-1.002h0.236v1.002h-0.236z"></path>
<path fill="#fff" d="M4.080 26.543v-1.002h0.163l0.7 0.586c0.049 0.041 0.090 0.081 0.114 0.106-0.008-0.090-0.008-0.147-0.008-0.171v-0.529h0.212v1.002h-0.163l-0.733-0.619c-0.033-0.024-0.057-0.057-0.081-0.081 0.008 0.065 0.008 0.114 0.008 0.163v0.538l-0.212 0.008z"></path>
<path fill="#fff" d="M5.766 26.543v-1.002h1.010v0.171h-0.782v0.261h0.424v0.179h-0.424v0.383l-0.228 0.008z"></path>
<path fill="#fff" d="M7.045 25.778c0-0.090 0.016-0.155 0.049-0.187s0.098-0.049 0.195-0.049h0.733c0.098 0 0.163 0.016 0.195 0.049s0.049 0.098 0.049 0.187v0.529c0 0.090-0.016 0.155-0.049 0.187s-0.098 0.049-0.195 0.049h-0.733c-0.098 0-0.163-0.016-0.195-0.049s-0.049-0.098-0.049-0.187v-0.529zM7.281 26.356h0.766v-0.635h-0.766v0.635z"></path>
<path fill="#fff" d="M8.772 26.543v-1.002h0.855c0.147 0 0.228 0.065 0.228 0.195v0.236c0 0.13-0.073 0.195-0.228 0.195h-0.13l0.464 0.375h-0.334l-0.407-0.375h-0.22v0.375h-0.228zM9.521 25.712h-0.521v0.285h0.521c0.033 0 0.065 0 0.073-0.008 0.016-0.008 0.033-0.033 0.033-0.065v-0.122c0-0.033-0.008-0.057-0.033-0.065-0.016-0.016-0.041-0.024-0.073-0.024z"></path>
<path fill="#f6d257" d="M10.433 26.543v-1.425h0.269l0.676 0.863 0.66-0.863h0.269v1.425h-0.309v-0.888c0-0.033 0-0.090 0.008-0.155-0.033 0.073-0.065 0.122-0.081 0.147l-0.538 0.717h-0.065l-0.538-0.717c-0.041-0.049-0.065-0.098-0.090-0.147 0.008 0.057 0.008 0.106 0.008 0.155v0.88l-0.269 0.008z"></path>
<path fill="#fff" d="M12.697 26.543l0.562-1.002h0.228l0.57 1.002h-0.261l-0.122-0.22h-0.635l-0.114 0.22h-0.228zM13.145 26.144h0.44l-0.212-0.407-0.228 0.407z"></path>
<path fill="#fff" d="M14.848 25.721v0.823h-0.236v-0.823h-0.456v-0.179h1.157v0.179h-0.464z"></path>
<path fill="#fff" d="M15.597 26.543v-1.002h0.236v1.002h-0.236z"></path>
<path fill="#fff" d="M17.177 25.721h-0.627v0.635h0.627v-0.212l0.236 0.049v0.122c0 0.090-0.016 0.155-0.049 0.187s-0.098 0.049-0.195 0.049h-0.595c-0.098 0-0.163-0.016-0.195-0.049s-0.049-0.098-0.049-0.187v-0.529c0-0.090 0.016-0.155 0.049-0.187s0.098-0.049 0.195-0.049h0.595c0.098 0 0.163 0.016 0.195 0.049s0.049 0.098 0.049 0.187v0.098l-0.236 0.041v-0.204z"></path>
<path fill="#fff" d="M18.757 25.721h-0.66v0.212h0.627c0.098 0 0.163 0.016 0.195 0.049s0.057 0.098 0.057 0.187v0.138c0 0.090-0.016 0.155-0.057 0.187s-0.098 0.049-0.195 0.049h-0.619c-0.098 0-0.163-0.016-0.195-0.049s-0.057-0.098-0.057-0.187v-0.024l0.204-0.041v0.122h0.709v-0.228h-0.627c-0.098 0-0.163-0.016-0.195-0.049s-0.049-0.098-0.049-0.187v-0.114c0-0.090 0.016-0.155 0.049-0.187s0.098-0.049 0.195-0.049h0.57c0.090 0 0.155 0.016 0.195 0.049s0.057 0.090 0.057 0.171v0.024l-0.204 0.049v-0.122z"></path>
<path fill="#f6d257" d="M3.445 29.866v-1.425h0.334v1.157h1.075v0.269h-1.409z"></path>
<path fill="#f6d257" d="M5.033 29.866l0.562-1.002h0.228l0.57 1.002h-0.261l-0.122-0.22h-0.635l-0.114 0.22h-0.228zM5.481 29.467h0.44l-0.212-0.407-0.228 0.407z"></path>
<path fill="#f6d257" d="M6.719 29.866v-1.002h0.855c0.147 0 0.228 0.065 0.228 0.195v0.122c0 0.098-0.057 0.155-0.171 0.171 0.122 0.016 0.179 0.081 0.179 0.195v0.13c0 0.13-0.098 0.195-0.293 0.195l-0.798-0.008zM7.485 29.027h-0.529v0.236h0.529c0.073 0 0.106-0.024 0.106-0.073v-0.098c0-0.041-0.041-0.065-0.106-0.065zM7.485 29.434h-0.529v0.252h0.529c0.041 0 0.065-0.008 0.081-0.016 0.024-0.016 0.033-0.041 0.033-0.073v-0.073c0-0.041-0.008-0.065-0.033-0.073-0.016-0.016-0.049-0.016-0.081-0.016z"></path>
<path fill="#fff" d="M8.242 29.101c0-0.090 0.016-0.155 0.049-0.187s0.098-0.049 0.195-0.049h0.733c0.098 0 0.163 0.016 0.195 0.049s0.049 0.098 0.049 0.187v0.529c0 0.090-0.016 0.155-0.049 0.187s-0.098 0.049-0.195 0.049h-0.733c-0.098 0-0.163-0.016-0.195-0.049s-0.049-0.098-0.049-0.187v-0.529zM8.47 29.679h0.766v-0.635h-0.766v0.635z"></path>
<path fill="#fff" d="M9.961 29.866v-1.002h0.855c0.147 0 0.228 0.065 0.228 0.195v0.236c0 0.13-0.073 0.195-0.228 0.195h-0.13l0.464 0.375h-0.334l-0.407-0.375h-0.22v0.375h-0.228zM10.718 29.035h-0.521v0.285h0.521c0.033 0 0.065 0 0.073-0.008 0.016-0.008 0.033-0.033 0.033-0.065v-0.122c0-0.033-0.008-0.057-0.033-0.065-0.016-0.016-0.041-0.024-0.073-0.024z"></path>
<path fill="#fff" d="M11.329 29.866l0.562-1.002h0.228l0.57 1.002h-0.261l-0.122-0.22h-0.635l-0.114 0.22h-0.228zM11.777 29.467h0.44l-0.212-0.407-0.228 0.407z"></path>
<path fill="#fff" d="M13.479 29.044v0.823h-0.236v-0.823h-0.456v-0.179h1.157v0.179h-0.464z"></path>
<path fill="#fff" d="M14.204 29.101c0-0.090 0.016-0.155 0.049-0.187s0.098-0.049 0.195-0.049h0.733c0.098 0 0.163 0.016 0.195 0.049s0.049 0.098 0.049 0.187v0.529c0 0.090-0.016 0.155-0.049 0.187s-0.098 0.049-0.195 0.049h-0.733c-0.098 0-0.163-0.016-0.195-0.049s-0.049-0.098-0.049-0.187v-0.529zM14.432 29.679h0.766v-0.635h-0.766v0.635z"></path>
<path fill="#fff" d="M15.923 29.866v-1.002h0.855c0.147 0 0.228 0.065 0.228 0.195v0.236c0 0.13-0.073 0.195-0.228 0.195h-0.13l0.464 0.375h-0.334l-0.407-0.375h-0.22v0.375h-0.228zM16.68 29.035h-0.521v0.285h0.521c0.033 0 0.065 0 0.073-0.008 0.016-0.008 0.033-0.033 0.033-0.065v-0.122c0-0.033-0.008-0.057-0.033-0.065-0.016-0.016-0.041-0.024-0.073-0.024z"></path>
<path fill="#fff" d="M17.763 29.866v-0.448l-0.521-0.554h0.309l0.342 0.383 0.342-0.383h0.277l-0.521 0.546v0.456h-0.228z"></path>
<path fill="#fff" d="M7.941 11.068c-0.994 1.45 3.266 0.635 3.266 1.955 0 1.311-4.097-0.741-5.066 0.684-0.521 0.766-0.228 0.22-1.1 1.507 0 0 0.994-1.344 4.463-0.554 2.94 0 3.185-1.189 2.614-2.028-1.23-1.792-4.26-0.513-4.178-1.564z"></path>
<path fill="#fff" d="M11.158 11.231c-0.195-0.285-0.66-0.969-0.66-0.969s-1.433-0.847-2.557 0.806c0.611-0.896 2.704-0.586 3.217 0.163z"></path>
<path fill="#fff" d="M14.489 10.661h-1.653v0.652h1.71v3.014h0.733v-3.014h1.873v-0.652h-1.784z"></path>
<path fill="#fff" d="M18.211 10.661v3.665h3.421v-0.652h-2.525v-0.896h2.525v-0.652h-2.525v-0.814h2.525v-0.652h-2.492z"></path>
<path fill="#fff" d="M25.256 12.429l-0.961-2.077-1.686 3.934 0.603 0.252 1.108-2.582 0.961 2.077 0.871-2.036 1.067 2.541 0.603-0.252-1.662-3.958z"></path>
<path fill="#fff" d="M39.656 10.906h-3.69l-0.049 2.851h-0.269l-1.727-2.997-1.743 2.997h-2.655v-3.258h-0.652v3.909h3.681l1.368-2.346 1.352 2.346h4.308l-1.547-1.865 1.621-1.637zM38.206 13.756h-1.629l0.041-2.199h1.482l-0.937 0.945 1.042 1.254z"></path>
<path fill="#d14476" d="M45.267 26.592l-1.564-0.863v1.8z"></path>
<path fill="#d14476" d="M45.267 29.687l-1.564-0.863v1.8z"></path>
<path fill="#efcec5" d="M40.576 26.771h-0.586v0.497h-0.155v-0.497h-0.586v-0.725h0.586v-0.277h0.155v0.277h0.586v0.725zM39.835 26.625v-0.424h-0.424v0.424h0.424zM40.421 26.625v-0.424h-0.432v0.424h0.432z"></path>
<path fill="#efcec5" d="M42.376 27.146l-0.090 0.138c-0.261-0.098-0.481-0.212-0.66-0.35-0.195 0.155-0.415 0.269-0.676 0.342l-0.081-0.138c0.277-0.090 0.489-0.187 0.635-0.309-0.13-0.138-0.244-0.318-0.334-0.554l0.147-0.057c0.081 0.228 0.187 0.399 0.301 0.513 0.122-0.122 0.22-0.301 0.301-0.546h-1.042v-0.155h0.652c-0.033-0.073-0.073-0.147-0.122-0.212l0.163-0.049c0.057 0.098 0.106 0.187 0.138 0.269h0.66v0.155h-0.277c-0.090 0.277-0.204 0.497-0.342 0.652 0.147 0.098 0.35 0.204 0.627 0.301z"></path>
<path fill="#efcec5" d="M34.077 30.224v-1.173h1.205v0.204h-0.928v0.261h0.546v0.204h-0.546v0.293h0.945v0.22h-1.222v-0.008z"></path>
<path fill="#efcec5" d="M35.706 30.224v-0.823h0.13l0.578 0.489c0.041 0.033 0.073 0.065 0.098 0.090-0.008-0.073-0.008-0.122-0.008-0.138v-0.44h0.171v0.823h-0.13l-0.603-0.513c-0.024-0.024-0.049-0.041-0.065-0.065 0.008 0.057 0.008 0.098 0.008 0.13v0.448h-0.179z"></path>
<path fill="#efcec5" d="M37.872 29.549h-0.595v0.521h0.595v-0.187h-0.309v-0.138h0.497v0.285c0 0.073-0.016 0.13-0.041 0.155-0.033 0.024-0.081 0.041-0.163 0.041h-0.57c-0.081 0-0.13-0.016-0.163-0.041s-0.041-0.081-0.041-0.155v-0.432c0-0.073 0.016-0.13 0.041-0.155 0.033-0.024 0.081-0.041 0.163-0.041h0.57c0.073 0 0.13 0.016 0.163 0.041s0.041 0.073 0.041 0.147v0.016l-0.187 0.033v-0.090z"></path>
<path fill="#efcec5" d="M38.467 30.224v-0.823h0.195v0.668h0.619v0.155h-0.814z"></path>
<path fill="#efcec5" d="M39.55 30.224v-0.823h0.195v0.823h-0.195z"></path>
<path fill="#efcec5" d="M40.878 29.54h-0.538v0.179h0.513c0.081 0 0.13 0.016 0.163 0.041s0.041 0.081 0.041 0.155v0.114c0 0.073-0.016 0.13-0.041 0.155-0.033 0.024-0.081 0.041-0.163 0.041h-0.513c-0.081 0-0.13-0.016-0.163-0.041s-0.041-0.081-0.041-0.155v-0.024l0.171-0.033v0.098h0.586v-0.187h-0.513c-0.081 0-0.13-0.016-0.163-0.041s-0.041-0.081-0.041-0.155v-0.090c0-0.073 0.016-0.13 0.041-0.155 0.033-0.024 0.081-0.041 0.163-0.041h0.464c0.073 0 0.13 0.016 0.163 0.041s0.049 0.073 0.049 0.138v0.016l-0.171 0.041v-0.098h-0.008z"></path>
<path fill="#efcec5" d="M41.456 30.224v-0.823h0.195v0.318h0.595v-0.318h0.195v0.823h-0.195v-0.358h-0.595v0.358h-0.195z"></path>
</svg>
</svg>
