<?xml version="1.0" encoding="iso-8859-1"?>
<!-- Generator: Adobe Illustrator 19.0.0, SVG Export Plug-In . SVG Version: 6.00 Build 0)  -->
<svg version="1.1" id="Layer_1" xmlns="http://www.w3.org/2000/svg" xmlns:xlink="http://www.w3.org/1999/xlink" x="0px" y="0px"
	 viewBox="-403 353.506 471.476 94.494" style="enable-background:new -403 353.506 471.476 94.494;" xml:space="preserve">
<g id="STEMLAB">
	<g id="XMLID_23_">
		<path id="XMLID_58_" style="fill:#4D4D4D;" d="M-344.424,380.639c-12.16,17.803,40.114,7.833,40.115,23.995
			c0,16.116-50.284-9.108-62.221,8.369c-6.396,9.387-2.842,2.701-13.542,18.454c0,0,12.226-16.522,54.768-6.811
			c36.142,0,39.094-14.555,32.062-24.889C-308.197,377.78-345.434,393.472-344.424,380.639z"/>
		<path id="XMLID_61_" style="fill:#4D4D4D;" d="M-304.916,382.603c-2.39-3.518-8.082-11.876-8.082-11.876
			s-17.567-10.444-31.426,9.912C-336.938,369.613-311.183,373.393-304.916,382.603z"/>
		<polygon id="XMLID_62_" style="fill:#4D4D4D;" points="-263.961,375.646 -284.304,375.646 -284.304,383.646 -263.304,383.646 
			-263.304,420.646 -254.304,420.646 -254.304,383.646 -231.304,383.646 -231.304,375.646 -253.203,375.646 		"/>
		<polygon id="XMLID_63_" style="fill:#4D4D4D;" points="-218.304,375.646 -218.304,383.507 -218.304,393.669 -218.304,401.574 
			-218.304,412.269 -218.304,420.646 -206.917,420.646 -176.304,420.646 -176.304,412.646 -207.304,412.646 -207.304,401.646 
			-176.304,401.646 -176.304,393.646 -207.304,393.646 -207.304,383.646 -176.304,383.646 -176.304,375.646 -206.917,375.646 		"/>
		<polygon id="XMLID_64_" style="fill:#4D4D4D;" points="-131.767,397.319 -143.602,371.834 -164.28,420.069 -156.927,423.222 
			-143.31,391.457 -131.467,416.958 -120.783,391.986 -107.732,423.189 -100.351,420.102 -120.701,371.454 		"/>
		<path id="XMLID_67_" style="fill:#4D4D4D;" d="M45.016,378.646H-0.237l-0.594,35h-3.266l-21.178-36.804l-21.44,36.804h-32.59v-40
			h-8v48h45.188l16.8-28.838l16.594,28.838h52.93l-19.006-22.93L45.016,378.646z M27.185,413.646H7.17l0.458-27h18.247
			l-11.453,11.601L27.185,413.646z"/>
	</g>
</g>
</svg>
